<svg width="45" height="50" viewBox="0 0 45 50" fill="none" xmlns="http://www.w3.org/2000/svg">
<path d="M44.0458 38.4712C43.5277 37.8031 42.7843 37.1709 41.8361 36.592C40.1031 35.5341 37.6302 34.6275 34.6848 33.9703C34.054 33.8296 33.4288 34.2267 33.288 34.8574C33.1473 35.4881 33.5445 36.1134 34.1752 36.2541C36.8729 36.856 39.1004 37.6635 40.6169 38.5893C41.9086 39.3778 42.62 40.2162 42.62 40.9501C42.62 41.6614 41.9624 42.3289 41.4108 42.7636C40.47 43.5051 39.0318 44.2106 37.2517 44.804C33.3901 46.0912 28.2329 46.8001 22.73 46.8001C17.2271 46.8001 12.0699 46.0912 8.20832 44.804C6.42821 44.2106 4.99003 43.5051 4.04918 42.7636C3.49756 42.3289 2.84 41.6614 2.84 40.9501C2.84 40.2162 3.55141 39.3778 4.84316 38.5893C6.35962 37.6635 8.58716 36.856 11.2849 36.2541C11.9156 36.1134 12.3128 35.488 12.172 34.8574C12.0313 34.2267 11.406 33.8295 10.7753 33.9702C7.8299 34.6274 5.35696 35.534 3.6239 36.592C2.67575 37.1708 1.93232 37.8031 1.41422 38.4712C0.80759 39.2535 0.5 40.0876 0.5 40.9501C0.5 41.6456 0.70211 42.3276 1.10077 42.9769C1.44986 43.5456 1.95454 44.0922 2.60081 44.6015C3.76799 45.5213 5.40568 46.3363 7.46836 47.0239C11.5622 48.3885 16.9822 49.1401 22.73 49.1401C28.4778 49.1401 33.8978 48.3885 37.9917 47.0239C40.0544 46.3364 41.692 45.5213 42.8592 44.6015C43.5055 44.0922 44.0102 43.5456 44.3592 42.977C44.7579 42.3276 44.96 41.6457 44.96 40.9501C44.96 40.0876 44.6524 39.2535 44.0458 38.4712Z" fill="#FFA500"/>
<path d="M14.7537 33.1422C18.2809 38.1391 21.756 41.6311 21.9022 41.7773C22.0109 41.886 22.1398 41.9722 22.2818 42.031C22.4237 42.0898 22.5759 42.12 22.7295 42.12C22.8832 42.12 23.0353 42.0898 23.1773 42.031C23.3192 41.9722 23.4482 41.886 23.5568 41.7773C23.703 41.6311 27.1782 38.1391 30.7054 33.1422C32.7875 30.1926 34.4494 27.3331 35.645 24.643C37.1675 21.2172 37.9395 18.0435 37.9395 15.21C37.9395 13.1572 37.5372 11.1652 36.7438 9.28923C35.9777 7.47789 34.8811 5.8514 33.4846 4.45491C32.0882 3.05843 30.4617 1.9619 28.6503 1.19576C26.7744 0.4023 24.7823 0 22.7295 0C20.6767 0 18.6847 0.402315 16.8088 1.19576C14.9974 1.9619 13.3709 3.05844 11.9744 4.45491C10.5779 5.8514 9.48143 7.47789 8.71529 9.28923C7.92183 11.1651 7.51953 13.1572 7.51953 15.21C7.51953 18.0435 8.29154 21.2172 9.81411 24.643C11.0097 27.3331 12.6716 30.1927 14.7537 33.1422ZM22.7295 2.34C29.8261 2.34 35.5995 8.11346 35.5995 15.21C35.5995 19.7433 33.2534 25.4671 28.8149 31.7626C26.4027 35.1842 23.964 37.9285 22.7293 39.2556C21.4994 37.934 19.0746 35.2058 16.6654 31.7928C12.2129 25.4852 9.85953 19.7509 9.85953 15.21C9.85953 8.11346 15.633 2.34 22.7295 2.34Z" fill="#FFA500"/>
<path d="M19.5408 22.7559C20.5512 23.1833 21.6239 23.4 22.729 23.4C23.8342 23.4 24.9069 23.1833 25.9173 22.7559C26.8927 22.3434 27.7685 21.753 28.5202 21.0012C29.272 20.2495 29.8624 19.3737 30.2749 18.3983C30.7023 17.3879 30.919 16.3152 30.919 15.21C30.919 14.1049 30.7023 13.0322 30.2749 12.0218C29.8624 11.0464 29.272 10.1706 28.5202 9.41885C27.7685 8.66706 26.8927 8.07671 25.9173 7.66415C24.9069 7.23674 23.8342 7.02002 22.729 7.02002C21.6239 7.02002 20.5512 7.23672 19.5408 7.6641C18.5654 8.07667 17.6896 8.66703 16.9379 9.4188C16.1861 10.1706 15.5957 11.0463 15.1831 12.0217C14.7558 13.0322 14.5391 14.1049 14.5391 15.21C14.5391 16.3151 14.7558 17.3878 15.1831 18.3983C15.5957 19.3737 16.1861 20.2494 16.9379 21.0012C17.6896 21.753 18.5654 22.3434 19.5408 22.7559ZM22.729 9.36002C25.9548 9.36002 28.579 11.9843 28.579 15.21C28.579 18.4357 25.9548 21.06 22.729 21.06C19.5034 21.06 16.879 18.4357 16.879 15.21C16.879 11.9843 19.5034 9.36002 22.729 9.36002Z" fill="#FFA500"/>
<path d="M22.729 9.36002C25.9548 9.36002 28.579 11.9843 28.579 15.21C28.579 18.4357 25.9548 21.06 22.729 21.06C19.5034 21.06 16.879 18.4357 16.879 15.21C16.879 11.9843 19.5034 9.36002 22.729 9.36002Z" fill="#FFA500"/>
</svg>
