<svg width="41" height="40" viewBox="0 0 41 40" fill="none" xmlns="http://www.w3.org/2000/svg">
<path d="M34.0518 28.9807C33.7064 28.5353 33.2108 28.1138 32.5787 27.7279C31.4233 27.0226 29.7747 26.4182 27.8111 25.9801C27.3906 25.8863 26.9738 26.1511 26.8799 26.5715C26.7861 26.992 27.0509 27.4088 27.4714 27.5026C29.2699 27.9039 30.7549 28.4423 31.7658 29.0594C32.627 29.5851 33.1012 30.1441 33.1012 30.6333C33.1012 31.1075 32.6629 31.5525 32.2951 31.8423C31.6679 32.3366 30.7091 32.807 29.5224 33.2026C26.948 34.0607 23.5098 34.5333 19.8413 34.5333C16.1727 34.5333 12.7345 34.0607 10.1601 33.2026C8.97338 32.807 8.01459 32.3366 7.38736 31.8423C7.01961 31.5525 6.58124 31.1075 6.58124 30.6333C6.58124 30.1441 7.05551 29.5851 7.91668 29.0594C8.92765 28.4422 10.4127 27.9039 12.2112 27.5026C12.6316 27.4088 12.8964 26.9919 12.8026 26.5715C12.7088 26.151 12.2919 25.8862 11.8715 25.9801C9.90784 26.4182 8.25921 27.0226 7.10384 27.7279C6.47174 28.1138 5.97612 28.5353 5.63072 28.9807C5.2263 29.5023 5.02124 30.0583 5.02124 30.6333C5.02124 31.097 5.15598 31.5516 5.42175 31.9845C5.65448 32.3636 5.99093 32.728 6.42178 33.0676C7.1999 33.6808 8.29169 34.2241 9.66681 34.6825C12.396 35.5923 16.0094 36.0933 19.8412 36.0933C23.6731 36.0933 27.2864 35.5923 30.0157 34.6825C31.3908 34.2242 32.4826 33.6808 33.2607 33.0676C33.6916 32.728 34.028 32.3636 34.2607 31.9846C34.5265 31.5517 34.6613 31.097 34.6613 30.6333C34.6612 30.0583 34.4562 29.5023 34.0518 28.9807Z" fill="#E53935"/>
<path d="M14.5233 25.4281C16.8748 28.7594 19.1915 31.0874 19.289 31.1849C19.3614 31.2573 19.4474 31.3148 19.5421 31.354C19.6367 31.3932 19.7381 31.4133 19.8406 31.4133C19.943 31.4133 20.0444 31.3932 20.1391 31.3539C20.2337 31.3147 20.3197 31.2573 20.3921 31.1849C20.4896 31.0874 22.8063 28.7594 25.1578 25.4281C26.5458 23.4617 27.6538 21.5554 28.4509 19.762C29.4659 17.4781 29.9806 15.3623 29.9806 13.4733C29.9806 12.1048 29.7124 10.7768 29.1834 9.52613C28.6727 8.31857 27.9416 7.23424 27.0106 6.30325C26.0796 5.37226 24.9953 4.64124 23.7878 4.13048C22.5371 3.60151 21.2091 3.33331 19.8406 3.33331C18.472 3.33331 17.144 3.60152 15.8934 4.13048C14.6858 4.64124 13.6015 5.37227 12.6705 6.30325C11.7395 7.23424 11.0085 8.31857 10.4977 9.52613C9.96876 10.7767 9.70056 12.1048 9.70056 13.4733C9.70056 15.3623 10.2152 17.4781 11.2303 19.762C12.0274 21.5554 13.1353 23.4618 14.5233 25.4281ZM19.8406 4.89331C24.5716 4.89331 28.4206 8.74228 28.4206 13.4733C28.4206 16.4955 26.8565 20.3114 23.8975 24.5084C22.2893 26.7894 20.6635 28.619 19.8404 29.5037C19.0205 28.6227 17.4039 26.8039 15.7978 24.5285C12.8295 20.3234 11.2606 16.5006 11.2606 13.4733C11.2606 8.74228 15.1095 4.89331 19.8406 4.89331Z" fill="#E53935"/>
<path d="M17.7157 18.5039C18.3893 18.7888 19.1045 18.9333 19.8412 18.9333C20.578 18.9333 21.2931 18.7888 21.9667 18.5039C22.617 18.2289 23.2008 17.8353 23.702 17.3341C24.2032 16.8329 24.5968 16.2491 24.8718 15.5988C25.1567 14.9252 25.3012 14.2101 25.3012 13.4733C25.3012 12.7366 25.1567 12.0214 24.8718 11.3478C24.5968 10.6975 24.2032 10.1137 23.702 9.61253C23.2008 9.11134 22.617 8.71777 21.9667 8.44273C21.2931 8.15779 20.578 8.01331 19.8412 8.01331C19.1045 8.01331 18.3893 8.15778 17.7157 8.4427C17.0654 8.71774 16.4816 9.11132 15.9804 9.6125C15.4792 10.1137 15.0857 10.6975 14.8106 11.3478C14.5257 12.0214 14.3812 12.7365 14.3812 13.4733C14.3812 14.21 14.5257 14.9252 14.8106 15.5988C15.0857 16.2491 15.4792 16.8329 15.9804 17.3341C16.4816 17.8353 17.0654 18.2289 17.7157 18.5039ZM19.8412 9.57331C21.9917 9.57331 23.7412 11.3228 23.7412 13.4733C23.7412 15.6238 21.9917 17.3733 19.8412 17.3733C17.6908 17.3733 15.9412 15.6238 15.9412 13.4733C15.9412 11.3228 17.6908 9.57331 19.8412 9.57331Z" fill="#E53935"/>
<path d="M19.8412 9.57331C21.9917 9.57331 23.7412 11.3228 23.7412 13.4733C23.7412 15.6238 21.9917 17.3733 19.8412 17.3733C17.6908 17.3733 15.9412 15.6238 15.9412 13.4733C15.9412 11.3228 17.6908 9.57331 19.8412 9.57331Z" fill="#E53935"/>
</svg>
