<svg width="175" height="40" viewBox="0 0 175 40" fill="none" xmlns="http://www.w3.org/2000/svg">
<g clip-path="url(#clip0_298_4610)">
<path d="M67.3643 11.6505L60.5686 23.7494L61.1325 11.6505H57.2157L58.6848 28.8449H59.0525L67.4705 16.8975L69.1807 28.8449H69.528L71.1299 11.6505H67.3643Z" fill="black"/>
<path d="M93.2454 11.6505L93.5274 19.4565L87.3385 18.351L87.5776 11.6505H83.575L84.1797 28.5624H86.9707L87.2282 21.213L93.5458 20.3245L93.8482 28.5624H96.6841L97.2889 11.6505H93.2413H93.2454Z" fill="black"/>
<path d="M118.152 11.1531L114.734 11.6731L108.802 28.8019H109.15L111.399 24.8344L119.968 23.3379L122.52 28.7998L125.074 28.5173L118.15 11.151L118.152 11.1531ZM113.087 21.7985L116.442 15.792L119.709 22.818L113.087 21.7964V21.7985Z" fill="black"/>
<path d="M148.986 13.4848C148.583 12.9423 147.989 12.5001 147.202 12.1603C146.414 11.8205 145.445 11.6505 144.293 11.6505C143.714 11.6505 143.083 11.7017 142.399 11.8041C141.712 11.9064 140.979 12.0723 140.202 12.3036L140.223 11.6526H136.285L137.086 28.5644H139.855L140.008 21.6695C141.955 21.5098 143.551 21.2068 144.801 20.7585C146.05 20.3101 147.02 19.7758 147.723 19.1535C148.422 18.5311 148.91 17.8822 149.182 17.2025C149.458 16.5229 149.593 15.8718 149.593 15.2495C149.593 14.6272 149.393 14.0253 148.988 13.4828L148.986 13.4848ZM145.557 16.8136C145.392 17.3909 145.1 17.9764 144.681 18.568C144.264 19.1617 143.676 19.6939 142.918 20.173C142.16 20.65 141.189 21.0041 140.008 21.2355L140.18 13.321C140.57 13.2494 140.938 13.2023 141.283 13.1798C141.63 13.1593 141.955 13.147 142.258 13.147C143.541 13.147 144.454 13.362 144.996 13.7878C145.535 14.2136 145.807 14.7234 145.807 15.315C145.807 15.7326 145.723 16.2321 145.557 16.8115V16.8136Z" fill="black"/>
<path d="M171.232 11.6505L164.439 23.7494L165.001 11.6505H161.084L162.557 28.8449H162.923L171.341 16.8975L173.053 28.8449H173.398L175 11.6505H171.234H171.232Z" fill="black"/>
<path d="M36.3628 20.6152C36.3301 21.5405 36.2198 22.4454 36.04 23.3257C35.7355 24.8037 35.237 26.2081 34.5648 27.5122C34.5648 27.5122 34.5648 27.5135 34.5648 27.5163C34.4953 27.6575 34.4197 27.7967 34.3441 27.9339C33.9232 28.7016 33.441 29.4324 32.9057 30.1162V30.1203C32.5216 30.6116 32.115 31.0784 31.6777 31.5226C29.939 33.2955 27.7998 34.6773 25.4092 35.5187C24.8187 35.7275 24.216 35.9036 23.5969 36.0428C22.4302 36.3069 21.2166 36.4461 19.9682 36.4461C18.7198 36.4461 17.5184 36.3069 16.3538 36.0469C15.7347 35.9056 15.1278 35.7337 14.5414 35.5248C12.1427 34.6835 9.99736 33.2996 8.25247 31.5185C7.81523 31.0743 7.40659 30.6055 7.02451 30.1121C6.49123 29.4263 6.01108 28.6995 5.59223 27.9339C5.51254 27.7906 5.43694 27.6514 5.36339 27.506C4.69526 26.202 4.19468 24.7996 3.89228 23.3236C3.71248 22.4413 3.60215 21.5385 3.56946 20.6131L4.12521 20.7994C4.29684 20.8568 4.49707 20.9161 4.69935 20.9693C4.75656 20.9837 4.81172 21.0001 4.86893 21.0123C5.45124 21.1536 5.99269 21.2273 6.43402 21.2273C6.74255 21.2273 7.00816 21.1904 7.19409 21.1188C7.3126 20.9509 7.48627 20.5804 7.62725 20.2037C7.27582 19.004 6.05195 14.3467 6.96321 10.1561C6.98364 10.064 7.00408 9.97595 7.02451 9.88792C7.41885 9.38227 7.83974 8.90322 8.2872 8.44875C8.81639 7.91034 9.3844 7.40878 9.9851 6.94816C10.9924 6.17228 12.0916 5.51308 13.2644 4.98695C13.6547 4.81294 14.0511 4.65326 14.4536 4.50791C14.7274 4.40965 15.0032 4.31957 15.2811 4.23768C16.2026 3.96131 17.1608 3.76683 18.1416 3.65833C18.3275 3.63581 18.5134 3.61943 18.6973 3.60305C18.7954 3.59691 18.8914 3.59077 18.9895 3.58463C19.0569 3.58054 19.1264 3.57644 19.1958 3.57439C19.4512 3.56211 19.7066 3.55597 19.9682 3.55597C20.4912 3.55597 21.0102 3.57849 21.521 3.62967C21.6416 3.6399 21.758 3.65219 21.8745 3.66652C22.8307 3.77707 23.7644 3.97155 24.6634 4.24178C24.9434 4.32162 25.2192 4.41169 25.4909 4.51201C25.9343 4.66964 26.3695 4.8457 26.7945 5.04223C27.9326 5.56221 28.9971 6.20912 29.9758 6.96658C30.5703 7.4272 31.1343 7.92467 31.6573 8.46103C32.1048 8.91551 32.5257 9.3966 32.9221 9.9043C32.9384 9.98414 32.9568 10.0701 32.9772 10.1541C33.8885 14.3467 32.6687 19.004 32.3152 20.2037C32.4562 20.5783 32.6299 20.953 32.7463 21.1188H32.7504C32.9384 21.1904 33.202 21.2273 33.5105 21.2273C33.9498 21.2273 34.4892 21.1515 35.0756 21.0123C35.1328 21.0001 35.1859 20.9837 35.239 20.9714C35.4454 20.9161 35.6456 20.8588 35.8091 20.8015L36.3628 20.6152Z" fill="white"/>
<path d="M34.1255 17.4605L33.866 17.0531C34.2072 16.6866 34.5178 16.1892 34.7998 15.5607L35.2207 15.6855C35.1451 15.8985 35.0307 16.1359 34.8774 16.4021V18.9242H34.4259V17.1083C34.3257 17.2455 34.2256 17.3601 34.1235 17.4584L34.1255 17.4605Z" fill="#E70002"/>
<path d="M35.0123 15.2127H33.9294V14.7705H35.0123V14.3754H35.4924V14.7705H36.0768V15.2127H35.4924V15.5259H35.0123V15.2127Z" fill="#E70002"/>
<path d="M37.1453 16.529H35.4863V18.1012H37.1453V16.529Z" fill="#E70002"/>
<path d="M36.8879 15.2127H36.2913V14.7705H36.8879V14.3754H37.3701V14.7705H38.451V15.2127H37.3701V15.5259H36.8879V15.2127Z" fill="#E70002"/>
<path d="M36.9452 18.9201L36.7756 18.4738C36.8777 18.4779 37.1025 18.48 37.4457 18.48C37.5499 18.48 37.6051 18.4206 37.6051 18.2978V16.1871H35.3453V15.7449H38.4571V16.1871H38.073V18.4329C38.073 18.5475 38.0424 18.6438 37.9811 18.7215C37.9218 18.7993 37.8401 18.8526 37.74 18.8792C37.6398 18.9078 37.3742 18.9201 36.9452 18.9201Z" fill="#E70002"/>
<path d="M1.3158 17.5465C1.60797 17.135 1.85316 16.6559 2.04726 16.1114H1.38118V15.6856H2.07791V15.0305C1.90832 15.0694 1.74487 15.0919 1.58958 15.098L1.40978 14.6804C1.94919 14.6538 2.43138 14.5514 2.85228 14.3754L3.04434 14.7705C2.92584 14.8155 2.74808 14.8728 2.51107 14.9404V15.6856H3.0709V16.1114H2.51107V16.2199C2.77873 16.5208 2.97487 16.7767 3.10155 16.9896L2.81346 17.3233C2.70926 17.1329 2.6071 16.9692 2.51107 16.8299V18.957H2.07791V17.0326C1.94101 17.3561 1.78573 17.6529 1.61206 17.9231L1.3158 17.5485V17.5465Z" fill="#E70002"/>
<path d="M3.63576 16.3775H3.19971V18.9692H3.63576V16.3775Z" fill="#E70002"/>
<path d="M3.86569 16.1175L3.50404 16.2424C3.42436 15.9926 3.30381 15.7101 3.1424 15.3928L3.54491 15.2618C3.69202 15.5156 3.80439 15.7695 3.88612 16.0295C3.89634 16.054 3.90246 16.0807 3.91064 16.1052L3.86569 16.1196V16.1175Z" fill="#E70002"/>
<path d="M4.77285 16.0663L4.36216 16.1687C4.2927 15.8616 4.20075 15.5607 4.08429 15.2679L4.5154 15.1717C4.61961 15.4419 4.70747 15.7408 4.77285 16.0643V16.0663Z" fill="#E70002"/>
<path d="M5.31838 18.9733V18.7174H4.42959V18.9733H3.99438V16.4102H5.76992V18.9733H5.31838Z" fill="#E70002"/>
<path d="M3.33244 15.1594L3.1322 14.7316C3.5245 14.7234 3.90045 14.6988 4.26209 14.6538C4.72181 14.6005 5.15497 14.5207 5.5677 14.4122L5.7904 14.7971C5.24487 14.9383 4.68912 15.0386 4.1252 15.1001C3.86367 15.1308 3.59805 15.1512 3.33244 15.1615V15.1594Z" fill="#E70002"/>
<path d="M5.80878 15.2127C5.69436 15.5771 5.5493 15.921 5.37767 16.2403L4.97516 16.0602C5.14679 15.7347 5.28777 15.399 5.39606 15.055L5.80878 15.2127Z" fill="#E70002"/>
<path d="M39.8976 21.0062C39.8874 21.2334 39.8731 21.4586 39.8527 21.6838C39.0007 31.9423 30.4213 40 19.9621 40C9.503 40 0.909302 31.9279 0.0695475 21.6552C0.0491156 21.4341 0.0368564 21.2109 0.0245972 20.9857L1.68776 21.6285L1.73067 21.647C1.99424 21.7534 2.51526 21.9581 3.15886 22.1792C3.12617 22.1199 3.09553 22.0564 3.06692 21.995L2.18017 20.1546L3.56137 20.6131L4.11712 20.7994C4.28875 20.8567 4.48899 20.9161 4.69126 20.9693C4.74847 20.9837 4.80364 21.0001 4.86085 21.0123C5.44316 21.1536 5.98461 21.2273 6.42594 21.2273C6.73446 21.2273 7.00008 21.1904 7.18601 21.1188C7.30452 20.9509 7.47819 20.5804 7.61917 20.2037C7.26774 19.004 6.04386 14.3467 6.95513 10.1561C6.97556 10.064 6.99599 9.97595 7.01642 9.88792C7.07568 9.62383 7.13697 9.37817 7.19827 9.1366C7.71316 7.0976 8.46505 5.00128 9.25781 3.39014C9.32728 3.24889 9.39471 3.11377 9.46213 2.98685C9.95659 2.67977 10.4653 2.39316 10.9843 2.13112C11.4461 1.8957 11.9181 1.68074 12.3982 1.48626C12.7006 1.36138 13.003 1.24469 13.3115 1.13619C14.7193 0.636675 16.2047 0.290701 17.7371 0.122831C17.9618 0.0962178 18.1866 0.0757459 18.4134 0.0573213C18.5319 0.0491325 18.6504 0.0409438 18.7689 0.0348022C18.8506 0.0286606 18.9344 0.0245663 19.0182 0.0225191C19.3267 0.00818875 19.6413 0 19.956 0C20.5935 0 21.2248 0.0307078 21.846 0.0880291C21.991 0.100312 22.1341 0.11669 22.2771 0.135114C23.7788 0.309125 25.2295 0.648958 26.6107 1.14028C26.9192 1.24878 27.2237 1.36547 27.524 1.49035C28.0083 1.68893 28.4843 1.90798 28.9502 2.14341C29.4712 2.40545 29.9779 2.69205 30.4724 3.00118C30.5357 3.12606 30.6011 3.25503 30.6685 3.39219C31.4613 5.00537 32.2111 7.10169 32.728 9.14069C32.7914 9.38226 32.8527 9.63611 32.916 9.90839C32.9324 9.98823 32.9508 10.0742 32.9712 10.1581C33.8825 14.3508 32.6627 19.0081 32.3092 20.2078C32.4502 20.5824 32.6238 20.9571 32.7403 21.1229H32.7444C32.9324 21.1945 33.1959 21.2314 33.5045 21.2314C33.9437 21.2314 34.4832 21.1556 35.0695 21.0164C35.1268 21.0041 35.1799 20.9878 35.233 20.9755C35.4394 20.9202 35.6396 20.8629 35.8031 20.8056L36.3568 20.6193L37.7584 20.1525L36.8614 22.0052C36.8328 22.0666 36.8022 22.126 36.7695 22.1854C37.2415 22.0236 37.7216 21.8455 38.1875 21.6552L38.2488 21.6306L39.8915 21.0103L39.8976 21.0062Z" fill="#E70002"/>
<path d="M21.8091 11.8921C21.2839 11.8184 20.7752 11.7795 20.295 11.7795C20.1827 11.7795 20.0703 11.7816 19.96 11.7856C19.8496 11.7816 19.7393 11.7795 19.6249 11.7795C19.1447 11.7795 18.636 11.8164 18.1109 11.8921C18.0107 11.2145 17.8922 10.5389 17.7553 9.87562C17.5224 8.74762 17.2343 7.66261 16.9013 6.6513C16.7133 6.07399 16.5049 5.51511 16.2842 4.98079C17.4775 4.65529 18.7116 4.49152 19.9579 4.49152C21.2043 4.49152 22.4404 4.65734 23.6336 4.98284C23.415 5.50897 23.2066 6.06785 23.0166 6.6513C22.6835 7.6667 22.3975 8.75171 22.1646 9.87562C22.0318 10.5205 21.9112 11.1961 21.807 11.8921H21.8091Z" fill="#E70002"/>
<path d="M35.8377 27.68C36.1217 27.6289 36.3056 27.6002 36.3056 27.6002C36.3056 27.6002 36.1524 27.7865 35.8622 28.0751C35.2758 28.6565 34.1153 29.6433 32.4869 30.2963C32.1845 30.4253 31.876 30.5379 31.5674 30.6423C31.0505 30.8184 30.5254 30.976 30.0105 31.1459C29.23 31.4018 28.47 31.6905 27.7712 32.1224C27.099 32.538 26.5146 33.0703 25.9609 33.6414C25.4133 34.2065 24.8944 34.8083 24.3509 35.3713C23.2516 36.5055 21.66 37.2813 20.3278 37.2813C20.2093 37.2813 20.0867 37.2752 19.9641 37.265C19.8415 37.2752 19.721 37.2813 19.6004 37.2813C18.2683 37.2813 16.6746 36.5055 15.5774 35.3713C15.0298 34.8083 14.5149 34.2085 13.9694 33.6435C13.4157 33.0723 12.8334 32.5401 12.1591 32.1224C11.4624 31.6884 10.6982 31.4018 9.91975 31.1459C9.40486 30.974 8.87976 30.8163 8.36487 30.6423C8.05635 30.5359 7.74783 30.4233 7.44543 30.2963C5.817 29.6433 4.65647 28.6545 4.07007 28.0751C3.77994 27.7865 3.6267 27.6002 3.6267 27.6002C3.6267 27.6002 3.81058 27.6289 4.09459 27.68C4.7055 27.7865 5.78023 27.9687 6.49739 28.0813C6.39523 28.0506 5.39815 27.7374 4.1661 26.5561C3.27731 25.7024 2.26388 24.4025 1.37305 22.4372C1.43434 22.4618 2.82372 23.0411 4.36429 23.4608C4.59313 23.5222 4.82605 23.5816 5.05898 23.6327C5.55752 23.7474 6.05402 23.8334 6.50965 23.8682C6.50965 23.8682 5.67602 23.6327 4.87918 22.949C4.72594 22.818 4.5727 22.6706 4.42967 22.5027C4.20901 22.2509 4.00673 21.9581 3.84532 21.6204C3.87597 21.6306 4.11502 21.7125 4.47258 21.8067C4.53183 21.823 4.59109 21.8374 4.65647 21.8537C5.45127 22.0462 6.66085 22.2447 7.49243 21.9295C7.52921 21.9172 7.5619 21.9131 7.59663 21.907C8.04818 21.7084 8.53037 20.218 8.53037 20.218C8.53037 20.218 6.80796 14.9179 7.80299 10.3383C7.87655 10.0087 7.95419 9.67911 8.03796 9.35156C9.10247 5.15073 10.9924 1.34706 11.9589 1.30816C12.4635 1.28769 13.4116 2.31333 14.3576 4.30729C14.4189 4.44036 14.4843 4.57752 14.5456 4.71878C14.8275 5.35545 15.1074 6.07811 15.3751 6.88265C15.6979 7.87145 16.0024 8.99126 16.2598 10.2339C16.4825 11.3128 16.6725 12.4838 16.8176 13.7469C16.8176 13.7469 18.1436 13.3743 19.6045 13.3743C19.7271 13.3743 19.8477 13.3784 19.9682 13.3825C20.0867 13.3763 20.2093 13.3743 20.3319 13.3743C21.7928 13.3743 23.1209 13.7469 23.1209 13.7469C23.2639 12.4838 23.4539 11.3128 23.6787 10.2339C23.9361 8.98921 24.2385 7.87145 24.5634 6.88265C24.829 6.07606 25.1089 5.3534 25.3929 4.71878C25.4542 4.57752 25.5196 4.44036 25.5809 4.30729C26.5248 2.31333 27.4749 1.28769 27.9796 1.30816C28.944 1.34706 30.8339 5.14664 31.8984 9.34747C31.9822 9.67502 32.0619 10.0067 32.1334 10.3363C33.1305 14.9158 31.406 20.216 31.406 20.216C31.406 20.216 31.8882 21.7063 32.3398 21.9049C32.3725 21.9111 32.4072 21.9152 32.444 21.9274C33.2735 22.2407 34.4831 22.0441 35.2799 21.8517C35.3433 21.8353 35.4046 21.821 35.4638 21.8046C35.8214 21.7104 36.0604 21.6285 36.0911 21.6183C35.9276 21.9561 35.7274 22.2488 35.5067 22.5006C35.3637 22.6665 35.2105 22.8139 35.0572 22.9449C34.2624 23.6286 33.4268 23.8661 33.4268 23.8661C33.8844 23.8313 34.3789 23.7453 34.8774 23.6307C35.1083 23.5795 35.3412 23.5222 35.5701 23.4587C37.1127 23.0391 38.498 22.4597 38.5634 22.4351C37.6725 24.4004 36.6591 25.7004 35.7703 26.5541C34.5362 27.7353 33.5412 28.0485 33.437 28.0792C34.1541 27.9666 35.2309 27.7824 35.8418 27.678L35.8377 27.68Z" fill="#FFF2BB"/>
<path d="M39.8976 21.0062C39.8873 21.2334 39.873 21.4586 39.8526 21.6838L39.3479 22.7975C38.6635 24.3042 37.8441 25.5898 36.9043 26.6278L38.4081 26.3862L36.9778 28.1488C36.9594 28.1714 36.7858 28.3822 36.4711 28.6934C35.8745 29.283 34.6057 30.3823 32.8097 31.1029C32.542 31.2155 32.2335 31.3343 31.8514 31.4653C31.7942 31.4837 31.7329 31.5042 31.6757 31.5226C31.4469 31.5983 31.2201 31.67 30.9933 31.7416C30.7563 31.8174 30.5213 31.8911 30.2864 31.9709C29.5998 32.1961 28.8786 32.4582 28.2289 32.8615C27.7119 33.1829 27.2032 33.6087 26.5841 34.2474C26.3205 34.5217 26.0528 34.8145 25.7934 35.0949C25.6667 35.2362 25.5359 35.3774 25.4051 35.5187C25.2642 35.6722 25.1211 35.8237 24.974 35.9752C23.695 37.2957 21.8725 38.1493 20.3278 38.1493H19.6025C18.0599 38.1493 16.2353 37.2977 14.9583 35.9752C14.8132 35.8278 14.6722 35.6763 14.5312 35.5248C14.3944 35.3774 14.2575 35.228 14.1246 35.0827C13.8713 34.8042 13.6098 34.5176 13.3482 34.2495C12.9314 33.8175 12.3655 33.2688 11.7055 32.8635C11.0517 32.4582 10.3325 32.1961 9.65004 31.973C9.41303 31.8931 9.18419 31.8215 8.95127 31.7457C8.71426 31.67 8.47725 31.5963 8.24228 31.5165C8.18916 31.5001 8.13808 31.4817 8.08495 31.4632C7.69062 31.3281 7.39231 31.2155 7.11443 31.0968C5.32255 30.3741 4.05781 29.2809 3.46119 28.6913C3.14654 28.3802 2.97491 28.1693 2.95448 28.1468L1.52015 26.3801L3.02599 26.6237C2.08816 25.5858 1.2668 24.3022 0.582326 22.7954L0.0653972 21.6552C0.0449652 21.4341 0.032706 21.2109 0.0204468 20.9857L1.68361 21.6285L1.72652 21.647C1.99009 21.7534 2.51111 21.9581 3.15471 22.1792C3.12202 22.1199 3.09137 22.0564 3.06277 21.995L2.17602 20.1546L3.55722 20.6131L4.11297 20.7994C4.2846 20.8568 4.48484 20.9161 4.68711 20.9693C4.74432 20.9837 4.79949 21.0001 4.8567 21.0123C5.43901 21.1536 5.98046 21.2273 6.42179 21.2273C6.73031 21.2273 6.99593 21.1904 7.18186 21.1188C7.30037 20.9509 7.47404 20.5804 7.61502 20.2037C7.26359 19.004 6.03971 14.3467 6.95098 10.1561C6.97141 10.064 6.99184 9.97595 7.01227 9.88792C7.07153 9.62383 7.13282 9.37817 7.19412 9.1366C7.709 7.0976 8.4609 5.00128 9.25366 3.39014C9.32313 3.24889 9.39056 3.11377 9.45798 2.98685C10.6022 0.786122 11.3704 0.468808 11.92 0.446289H11.9691C12.4329 0.446289 12.8906 0.722659 13.3115 1.13619C14.0777 1.88751 14.7335 3.0974 15.134 3.93879C15.181 4.0391 15.2259 4.13532 15.2709 4.23768C15.2913 4.28272 15.3117 4.32776 15.3322 4.37484C15.6366 5.0627 15.9268 5.81811 16.1903 6.61651C16.5479 7.71176 16.8544 8.87047 17.1016 10.066C17.2773 10.9177 17.4285 11.8041 17.5511 12.7069C18.1028 12.6086 18.8301 12.5145 19.5984 12.5145C19.721 12.5145 19.8415 12.5186 19.96 12.5226C20.0806 12.5186 20.2011 12.5145 20.3237 12.5145C21.092 12.5145 21.8214 12.6086 22.373 12.7069C22.4956 11.8061 22.6468 10.9197 22.8225 10.066C23.0739 8.85614 23.3803 7.69538 23.7359 6.61856C23.9974 5.81811 24.2875 5.0627 24.596 4.3728C24.6144 4.3298 24.6328 4.28681 24.6533 4.24382C24.6982 4.14351 24.7432 4.04729 24.7881 3.94903C25.1886 3.10354 25.8444 1.89365 26.6106 1.14029C27.0336 0.724707 27.4913 0.448336 27.9571 0.448336H28.0082C28.5578 0.470855 29.326 0.790216 30.4743 3.00118C30.5377 3.12606 30.603 3.25503 30.6705 3.39219C31.4632 5.00538 32.2131 7.1017 32.73 9.1407C32.7934 9.38226 32.8547 9.63612 32.918 9.90839C32.9343 9.98823 32.9527 10.0742 32.9732 10.1581C33.8844 14.3508 32.6646 19.0081 32.3112 20.2078C32.4521 20.5824 32.6258 20.9571 32.7423 21.1229H32.7464C32.9343 21.1945 33.1979 21.2314 33.5064 21.2314C33.9457 21.2314 34.4851 21.1556 35.0715 21.0164C35.1287 21.0041 35.1819 20.9878 35.235 20.9755C35.4413 20.9202 35.6416 20.8629 35.805 20.8056L36.3587 20.6193L37.7604 20.1525L36.8634 22.0052C36.8348 22.0666 36.8042 22.126 36.7715 22.1854C37.2434 22.0236 37.7236 21.8455 38.1894 21.6552L38.2507 21.6306L39.8935 21.0103L39.8976 21.0062Z" fill="#1D1D1B"/>
<path d="M35.8377 27.68C36.1217 27.6289 36.3056 27.6002 36.3056 27.6002C36.3056 27.6002 36.1524 27.7865 35.8622 28.0751C35.2758 28.6565 34.1153 29.6433 32.4869 30.2963C32.1845 30.4253 31.876 30.5379 31.5674 30.6423C31.0505 30.8184 30.5254 30.976 30.0105 31.1459C29.23 31.4018 28.47 31.6905 27.7712 32.1224C27.099 32.538 26.5146 33.0703 25.9609 33.6414C25.4133 34.2065 24.8944 34.8083 24.3509 35.3713C23.2516 36.5055 21.66 37.2813 20.3278 37.2813C20.2093 37.2813 20.0867 37.2752 19.9641 37.265C19.8415 37.2752 19.721 37.2813 19.6004 37.2813C18.2683 37.2813 16.6746 36.5055 15.5774 35.3713C15.0298 34.8083 14.5149 34.2085 13.9694 33.6435C13.4157 33.0723 12.8334 32.5401 12.1591 32.1224C11.4624 31.6884 10.6982 31.4018 9.91975 31.1459C9.40486 30.974 8.87976 30.8163 8.36487 30.6423C8.05635 30.5359 7.74783 30.4233 7.44543 30.2963C5.817 29.6433 4.65647 28.6545 4.07007 28.0751C3.77994 27.7865 3.6267 27.6002 3.6267 27.6002C3.6267 27.6002 3.81058 27.6289 4.09459 27.68C4.7055 27.7865 5.78023 27.9687 6.49739 28.0813C6.39523 28.0506 5.39815 27.7374 4.1661 26.5561C3.27731 25.7024 2.26388 24.4025 1.37305 22.4372C1.43434 22.4618 2.82372 23.0411 4.36429 23.4608C4.59313 23.5222 4.82605 23.5816 5.05898 23.6327C5.55752 23.7474 6.05402 23.8334 6.50965 23.8682C6.50965 23.8682 5.67602 23.6327 4.87918 22.949C4.72594 22.818 4.5727 22.6706 4.42967 22.5027C4.20901 22.2509 4.00673 21.9581 3.84532 21.6204C3.87597 21.6306 4.11502 21.7125 4.47258 21.8067C4.53183 21.823 4.59109 21.8374 4.65647 21.8537C5.45127 22.0462 6.66085 22.2447 7.49243 21.9295C7.52921 21.9172 7.5619 21.9131 7.59663 21.907C8.04818 21.7084 8.53037 20.218 8.53037 20.218C8.53037 20.218 6.80796 14.9179 7.80299 10.3383C7.87655 10.0087 7.95419 9.67911 8.03796 9.35156C9.10247 5.15073 10.9924 1.34706 11.9589 1.30816C12.4635 1.28769 13.4116 2.31333 14.3576 4.30729C14.4189 4.44036 14.4843 4.57752 14.5456 4.71878C14.8275 5.35545 15.1074 6.07811 15.3751 6.88265C15.6979 7.87145 16.0024 8.99126 16.2598 10.2339C16.4825 11.3128 16.6725 12.4838 16.8176 13.7469C16.8176 13.7469 18.1436 13.3743 19.6045 13.3743C19.7271 13.3743 19.8477 13.3784 19.9682 13.3825C20.0867 13.3763 20.2093 13.3743 20.3319 13.3743C21.7928 13.3743 23.1209 13.7469 23.1209 13.7469C23.2639 12.4838 23.4539 11.3128 23.6787 10.2339C23.9361 8.98921 24.2385 7.87145 24.5634 6.88265C24.829 6.07606 25.1089 5.3534 25.3929 4.71878C25.4542 4.57752 25.5196 4.44036 25.5809 4.30729C26.5248 2.31333 27.4749 1.28769 27.9796 1.30816C28.944 1.34706 30.8339 5.14664 31.8984 9.34747C31.9822 9.67502 32.0619 10.0067 32.1334 10.3363C33.1305 14.9158 31.406 20.216 31.406 20.216C31.406 20.216 31.8882 21.7063 32.3398 21.9049C32.3725 21.9111 32.4072 21.9152 32.444 21.9274C33.2735 22.2407 34.4831 22.0441 35.2799 21.8517C35.3433 21.8353 35.4046 21.821 35.4638 21.8046C35.8214 21.7104 36.0604 21.6285 36.0911 21.6183C35.9276 21.9561 35.7274 22.2488 35.5067 22.5006C35.3637 22.6665 35.2105 22.8139 35.0572 22.9449C34.2624 23.6286 33.4268 23.8661 33.4268 23.8661C33.8844 23.8313 34.3789 23.7453 34.8774 23.6307C35.1083 23.5795 35.3412 23.5222 35.5701 23.4587C37.1127 23.0391 38.498 22.4597 38.5634 22.4351C37.6725 24.4004 36.6591 25.7004 35.7703 26.5541C34.5362 27.7353 33.5412 28.0485 33.437 28.0792C34.1541 27.9666 35.2309 27.7824 35.8418 27.678L35.8377 27.68Z" fill="white"/>
<path d="M30.6562 19.2968C30.6562 19.2968 29.465 17.4236 26.7516 15.5934L24.7227 13.4705C24.7227 13.4705 25.4501 7.14468 27.859 2.69205C27.859 2.69205 29.8532 5.2715 31.0158 10.6413C32.1784 16.011 30.6562 19.2988 30.6562 19.2988V19.2968Z" fill="#FFBB40"/>
<path d="M9.71739 19.0573C9.71739 19.0573 10.7206 17.5014 13.3155 15.5934L15.3444 13.4705C15.3444 13.4705 14.617 7.14468 12.2081 2.69205C12.2081 2.69205 9.80729 5.54378 8.89398 11.1551C7.98067 16.7665 9.71944 19.0573 9.71944 19.0573H9.71739Z" fill="#FFBB40"/>
<path d="M22.3812 30.237C22.4118 29.76 22.5957 29.2912 22.8593 28.8776C23.129 28.4662 23.4743 28.1059 23.8564 27.8008C24.6246 27.1764 25.5318 26.8059 26.3756 26.4312C26.8047 26.2531 27.2215 26.0669 27.6199 25.8621C28.0265 25.6636 28.3923 25.4261 28.7437 25.1559C29.4261 24.6052 30.0146 23.8845 30.1801 22.9408C30.2577 23.4116 30.1657 23.9153 29.9737 24.3697C29.7735 24.8222 29.4792 25.2336 29.1298 25.5858C28.7866 25.944 28.3698 26.2286 27.955 26.4783C27.5321 26.7199 27.0969 26.9205 26.6657 27.113C25.7974 27.4815 24.9454 27.8008 24.1873 28.2717C23.4355 28.7466 22.7469 29.3587 22.3771 30.239L22.3812 30.237Z" fill="#460E75"/>
<path d="M24.1261 29.7764C24.2385 29.4161 24.5266 29.1172 24.8514 28.9083C25.1804 28.6995 25.5584 28.5685 25.9262 28.4887C26.674 28.3269 27.3605 28.2799 27.9837 27.9974C28.6191 27.7496 29.1973 27.3586 29.7061 26.8878C30.2169 26.4128 30.6357 25.8355 30.9831 25.1804C30.8911 25.9174 30.5642 26.6401 30.0718 27.2297C29.8328 27.5306 29.5426 27.7906 29.2382 28.026C28.9256 28.2553 28.5823 28.4416 28.2248 28.5931C27.8631 28.7323 27.479 28.8387 27.101 28.8858C26.723 28.9288 26.3614 28.9534 26.0079 28.98C25.6565 29.0148 25.3193 29.0639 24.9945 29.1868C24.6696 29.3035 24.3672 29.4877 24.1281 29.7764H24.1261Z" fill="#460E75"/>
<path d="M26.631 30.1612C27.0437 30.0855 27.4278 30.0015 27.8017 29.8889C28.1716 29.7723 28.5312 29.6371 28.8724 29.4652C29.2177 29.3014 29.5446 29.0987 29.8633 28.8776C30.18 28.6524 30.4824 28.3986 30.795 28.1202C30.6724 28.5235 30.4354 28.8899 30.1412 29.199C29.849 29.5123 29.4935 29.762 29.1114 29.9545C28.7253 30.1387 28.3084 30.2656 27.8835 30.3045C27.4605 30.3475 27.0274 30.3107 26.633 30.1612H26.631Z" fill="#460E75"/>
<path d="M28.7131 18.9344C28.6355 18.7973 28.4598 18.7072 28.3147 18.7707C27.8407 18.9529 28.141 19.4053 28.141 19.4053C28.141 19.4053 28.7111 19.9089 27.6629 21.647C28.3188 21.0881 28.7335 20.2549 28.7867 19.393C28.7969 19.2354 28.7928 19.0696 28.7131 18.9344Z" fill="#E70002"/>
<path d="M27.5015 20.1976C27.4341 20.0809 27.2829 20.001 27.1582 20.0563C26.7475 20.2139 27.007 20.6049 27.007 20.6049C27.007 20.6049 27.4994 21.041 26.5943 22.5416C27.1603 22.0585 27.5199 21.3378 27.5648 20.5947C27.573 20.4596 27.5689 20.3163 27.5015 20.1976Z" fill="#E70002"/>
<path d="M26.4493 21.3153C26.3982 21.2253 26.2817 21.1659 26.1877 21.2068C25.8751 21.3276 26.0733 21.6245 26.0733 21.6245C26.0733 21.6245 26.4472 21.9561 25.7587 23.1005C26.1898 22.732 26.4636 22.1854 26.4983 21.6183C26.5044 21.516 26.5024 21.4054 26.4493 21.3153Z" fill="#E70002"/>
<path d="M24.1098 25.8949C24.1323 25.7987 25.2989 25.5898 26.012 25.3728C26.7374 25.1517 27.6936 24.7034 28.3801 23.8682C29.2362 22.6624 29.0666 20.8383 29.0666 20.8383L28.3801 21.5814C28.282 22.0543 27.3932 23.428 26.2817 24.1056C24.4245 24.8078 24.1098 25.8949 24.1098 25.8949Z" fill="#E70002"/>
<path d="M23.6541 26.1938C24.3304 25.6492 25.5155 25.3442 26.2776 24.9429C27.4075 24.3472 28.378 23.6573 28.378 21.5794C28.3045 21.7841 28.0797 21.9397 27.9203 22.081C27.573 22.388 27.1439 22.5416 26.7557 22.7913C26.0896 23.2192 25.3623 23.512 24.7432 24.0094C24.1241 24.5069 23.6521 25.2254 23.6521 26.1958L23.6541 26.1938Z" fill="#1D1D1B"/>
<mask id="mask0_298_4610" style="mask-type:luminance" maskUnits="userSpaceOnUse" x="23" y="21" width="6" height="6">
<path d="M23.6541 26.1938C24.3304 25.6492 25.5155 25.3442 26.2776 24.9429C27.4075 24.3472 28.378 23.6573 28.378 21.5794C28.3045 21.7841 28.0797 21.9397 27.9203 22.081C27.573 22.388 27.1439 22.5416 26.7557 22.7913C26.0896 23.2192 25.3623 23.512 24.7432 24.0094C24.1241 24.5069 23.6521 25.2254 23.6521 26.1958L23.6541 26.1938Z" fill="white"/>
</mask>
<g mask="url(#mask0_298_4610)">
<path d="M25.0373 25.2029C26.1635 25.2029 27.0764 24.2882 27.0764 23.1599C27.0764 22.0315 26.1635 21.1168 25.0373 21.1168C23.9111 21.1168 22.9982 22.0315 22.9982 23.1599C22.9982 24.2882 23.9111 25.2029 25.0373 25.2029Z" fill="#FFBB40"/>
</g>
<path d="M20.1889 30.9146C19.3961 30.9146 16.1434 31.8522 19.3532 33.3077L20.1889 32.3026L21.0246 33.3077C24.2324 31.8542 20.9816 30.9146 20.1889 30.9146Z" fill="#E70002"/>
<path d="M20.1888 31.5635C19.1877 31.5635 18.3336 31.9116 18.3336 32.3333C18.3336 32.755 20.1888 33.8421 20.1888 33.8421C20.1888 33.8421 22.0441 32.753 22.0441 32.3333C22.0441 31.9136 21.19 31.5635 20.1888 31.5635Z" fill="#1D1D1B"/>
<path d="M17.9986 30.237C17.9679 29.76 17.784 29.2912 17.5205 28.8776C17.2508 28.4662 16.9055 28.1059 16.5234 27.8008C15.7551 27.1764 14.848 26.8059 14.0041 26.4312C13.575 26.2531 13.1582 26.0669 12.7598 25.8621C12.3532 25.6636 11.9875 25.4261 11.636 25.1559C10.9536 24.6052 10.3652 23.8845 10.1997 22.9408C10.122 23.4116 10.214 23.9153 10.406 24.3697C10.6063 24.8222 10.9005 25.2336 11.2499 25.5858C11.5931 25.944 12.01 26.2286 12.4247 26.4783C12.8477 26.7199 13.2829 26.9205 13.714 27.113C14.5823 27.4815 15.4344 27.8008 16.1924 28.2717C16.9443 28.7466 17.6328 29.3587 18.0027 30.239L17.9986 30.237Z" fill="#460E75"/>
<path d="M16.2536 29.7764C16.1413 29.4161 15.8532 29.1172 15.5283 28.9083C15.1994 28.6995 14.8214 28.5685 14.4536 28.4887C13.7058 28.3269 13.0193 28.2799 12.3961 27.9974C11.7606 27.7496 11.1824 27.3586 10.6737 26.8878C10.1629 26.4128 9.74401 25.8355 9.39667 25.1804C9.48861 25.9174 9.81552 26.6401 10.3079 27.2297C10.547 27.5306 10.8371 27.7906 11.1416 28.026C11.4542 28.2553 11.7974 28.4416 12.155 28.5931C12.5166 28.7323 12.9008 28.8387 13.2787 28.8858C13.6567 28.9288 14.0184 28.9534 14.3719 28.98C14.7233 29.0148 15.0604 29.0639 15.3853 29.1868C15.7102 29.3035 16.0125 29.4877 16.2516 29.7764H16.2536Z" fill="#460E75"/>
<path d="M13.7486 30.1612C13.3359 30.0855 12.9518 30.0015 12.5779 29.8889C12.2081 29.7723 11.8485 29.6371 11.5072 29.4652C11.1619 29.3014 10.835 29.0987 10.5163 28.8776C10.1996 28.6524 9.8972 28.3986 9.58459 28.1202C9.70719 28.5235 9.9442 28.8899 10.2384 29.199C10.5306 29.5123 10.8861 29.762 11.2682 29.9545C11.6544 30.1387 12.0712 30.2656 12.4962 30.3045C12.9191 30.3475 13.3523 30.3107 13.7466 30.1612H13.7486Z" fill="#460E75"/>
<path d="M11.6666 18.9345C11.7443 18.7993 11.92 18.7072 12.0651 18.7707C12.5391 18.9529 12.2387 19.4053 12.2387 19.4053C12.2387 19.4053 11.6687 19.9089 12.7168 21.647C12.061 21.0881 11.6462 20.2549 11.5931 19.393C11.5829 19.2354 11.587 19.0696 11.6666 18.9345Z" fill="#E70002"/>
<path d="M12.8761 20.1976C12.9436 20.0809 13.0948 20.001 13.2194 20.0563C13.6301 20.2139 13.3685 20.6049 13.3685 20.6049C13.3685 20.6049 12.8761 21.041 13.7813 22.5416C13.2153 22.0585 12.8557 21.3378 12.8108 20.5947C12.8026 20.4596 12.8067 20.3163 12.8741 20.1976H12.8761Z" fill="#E70002"/>
<path d="M13.9304 21.3153C13.9815 21.2253 14.098 21.1659 14.1919 21.2068C14.5046 21.3276 14.3064 21.6245 14.3064 21.6245C14.3064 21.6245 13.9325 21.9561 14.621 23.1005C14.1899 22.732 13.9161 22.1854 13.8814 21.6183C13.8752 21.516 13.8773 21.4054 13.9304 21.3153Z" fill="#E70002"/>
<path d="M18.2274 18.6417C18.2274 19.7288 19.106 20.609 20.1909 20.609C21.2759 20.609 22.1544 19.7288 22.1544 18.6417C22.1544 17.5546 21.2759 16.6743 20.1909 16.6743C19.106 16.6743 18.2274 17.5546 18.2274 18.6417Z" fill="#E70002"/>
<path d="M23.4008 18.0316C23.5009 19.0675 23.2414 19.6796 22.6081 20.5046C21.9747 21.3296 20.4198 21.9622 20.5935 22.951L20.5853 22.9776C20.6936 22.6173 21.0103 22.3553 21.3433 22.1833C21.6764 22.0114 22.0421 21.9049 22.3751 21.7268C23.0024 21.389 23.4846 20.7871 23.6746 20.0993C23.8667 19.4114 23.7645 18.6478 23.4029 18.0316H23.4008Z" fill="#E70002"/>
<path d="M16.979 18.0316C16.8789 19.0675 17.1384 19.6796 17.7717 20.5046C18.4051 21.3297 19.96 21.9622 19.7863 22.951L19.7945 22.9777C19.6862 22.6173 19.3695 22.3553 19.0365 22.1833C18.7034 22.0114 18.3377 21.9049 18.0047 21.7268C17.3774 21.389 16.8952 20.7872 16.7052 20.0993C16.5131 19.4115 16.6153 18.6479 16.9769 18.0316H16.979Z" fill="#E70002"/>
<path d="M16.2701 25.8949C16.2476 25.7987 15.0809 25.5898 14.3679 25.3728C13.6425 25.1517 12.6863 24.7034 11.9998 23.8682C11.1437 22.6624 11.3133 20.8383 11.3133 20.8383L11.9998 21.5814C12.0979 22.0543 12.9867 23.428 14.0982 24.1056C15.9554 24.8078 16.2701 25.8949 16.2701 25.8949Z" fill="#E70002"/>
<path d="M16.7256 26.1938C16.0493 25.6492 14.8642 25.3442 14.1021 24.9429C12.9722 24.3472 12.0017 23.6573 12.0017 21.5794C12.0753 21.7841 12.3 21.9397 12.4594 22.081C12.8067 22.388 13.2358 22.5416 13.624 22.7913C14.2901 23.2192 15.0175 23.512 15.6366 24.0094C16.2556 24.5069 16.7276 25.2254 16.7276 26.1958L16.7256 26.1938Z" fill="#1D1D1B"/>
<mask id="mask1_298_4610" style="mask-type:luminance" maskUnits="userSpaceOnUse" x="12" y="21" width="5" height="6">
<path d="M16.7256 26.1938C16.0493 25.6492 14.8642 25.3442 14.1021 24.9429C12.9722 24.3472 12.0017 23.6573 12.0017 21.5794C12.0753 21.7841 12.3 21.9397 12.4594 22.081C12.8067 22.388 13.2358 22.5416 13.624 22.7913C14.2901 23.2192 15.0175 23.512 15.6366 24.0094C16.2556 24.5069 16.7276 25.2254 16.7276 26.1958L16.7256 26.1938Z" fill="white"/>
</mask>
<g mask="url(#mask1_298_4610)">
<path d="M15.3424 25.2029C16.4686 25.2029 17.3815 24.2882 17.3815 23.1599C17.3815 22.0315 16.4686 21.1168 15.3424 21.1168C14.2162 21.1168 13.3033 22.0315 13.3033 23.1599C13.3033 24.2882 14.2162 25.2029 15.3424 25.2029Z" fill="#FFBB40"/>
</g>
<path d="M7.01635 9.88792C7.0756 9.62383 7.13689 9.37817 7.19819 9.1366C7.71308 7.0976 8.46497 5.00128 9.25773 3.39014C9.3272 3.24889 9.39463 3.11377 9.46205 2.98685C3.78196 6.51006 0 12.8113 0 19.999C0 20.3306 0.0081728 20.6602 0.0245184 20.9857L1.68768 21.6285L1.73059 21.647C1.99416 21.7534 2.51518 21.9581 3.15879 22.1792C3.12609 22.1199 3.09545 22.0564 3.06684 21.995L2.18009 20.1546L3.5613 20.6131L4.11705 20.7994C4.28867 20.8567 4.48891 20.9161 4.69118 20.9693C4.74839 20.9837 4.80356 21.0001 4.86077 21.0123C5.44308 21.1536 5.98453 21.2273 6.42586 21.2273C6.73438 21.2273 7 21.1904 7.18593 21.1188C7.30444 20.9509 7.47811 20.5804 7.61909 20.2037C7.26766 19.004 6.04378 14.3467 6.95505 10.1561C6.97548 10.064 6.99591 9.97595 7.01635 9.88792ZM1.37916 16.1114V15.6856H2.07589V15.0305C1.9063 15.0693 1.74285 15.0919 1.58757 15.098L1.40776 14.6804C1.94717 14.6538 2.42936 14.5514 2.85026 14.3754L3.04232 14.7705C2.92382 14.8155 2.74606 14.8728 2.50905 14.9404V15.6856H3.06888V16.1114H2.50905V16.2199C2.77671 16.5208 2.97285 16.7767 3.09953 16.9896L2.81144 17.3233C2.70724 17.1329 2.60508 16.9691 2.50905 16.8299V18.957H2.07589V17.0326C1.939 17.3561 1.78371 17.6529 1.61004 17.9231L1.31378 17.5485C1.60595 17.137 1.85114 16.658 2.04524 16.1134H1.37916V16.1114ZM4.42966 18.7174V18.9733H3.99241V16.4103H5.76795V18.9733H5.3164V18.7174H4.42761H4.42966ZM4.36223 16.1687C4.29276 15.8616 4.20082 15.5607 4.08435 15.2679L4.51547 15.1717C4.61967 15.4419 4.70753 15.7408 4.77291 16.0643L4.36223 16.1666V16.1687ZM4.12522 15.096C3.86369 15.1267 3.59807 15.1471 3.33246 15.1574L3.13222 14.7295C3.52452 14.7213 3.90047 14.6968 4.26211 14.6517C4.72183 14.5985 5.15499 14.5187 5.56772 14.4102L5.79043 14.795C5.24489 14.9363 4.68914 15.0366 4.12522 15.098V15.096ZM3.50613 16.2383C3.42644 15.9885 3.3059 15.706 3.14448 15.3887L3.54699 15.2577C3.6941 15.5115 3.80648 15.7654 3.88821 16.0254C3.89842 16.05 3.90455 16.0766 3.91273 16.1011L3.86778 16.1155L3.50613 16.2403V16.2383ZM3.63485 16.3755V18.9672H3.19965V16.3755H3.63485ZM5.37974 16.2383L4.97723 16.0581C5.14886 15.7326 5.28984 15.3969 5.39813 15.053L5.81086 15.2106C5.69644 15.575 5.55137 15.9189 5.37974 16.2383Z" fill="#E70002"/>
<path d="M2.51107 16.2198C2.77873 16.5208 2.97487 16.7767 3.10155 16.9896L2.81346 17.3233C2.70926 17.1329 2.6071 16.9691 2.51107 16.8299V18.9569H2.07791V17.0326C1.94101 17.356 1.78573 17.6529 1.61206 17.9231L1.3158 17.5485C1.60797 17.137 1.85316 16.6579 2.04726 16.1134H1.38118V15.6876H2.07791V15.0325C1.90832 15.0714 1.74487 15.0939 1.58958 15.1L1.40978 14.6824C1.94919 14.6558 2.43138 14.5534 2.85228 14.3774L3.04434 14.7725C2.92584 14.8175 2.74808 14.8748 2.51107 14.9424V15.6876H3.0709V16.1134H2.51107V16.2219V16.2198Z" fill="#E70002"/>
<path d="M3.63576 16.3775H3.19971V18.9692H3.63576V16.3775Z" fill="#E70002"/>
<path d="M3.88612 16.0274C3.89634 16.052 3.90246 16.0786 3.91064 16.1032L3.86569 16.1175L3.50404 16.2424C3.42436 15.9926 3.30381 15.7101 3.1424 15.3928L3.54491 15.2618C3.69202 15.5156 3.80439 15.7695 3.88612 16.0295V16.0274Z" fill="#E70002"/>
<path d="M4.08636 15.2679L4.51748 15.1717C4.62168 15.4419 4.70954 15.7408 4.77492 16.0643L4.36424 16.1666C4.29477 15.8595 4.20283 15.5586 4.08636 15.2659V15.2679Z" fill="#E70002"/>
<path d="M3.99438 16.4102H5.76992V18.9733H5.31838V18.7174H4.42959V18.9733H3.99438V16.4102Z" fill="#E70002"/>
<path d="M3.33244 15.1594L3.1322 14.7316C3.5245 14.7234 3.90045 14.6988 4.26209 14.6538C4.72181 14.6005 5.15497 14.5207 5.5677 14.4122L5.7904 14.7971C5.24487 14.9383 4.68912 15.0386 4.1252 15.1001C3.86367 15.1308 3.59805 15.1512 3.33244 15.1615V15.1594Z" fill="#E70002"/>
<path d="M5.39606 15.055L5.80878 15.2127C5.69436 15.5771 5.5493 15.921 5.37767 16.2403L4.97516 16.0602C5.14679 15.7347 5.28777 15.399 5.39606 15.055Z" fill="#E70002"/>
<path d="M30.4783 2.99707C30.5417 3.12195 30.6071 3.25092 30.6745 3.38808C31.4672 5.00127 32.2171 7.09759 32.734 9.13659C32.7974 9.37815 32.8587 9.63201 32.922 9.90428C32.9383 9.98412 32.9567 10.0701 32.9772 10.154C33.8884 14.3467 32.6686 19.004 32.3152 20.2037C32.4562 20.5783 32.6298 20.953 32.7463 21.1188H32.7504C32.9383 21.1904 33.2019 21.2273 33.5104 21.2273C33.9497 21.2273 34.4891 21.1515 35.0755 21.0123C35.1327 21 35.1859 20.9837 35.239 20.9714C35.4454 20.9161 35.6456 20.8588 35.809 20.8015L36.3627 20.6152L37.7644 20.1484L36.8674 22.0011C36.8388 22.0625 36.8082 22.1219 36.7755 22.1813C37.2475 22.0195 37.7276 21.8414 38.1935 21.651L38.2547 21.6265L39.8975 21.0062C39.9159 20.6725 39.924 20.3368 39.924 19.999C39.924 12.8195 36.1482 6.52233 30.4783 2.99707ZM36.0767 14.7704V15.2106H35.4923V15.5238H35.0122V15.2106H33.9273V14.7704H35.0122V14.3753H35.4923V14.7704H36.0767ZM34.7997 15.5607L35.2206 15.6855C35.145 15.8984 35.0306 16.1359 34.8773 16.4021V18.9242H34.4258V17.1083C34.3257 17.2455 34.2256 17.3601 34.1234 17.4584L33.8639 17.051C34.2051 16.6846 34.5157 16.1871 34.7977 15.5586L34.7997 15.5607ZM38.457 16.1851H38.0729V18.4308C38.0729 18.5455 38.0423 18.6417 37.981 18.7195C37.9217 18.7973 37.84 18.8505 37.7399 18.8771C37.6397 18.9058 37.3741 18.918 36.9451 18.918L36.7755 18.4718C36.8776 18.4759 37.1024 18.4779 37.4456 18.4779C37.5498 18.4779 37.605 18.4185 37.605 18.2957V16.1851H35.3452V15.7429H38.457V16.1851ZM35.4883 18.0992V16.5269H37.1473V18.0992H35.4883ZM38.4509 14.7704V15.2106H37.37V15.5238H36.8878V15.2106H36.2912V14.7704H36.8878V14.3753H37.37V14.7704H38.4509Z" fill="#E70002"/>
<path d="M34.7997 15.5607L35.2206 15.6855C35.145 15.8985 35.0306 16.1359 34.8774 16.4021V18.9242H34.4258V17.1083C34.3257 17.2455 34.2256 17.3601 34.1234 17.4584L33.864 17.051C34.2052 16.6846 34.5157 16.1871 34.7977 15.5586L34.7997 15.5607Z" fill="#E70002"/>
<path d="M35.0123 15.2127H33.9294V14.7705H35.0123V14.3754H35.4924V14.7705H36.0768V15.2127H35.4924V15.5259H35.0123V15.2127Z" fill="#E70002"/>
<path d="M37.1453 16.529H35.4863V18.1012H37.1453V16.529Z" fill="#E70002"/>
<path d="M36.8879 15.2127H36.2913V14.7705H36.8879V14.3754H37.3701V14.7705H38.451V15.2127H37.3701V15.5259H36.8879V15.2127Z" fill="#E70002"/>
<path d="M38.4571 15.7429V16.1851H38.073V18.4308C38.073 18.5455 38.0424 18.6417 37.9811 18.7195C37.9218 18.7973 37.8401 18.8505 37.74 18.8771C37.6398 18.9058 37.3742 18.918 36.9452 18.918L36.7756 18.4718C36.8777 18.4759 37.1025 18.4779 37.4457 18.4779C37.5499 18.4779 37.6051 18.4185 37.6051 18.2957V16.1851H35.3453V15.7429H38.4571Z" fill="#E70002"/>
<path d="M2.51107 16.2199V16.1114H3.0709V15.6856H2.51107V14.9404C2.74808 14.8728 2.92788 14.8155 3.04434 14.7705L2.85228 14.3754C2.43138 14.5514 1.94919 14.6558 1.40978 14.6804L1.58958 15.098C1.74487 15.0919 1.90832 15.0694 2.07791 15.0305V15.6856H1.38118V16.1114H2.04726C1.85316 16.658 1.60797 17.137 1.3158 17.5465L1.61206 17.9211C1.78573 17.6509 1.94101 17.354 2.07791 17.0306V18.9549H2.51107V16.8279C2.6071 16.9671 2.70721 17.1329 2.81346 17.3213L3.10155 16.9876C2.97692 16.7747 2.77873 16.5188 2.51107 16.2178V16.2199ZM5.56769 14.4102C5.15497 14.5187 4.72181 14.6006 4.26209 14.6517C3.90044 14.6968 3.52449 14.7234 3.1322 14.7295L3.33243 15.1574C3.59805 15.1451 3.86162 15.1246 4.12519 15.096C4.68912 15.0366 5.24487 14.9342 5.7904 14.793L5.56769 14.4081V14.4102ZM3.88818 16.0254C3.8085 15.7654 3.69408 15.5116 3.54697 15.2577L3.14446 15.3887C3.30587 15.706 3.42642 15.9885 3.50611 16.2383L3.86775 16.1134L3.9127 16.0991C3.90453 16.0745 3.8984 16.0479 3.88818 16.0234V16.0254ZM3.20167 16.3755V18.9672H3.63687V16.3755H3.20167ZM3.99647 16.4082V18.9713H4.43372V18.7154H5.32251V18.9713H5.77406V16.4082H3.99852H3.99647ZM5.32047 18.3039H4.43167V17.7532H5.32047V18.3039ZM5.32047 17.3438H4.43167V16.8136H5.32047V17.3438ZM4.51953 15.1697L4.08842 15.2659C4.20488 15.5586 4.29682 15.8596 4.36629 16.1667L4.77697 16.0643C4.71159 15.7388 4.62578 15.442 4.51953 15.1717V15.1697ZM5.40015 15.0509C5.29186 15.3969 5.15088 15.7327 4.97925 16.0561L5.38176 16.2363C5.55339 15.9149 5.69846 15.5709 5.81288 15.2086L5.40015 15.0509Z" fill="white"/>
<path d="M34.7998 15.5607C34.5178 16.1891 34.2072 16.6866 33.866 17.0531L34.1255 17.4605C34.2277 17.3622 34.3278 17.2475 34.4279 17.1104V18.9262H34.8795V16.4041C35.0327 16.138 35.1471 15.8984 35.2227 15.6876L34.8018 15.5627L34.7998 15.5607ZM35.4924 14.7704V14.3753H35.0123V14.7704H33.9273V15.2106H35.0123V15.5238H35.4924V15.2106H36.0768V14.7704H35.4924ZM35.3453 15.7429V16.1851H37.6051V18.2957C37.6051 18.4185 37.5499 18.4779 37.4457 18.4779C37.1004 18.4779 36.8777 18.4779 36.7755 18.4718L36.9451 18.918C37.3742 18.918 37.6398 18.9058 37.7399 18.8771C37.8421 18.8505 37.9218 18.7973 37.981 18.7195C38.0423 18.6417 38.073 18.5455 38.073 18.4308V16.1851H38.4571V15.7429H35.3453ZM35.4883 16.5269V18.0992H37.1474V16.5269H35.4883ZM36.702 17.6672H35.9256V16.9568H36.702V17.6672ZM37.3701 14.7684V14.3733H36.8879V14.7684H36.2913V15.2085H36.8879V15.5218H37.3701V15.2085H38.451V14.7684H37.3701Z" fill="white"/>
<path d="M153.318 38.829L151.133 37.0398L150.7 37.5106L150.635 38.7348H149.746L149.595 34.6916H150.86L150.751 36.6344L151.922 34.6057L153.181 34.8227L151.842 36.2639L153.389 38.829H153.318Z" fill="black"/>
<path d="M160.651 38.1555C160.428 38.3622 160.234 38.5281 160.064 38.6488C159.895 38.7696 159.743 38.829 159.609 38.829C159.502 38.829 159.406 38.786 159.322 38.7021C159.239 38.6181 159.159 38.481 159.088 38.2926C158.938 38.4237 158.754 38.5322 158.538 38.6222C158.321 38.7123 158.086 38.7717 157.837 38.8003C157.759 38.8106 157.686 38.8167 157.612 38.8229C157.541 38.827 157.469 38.831 157.402 38.831C156.721 38.831 156.382 38.5874 156.382 38.1002C156.382 38.0429 156.386 37.9815 156.397 37.92C156.407 37.8586 156.421 37.789 156.44 37.7174C156.482 37.5577 156.57 37.4144 156.703 37.2854C156.836 37.1564 156.995 37.0418 157.183 36.9374C157.371 36.833 157.563 36.7368 157.761 36.6467C157.96 36.5566 158.144 36.4727 158.315 36.3928C158.487 36.313 158.626 36.2352 158.734 36.1574C158.842 36.0796 158.898 36.0039 158.898 35.9261C158.898 35.7132 158.871 35.5699 158.818 35.4941C158.765 35.4184 158.663 35.3815 158.513 35.3815C158.407 35.3815 158.244 35.3918 158.021 35.4102C157.798 35.4286 157.555 35.4593 157.292 35.4962C157.026 35.5351 156.773 35.5863 156.531 35.6477L156.495 35.576C156.625 35.4511 156.793 35.3304 156.997 35.2137C157.202 35.097 157.422 34.9946 157.655 34.9025C157.888 34.8104 158.121 34.7387 158.354 34.6855C158.585 34.6323 158.795 34.6057 158.983 34.6057C159.282 34.6057 159.504 34.6364 159.651 34.6957C159.799 34.7571 159.897 34.8738 159.948 35.0499C159.999 35.2259 160.023 35.49 160.023 35.8442V37.6764C160.023 37.8504 160.04 37.9753 160.07 38.049C160.101 38.1248 160.175 38.1616 160.291 38.1616C160.33 38.1616 160.377 38.1575 160.432 38.1473C160.487 38.1371 160.548 38.1248 160.616 38.1104L160.644 38.1534L160.651 38.1555ZM158.959 36.5546C158.853 36.6467 158.712 36.745 158.536 36.8473C158.36 36.9517 158.191 37.0623 158.025 37.181C157.862 37.2998 157.741 37.4308 157.663 37.5761C157.596 37.7112 157.561 37.83 157.561 37.9303C157.561 38.0306 157.592 38.1063 157.651 38.1698C157.71 38.2333 157.796 38.264 157.909 38.264C157.933 38.264 157.958 38.264 157.984 38.2599C158.011 38.2578 158.035 38.2537 158.06 38.2496C158.156 38.2251 158.266 38.1923 158.393 38.1473C158.517 38.1043 158.638 38.0531 158.754 37.9958C158.871 37.9385 158.953 37.8791 159 37.8218L158.957 36.5546H158.959Z" fill="black"/>
<path d="M167.035 38.7348L166.905 35.9015L165.777 38.3582H165.74L164.678 35.9752L163.997 38.8229H163.926L163.572 34.6998H164.794L165.965 36.6344L166.819 34.6998H168.006L167.818 38.7348H167.038H167.035Z" fill="black"/>
<path d="M174.491 38.829L173.833 36.3212L171.584 38.829H171.461L171.077 34.6998H172.387L172.097 37.4901L173.811 34.6998H174.998L174.608 38.829H174.491Z" fill="black"/>
</g>
<defs>
<clipPath id="clip0_298_4610">
<rect width="175" height="40" fill="white"/>
</clipPath>
</defs>
</svg>
