<svg width="88" height="25" viewBox="0 0 88 25" fill="none" xmlns="http://www.w3.org/2000/svg">
<path d="M81.3432 0.357422H75.9029C74.2582 0.357422 72.993 0.833612 72.2339 2.38123L61.8594 24.6431H69.1974C69.1974 24.6431 70.4626 21.6669 70.7157 20.9527C71.4748 20.9527 78.6863 20.9527 79.6984 20.9527C79.9515 21.786 80.5841 24.5241 80.5841 24.5241H87.163L81.3432 0.357422ZM72.7399 15.9527C73.3725 14.5241 75.5233 9.16695 75.5233 9.16695C75.5233 9.28599 76.1559 7.73837 76.409 6.90504L76.915 9.0479C76.915 9.0479 78.3067 14.8812 78.5598 16.0717H72.7399V15.9527Z" fill="#3362AB"/>
<path d="M62.3664 16.6667C62.3664 21.6667 57.5587 25 50.0941 25C46.9312 25 43.8947 24.4048 42.25 23.6905L43.2621 18.2143L44.1478 18.5714C46.4251 19.5238 47.9433 19.881 50.7267 19.881C52.751 19.881 54.9018 19.1667 54.9018 17.5C54.9018 16.4286 54.0162 15.7143 51.2328 14.5238C48.5759 13.3333 45.0334 11.4286 45.0334 7.97619C45.0334 3.21429 49.9676 0 56.9261 0C59.583 0 61.8603 0.47619 63.252 1.07143L62.2399 6.30952L61.7338 5.83333C60.4686 5.35714 58.8239 4.88095 56.42 4.88095C53.7632 5 52.498 6.07143 52.498 7.02381C52.498 8.09524 54.0162 8.92857 56.42 10C60.4686 11.7857 62.3664 13.8095 62.3664 16.6667Z" fill="#3362AB"/>
<path d="M0.625 0.597284L0.751518 0.121094H11.6321C13.1503 0.121094 14.289 0.597284 14.6685 2.1449L17.0724 12.8592C14.6685 7.1449 9.10172 2.50205 0.625 0.597284Z" fill="#3362AB"/>
<path d="M32.3835 0.355376L21.3764 24.522H13.9118L7.58594 4.28395C12.1406 7.02204 15.9361 11.3078 17.3278 14.2839L18.0869 16.7839L24.9189 0.236328H32.3835V0.355376Z" fill="#3362AB"/>
<path d="M35.2875 0.236328H42.246L37.8179 24.522H30.8594L35.2875 0.236328Z" fill="#3362AB"/>
</svg>
