<svg id="sprite" xmlns="http://www.w3.org/2000/svg"><symbol id="sprite:basket" viewBox="0 0 24 24">
<path d="M6.80032 19C6.42137 19 6.08453 18.8842 5.78979 18.6526C5.49506 18.4211 5.29155 18.1228 5.17927 17.7579L3.0319 9.96842C2.96172 9.70176 3.00734 9.45614 3.16874 9.23158C3.33014 9.00702 3.5512 8.89474 3.8319 8.89474H7.8319L11.5372 3.37895C11.6073 3.26667 11.7056 3.17544 11.8319 3.10526C11.9582 3.03509 12.0915 3 12.2319 3C12.3722 3 12.5056 3.03509 12.6319 3.10526C12.7582 3.17544 12.8565 3.26667 12.9266 3.37895L16.6319 8.89474H20.674C20.9547 8.89474 21.1758 9.00702 21.3372 9.23158C21.4986 9.45614 21.5442 9.70176 21.474 9.96842L19.3266 17.7579C19.2144 18.1228 19.0108 18.4211 18.7161 18.6526C18.4214 18.8842 18.0845 19 17.7056 19H6.80032ZM6.77927 17.3158H17.7266L19.5793 10.5789H4.92663L6.77927 17.3158ZM9.874 8.89474H14.6108L12.2319 5.35789L9.874 8.89474Z"></path>
</symbol><symbol id="sprite:check" viewBox="0 0 17 12">
<path d="M6.75672 11.2929C6.36619 11.6834 5.73303 11.6834 5.3425 11.2929L1.05672 7.00711C0.666192 6.61659 0.671585 5.97803 1.06211 5.58751C1.45263 5.19698 2.09119 5.19159 2.48172 5.58211L5.3425 8.4429C5.73303 8.83342 6.36619 8.83342 6.75672 8.4429L14.5175 0.682114C14.908 0.291589 15.5466 0.296982 15.9371 0.687506C16.3276 1.07803 16.333 1.71659 15.9425 2.10711L6.75672 11.2929Z"></path>
</symbol><symbol id="sprite:close" viewBox="0 0 25 24">
<path d="M7.12124 18.3C6.73464 18.6866 6.10784 18.6866 5.72124 18.3C5.33464 17.9134 5.33464 17.2866 5.72124 16.9L9.91413 12.7071C10.3047 12.3166 10.3047 11.6834 9.91413 11.2929L5.72124 7.1C5.33464 6.7134 5.33464 6.0866 5.72124 5.7C6.10784 5.3134 6.73464 5.3134 7.12124 5.7L11.3141 9.89289C11.7047 10.2834 12.3378 10.2834 12.7283 9.89289L16.9212 5.7C17.3078 5.3134 17.9346 5.3134 18.3212 5.7C18.7078 6.0866 18.7078 6.7134 18.3212 7.1L14.1283 11.2929C13.7378 11.6834 13.7378 12.3166 14.1283 12.7071L18.3212 16.9C18.7078 17.2866 18.7078 17.9134 18.3212 18.3C17.9346 18.6866 17.3078 18.6866 16.9212 18.3L12.7283 14.1071C12.3378 13.7166 11.7047 13.7166 11.3141 14.1071L7.12124 18.3Z"></path>
</symbol><symbol id="sprite:eco" viewBox="0 0 25 24">
<path d="M10.7375 9.86937C9.14034 4.67847 1.02124 5.87637 1.02124 5.87637C1.02124 5.87637 1.28744 16.2582 8.87414 14.661C8.34174 10.8011 6.34524 9.73627 6.34524 9.73627C10.072 9.73627 10.3382 14.2617 10.3382 14.2617V20.3843H13.0002V14.7941C13.0002 14.7941 13.0002 9.60317 16.9932 8.27217C16.9932 8.27217 14.3312 12.2652 14.3312 14.9272C23.6482 15.8589 23.6482 3.08127 23.6482 3.08127C23.6482 3.08127 11.8023 1.75027 10.7375 9.86937Z"></path>
</symbol><symbol id="sprite:geo-1" viewBox="0 0 25 24">
<path d="M20.4392 17.3886C20.232 17.1213 19.9346 16.8684 19.5553 16.6369C18.8621 16.2137 17.8729 15.8511 16.6948 15.5882C16.4425 15.5319 16.1924 15.6908 16.1361 15.943C16.0798 16.1953 16.2387 16.4454 16.4909 16.5017C17.57 16.7425 18.461 17.0655 19.0676 17.4358C19.5843 17.7512 19.8689 18.0866 19.8689 18.3801C19.8689 18.6646 19.6058 18.9316 19.3852 19.1055C19.0089 19.4021 18.4336 19.6843 17.7215 19.9217C16.1769 20.4365 14.114 20.7201 11.9129 20.7201C9.71172 20.7201 7.64882 20.4366 6.1042 19.9217C5.39216 19.6843 4.81688 19.4021 4.44055 19.1055C4.2199 18.9316 3.95687 18.6646 3.95687 18.3801C3.95687 18.0866 4.24144 17.7512 4.75814 17.4358C5.36472 17.0655 6.25574 16.7425 7.33484 16.5017C7.58711 16.4454 7.74598 16.1953 7.68969 15.943C7.6334 15.6908 7.38326 15.5319 7.13101 15.5882C5.95283 15.8511 4.96366 16.2137 4.27043 16.6369C3.89117 16.8684 3.5938 17.1213 3.38656 17.3886C3.14391 17.7015 3.02087 18.0351 3.02087 18.3801C3.02087 18.6583 3.10172 18.9311 3.26118 19.1909C3.40082 19.4183 3.60269 19.637 3.8612 19.8407C4.32807 20.2086 4.98314 20.5346 5.80822 20.8096C7.44575 21.3555 9.61377 21.6561 11.9129 21.6561C14.212 21.6561 16.38 21.3555 18.0175 20.8097C18.8426 20.5346 19.4977 20.2086 19.9646 19.8407C20.2231 19.637 20.4249 19.4183 20.5646 19.1909C20.724 18.9311 20.8049 18.6583 20.8049 18.3801C20.8049 18.0351 20.6818 17.7015 20.4392 17.3886Z"></path>
<path d="M8.72251 15.257C10.1334 17.2558 11.5234 18.6526 11.5819 18.7111C11.6254 18.7545 11.677 18.789 11.7338 18.8125C11.7905 18.836 11.8514 18.8481 11.9129 18.8481C11.9743 18.8481 12.0352 18.836 12.092 18.8125C12.1487 18.789 12.2003 18.7545 12.2438 18.711C12.3023 18.6526 13.6923 17.2558 15.1032 15.257C15.936 14.0772 16.6008 12.9334 17.079 11.8573C17.6881 10.487 17.9969 9.2175 17.9969 8.08412C17.9969 7.26299 17.8359 6.46619 17.5186 5.71581C17.2121 4.99128 16.7735 4.34068 16.2149 3.78209C15.6563 3.22349 15.0057 2.78488 14.2812 2.47842C13.5308 2.16104 12.734 2.00012 11.9129 2.00012C11.0917 2.00012 10.2949 2.16105 9.54455 2.47842C8.82001 2.78488 8.16942 3.2235 7.61082 3.78209C7.05222 4.34068 6.61362 4.99128 6.30716 5.71581C5.98978 6.46617 5.82886 7.26299 5.82886 8.08412C5.82886 9.21751 6.13766 10.487 6.74669 11.8573C7.22493 12.9334 7.8897 14.0772 8.72251 15.257ZM11.9129 2.93612C14.7515 2.93612 17.0609 5.2455 17.0609 8.08412C17.0609 9.89745 16.1224 12.187 14.347 14.7052C13.3821 16.0738 12.4066 17.1715 11.9128 17.7024C11.4208 17.1737 10.4509 16.0824 9.4872 14.7172C7.70622 12.1942 6.76486 9.9005 6.76486 8.08412C6.76486 5.2455 9.07424 2.93612 11.9129 2.93612Z"></path>
<path d="M10.6375 11.1025C11.0417 11.2734 11.4708 11.3601 11.9128 11.3601C12.3549 11.3601 12.784 11.2734 13.1881 11.1025C13.5783 10.9374 13.9286 10.7013 14.2293 10.4006C14.53 10.0999 14.7662 9.74959 14.9312 9.35942C15.1021 8.95525 15.1888 8.52617 15.1888 8.08412C15.1888 7.64207 15.1021 7.21299 14.9312 6.80881C14.7662 6.41865 14.53 6.06835 14.2293 5.76764C13.9286 5.46692 13.5783 5.23078 13.1881 5.06576C12.784 4.89479 12.3549 4.80811 11.9128 4.80811C11.4708 4.80811 11.0417 4.89479 10.6375 5.06574C10.2474 5.23076 9.89707 5.46691 9.59636 5.76762C9.29565 6.06833 9.0595 6.41863 8.89447 6.80879C8.72352 7.21298 8.63684 7.64205 8.63684 8.0841C8.63684 8.52615 8.72352 8.95523 8.89447 9.35941C9.0595 9.74956 9.29565 10.0999 9.59636 10.4006C9.89707 10.7013 10.2474 10.9374 10.6375 11.1025ZM11.9128 5.74411C13.2031 5.74411 14.2528 6.79383 14.2528 8.08411C14.2528 9.37438 13.2031 10.4241 11.9128 10.4241C10.6226 10.4241 9.57284 9.37438 9.57284 8.08411C9.57284 6.79382 10.6226 5.74411 11.9128 5.74411Z"></path>
</symbol><symbol id="sprite:geo-2" viewBox="0 0 41 40">
<path d="M34.0518 28.9807C33.7064 28.5353 33.2108 28.1138 32.5787 27.7279C31.4233 27.0226 29.7747 26.4182 27.8111 25.9801C27.3906 25.8863 26.9738 26.1511 26.8799 26.5715C26.7861 26.992 27.0509 27.4088 27.4714 27.5026C29.2699 27.9039 30.7549 28.4423 31.7658 29.0594C32.627 29.5851 33.1012 30.1441 33.1012 30.6333C33.1012 31.1075 32.6629 31.5525 32.2951 31.8423C31.6679 32.3366 30.7091 32.807 29.5224 33.2026C26.948 34.0607 23.5098 34.5333 19.8413 34.5333C16.1727 34.5333 12.7345 34.0607 10.1601 33.2026C8.97338 32.807 8.01459 32.3366 7.38736 31.8423C7.01961 31.5525 6.58124 31.1075 6.58124 30.6333C6.58124 30.1441 7.05551 29.5851 7.91668 29.0594C8.92765 28.4422 10.4127 27.9039 12.2112 27.5026C12.6316 27.4088 12.8964 26.9919 12.8026 26.5715C12.7088 26.151 12.2919 25.8862 11.8715 25.9801C9.90784 26.4182 8.25921 27.0226 7.10384 27.7279C6.47174 28.1138 5.97612 28.5353 5.63072 28.9807C5.2263 29.5023 5.02124 30.0583 5.02124 30.6333C5.02124 31.097 5.15598 31.5516 5.42175 31.9845C5.65448 32.3636 5.99093 32.728 6.42178 33.0676C7.1999 33.6808 8.29169 34.2241 9.66681 34.6825C12.396 35.5923 16.0094 36.0933 19.8412 36.0933C23.6731 36.0933 27.2864 35.5923 30.0157 34.6825C31.3908 34.2242 32.4826 33.6808 33.2607 33.0676C33.6916 32.728 34.028 32.3636 34.2607 31.9846C34.5265 31.5517 34.6613 31.097 34.6613 30.6333C34.6612 30.0583 34.4562 29.5023 34.0518 28.9807Z"></path>
<path d="M14.5233 25.4281C16.8748 28.7594 19.1915 31.0874 19.289 31.1849C19.3614 31.2573 19.4474 31.3148 19.5421 31.354C19.6367 31.3932 19.7381 31.4133 19.8406 31.4133C19.943 31.4133 20.0444 31.3932 20.1391 31.3539C20.2337 31.3147 20.3197 31.2573 20.3921 31.1849C20.4896 31.0874 22.8063 28.7594 25.1578 25.4281C26.5458 23.4617 27.6538 21.5554 28.4509 19.762C29.4659 17.4781 29.9806 15.3623 29.9806 13.4733C29.9806 12.1048 29.7124 10.7768 29.1834 9.52613C28.6727 8.31857 27.9416 7.23424 27.0106 6.30325C26.0796 5.37226 24.9953 4.64124 23.7878 4.13048C22.5371 3.60151 21.2091 3.33331 19.8406 3.33331C18.472 3.33331 17.144 3.60152 15.8934 4.13048C14.6858 4.64124 13.6015 5.37227 12.6705 6.30325C11.7395 7.23424 11.0085 8.31857 10.4977 9.52613C9.96876 10.7767 9.70056 12.1048 9.70056 13.4733C9.70056 15.3623 10.2152 17.4781 11.2303 19.762C12.0274 21.5554 13.1353 23.4618 14.5233 25.4281ZM19.8406 4.89331C24.5716 4.89331 28.4206 8.74228 28.4206 13.4733C28.4206 16.4955 26.8565 20.3114 23.8975 24.5084C22.2893 26.7894 20.6635 28.619 19.8404 29.5037C19.0205 28.6227 17.4039 26.8039 15.7978 24.5285C12.8295 20.3234 11.2606 16.5006 11.2606 13.4733C11.2606 8.74228 15.1095 4.89331 19.8406 4.89331Z"></path>
<path d="M17.7157 18.5039C18.3893 18.7888 19.1045 18.9333 19.8412 18.9333C20.578 18.9333 21.2931 18.7888 21.9667 18.5039C22.617 18.2289 23.2008 17.8353 23.702 17.3341C24.2032 16.8329 24.5968 16.2491 24.8718 15.5988C25.1567 14.9252 25.3012 14.2101 25.3012 13.4733C25.3012 12.7366 25.1567 12.0214 24.8718 11.3478C24.5968 10.6975 24.2032 10.1137 23.702 9.61253C23.2008 9.11134 22.617 8.71777 21.9667 8.44273C21.2931 8.15779 20.578 8.01331 19.8412 8.01331C19.1045 8.01331 18.3893 8.15778 17.7157 8.4427C17.0654 8.71774 16.4816 9.11132 15.9804 9.6125C15.4792 10.1137 15.0857 10.6975 14.8106 11.3478C14.5257 12.0214 14.3812 12.7365 14.3812 13.4733C14.3812 14.21 14.5257 14.9252 14.8106 15.5988C15.0857 16.2491 15.4792 16.8329 15.9804 17.3341C16.4816 17.8353 17.0654 18.2289 17.7157 18.5039ZM19.8412 9.57331C21.9917 9.57331 23.7412 11.3228 23.7412 13.4733C23.7412 15.6238 21.9917 17.3733 19.8412 17.3733C17.6908 17.3733 15.9412 15.6238 15.9412 13.4733C15.9412 11.3228 17.6908 9.57331 19.8412 9.57331Z"></path>
<path d="M19.8412 9.57331C21.9917 9.57331 23.7412 11.3228 23.7412 13.4733C23.7412 15.6238 21.9917 17.3733 19.8412 17.3733C17.6908 17.3733 15.9412 15.6238 15.9412 13.4733C15.9412 11.3228 17.6908 9.57331 19.8412 9.57331Z"></path>
</symbol><symbol id="sprite:person" viewBox="0 0 25 24">
<path d="M12.0212 12C10.9212 12 9.97957 11.6083 9.19624 10.825C8.41291 10.0417 8.02124 9.1 8.02124 8C8.02124 6.9 8.41291 5.95833 9.19624 5.175C9.97957 4.39167 10.9212 4 12.0212 4C13.1212 4 14.0629 4.39167 14.8462 5.175C15.6296 5.95833 16.0212 6.9 16.0212 8C16.0212 9.1 15.6296 10.0417 14.8462 10.825C14.0629 11.6083 13.1212 12 12.0212 12ZM4.02124 20V17.2C4.02124 16.6333 4.16707 16.1125 4.45874 15.6375C4.75041 15.1625 5.13791 14.8 5.62124 14.55C6.65457 14.0333 7.70457 13.6458 8.77124 13.3875C9.83791 13.1292 10.9212 13 12.0212 13C13.1212 13 14.2046 13.1292 15.2712 13.3875C16.3379 13.6458 17.3879 14.0333 18.4212 14.55C18.9046 14.8 19.2921 15.1625 19.5837 15.6375C19.8754 16.1125 20.0212 16.6333 20.0212 17.2V20H4.02124ZM6.02124 18H18.0212V17.2C18.0212 17.0167 17.9754 16.85 17.8837 16.7C17.7921 16.55 17.6712 16.4333 17.5212 16.35C16.6212 15.9 15.7129 15.5625 14.7962 15.3375C13.8796 15.1125 12.9546 15 12.0212 15C11.0879 15 10.1629 15.1125 9.24624 15.3375C8.32957 15.5625 7.42124 15.9 6.52124 16.35C6.37124 16.4333 6.25041 16.55 6.15874 16.7C6.06707 16.85 6.02124 17.0167 6.02124 17.2V18ZM12.0212 10C12.5712 10 13.0421 9.80417 13.4337 9.4125C13.8254 9.02083 14.0212 8.55 14.0212 8C14.0212 7.45 13.8254 6.97917 13.4337 6.5875C13.0421 6.19583 12.5712 6 12.0212 6C11.4712 6 11.0004 6.19583 10.6087 6.5875C10.2171 6.97917 10.0212 7.45 10.0212 8C10.0212 8.55 10.2171 9.02083 10.6087 9.4125C11.0004 9.80417 11.4712 10 12.0212 10Z"></path>
</symbol><symbol id="sprite:spicy" viewBox="0 0 25 24">
<path d="M8.98877 24C8.98877 24 -1.00558 18.608 7.35823 9.19056C7.35823 9.19056 8.91714 10.0091 8.68151 11.1924C8.68151 11.1924 15.6278 4.13975 12.0368 0C12.0368 0 19.5976 1.13793 16.7626 14.2396C16.7626 14.2396 18.6532 13.7387 18.6532 12.51C18.6532 12.51 22.8587 16.7405 16.5269 23.6116C16.5269 23.6116 17.2357 21.0635 15.771 19.3339C15.771 19.3339 15.5825 22.6098 13.7861 23.02C13.7861 23.02 10.6664 18.6062 13.8333 13.2831C13.8333 13.2831 6.27246 17.1506 8.99065 23.9982L8.98877 24Z"></path>
</symbol><symbol id="sprite:spinner" viewBox="0 0 600 600">
<path fill-rule="evenodd" clip-rule="evenodd" d="M293.75 150V0H306.25V150H293.75Z"></path>
<path fill-rule="evenodd" clip-rule="evenodd" d="M306.25 450V600H293.75V450H306.25Z"></path>
<path fill-rule="evenodd" clip-rule="evenodd" d="M450 293.75H600V306.25H450V293.75Z"></path>
<path fill-rule="evenodd" clip-rule="evenodd" d="M150 306.25H0V293.75H150V306.25Z"></path>
<path fill-rule="evenodd" clip-rule="evenodd" d="M401.706 189.456L507.706 83.4556L516.544 92.2944L410.544 198.294L401.706 189.456Z"></path>
<path fill-rule="evenodd" clip-rule="evenodd" d="M198.294 410.544L92.2944 516.544L83.4556 507.706L189.456 401.706L198.294 410.544Z"></path>
<path fill-rule="evenodd" clip-rule="evenodd" d="M410.544 401.706L516.544 507.706L507.706 516.544L401.706 410.544L410.544 401.706Z"></path>
<path fill-rule="evenodd" clip-rule="evenodd" d="M189.456 198.294L83.4556 92.2944L92.2944 83.4556L198.294 189.456L189.456 198.294Z"></path>
</symbol><symbol id="sprite:star" viewBox="0 0 24 24">
<path d="M7.84834 19.7794C7.09178 20.2358 6.15841 19.5586 6.35754 18.6978L7.31432 14.5616C7.39779 14.2007 7.27497 13.8233 6.99511 13.5806L3.78498 10.7975C3.11745 10.2188 3.4734 9.1221 4.35356 9.0457L8.59988 8.67709C8.96906 8.64505 9.29025 8.41147 9.43451 8.07014L11.0789 4.17942C11.423 3.36515 12.577 3.36515 12.9211 4.17941L14.5655 8.07014C14.7098 8.41147 15.0309 8.64505 15.4001 8.67709L19.6464 9.0457C20.5266 9.1221 20.8826 10.2188 20.215 10.7975L17.0049 13.5806C16.725 13.8233 16.6022 14.2007 16.6857 14.5616L17.6425 18.6978C17.8416 19.5586 16.9082 20.2358 16.1517 19.7794L12.5165 17.5866C12.1988 17.3949 11.8012 17.3949 11.4835 17.5866L7.84834 19.7794Z"></path>
</symbol><symbol id="sprite:sticks" viewBox="0 0 25 45">
<path fill-rule="evenodd" clip-rule="evenodd" d="M24.0212 4.58172L20.0116 4.11658L19.7531 7.13328L23.598 7.46967L24.0212 4.58172ZM23.4528 8.46078L19.6677 8.12962L16.632 43.5471C16.5936 43.9951 16.9182 44.3926 17.365 44.4444C17.8117 44.4963 18.2187 44.1837 18.2839 43.7387L23.4528 8.46078Z"></path>
<path fill-rule="evenodd" clip-rule="evenodd" d="M4.87891 0L1 1.11658L1.9478 4.07266L5.66543 3.07652L4.87891 0ZM5.91313 4.04543L2.25348 5.02603L13.083 38.8019C13.2203 39.2302 13.6731 39.4718 14.1053 39.3474C14.5374 39.223 14.7925 38.7776 14.6811 38.3419L5.91313 4.04543Z"></path>
</symbol><symbol id="sprite:tail-arrow" viewBox="0 0 27 24">
<path d="M1.02124 11C0.468955 11 0.0212402 11.4477 0.0212402 12C0.0212402 12.5523 0.468955 13 1.02124 13V11ZM25.7283 12.7071C26.1189 12.3166 26.1189 11.6834 25.7283 11.2929L19.3644 4.92893C18.9739 4.53841 18.3407 4.53841 17.9502 4.92893C17.5596 5.31946 17.5596 5.95262 17.9502 6.34315L23.607 12L17.9502 17.6569C17.5596 18.0474 17.5596 18.6805 17.9502 19.0711C18.3407 19.4616 18.9739 19.4616 19.3644 19.0711L25.7283 12.7071ZM1.02124 13H25.0212V11H1.02124V13Z"></path>
</symbol><symbol id="sprite:tailless-arrow" viewBox="0 0 25 24">
<path d="M12.6808 12.7071C13.0713 12.3166 13.0713 11.6834 12.6808 11.2929L8.72835 7.34044C8.33782 6.94992 8.33782 6.31675 8.72835 5.92623L8.94747 5.70711C9.33799 5.31658 9.97116 5.31658 10.3617 5.70711L15.9475 11.2929C16.338 11.6834 16.338 12.3166 15.9475 12.7071L10.3617 18.2929C9.97116 18.6834 9.33799 18.6834 8.94747 18.2929L8.72835 18.0738C8.33782 17.6832 8.33782 17.0501 8.72835 16.6596L12.6808 12.7071Z"></path>
</symbol><symbol id="sprite:tg" viewBox="0 0 19 18">
<path d="M19 1.10223L15.9946 16.7923C15.9946 16.7923 15.5741 17.8801 14.4189 17.3584L7.48458 11.8526L7.45242 11.8364C8.38909 10.9654 15.6524 4.20266 15.9698 3.89612C16.4613 3.42136 16.1562 3.13873 15.5856 3.49736L4.85679 10.553L0.717638 9.11077C0.717638 9.11077 0.0662573 8.87083 0.00359284 8.34911C-0.0598962 7.82653 0.739076 7.5439 0.739076 7.5439L17.6131 0.688948C17.6131 0.688948 19 0.05793 19 1.10223Z"></path>
</symbol><symbol id="sprite:vk" viewBox="0 0 22 15">
<path d="M11.9825 14.5C4.46596 14.5 0.178638 9.24474 0 0.5H3.76515C3.88882 6.91842 6.66459 9.63714 8.86321 10.1977V0.5H12.4085V6.03553C14.5796 5.7973 16.8607 3.27477 17.6302 0.5H21.1755C20.8855 1.93908 20.3075 3.30165 19.4776 4.5025C18.6477 5.70335 17.5837 6.71663 16.3523 7.47898C17.7269 8.17555 18.941 9.1615 19.9145 10.3717C20.888 11.582 21.5988 12.989 22 14.5H18.0974C17.7373 13.1876 17.0054 12.0128 15.9934 11.1228C14.9814 10.2328 13.7343 9.66727 12.4085 9.497V14.5H11.9825Z"></path>
</symbol><symbol id="sprite:wa" viewBox="0 0 21 22">
<path d="M17.9268 3.5625C15.9512 1.59375 13.3171 0.5 10.5366 0.5C4.7561 0.5 0.0731696 5.16667 0.0731696 10.9271C0.0731696 12.75 0.585366 14.5729 1.46341 16.1042L0 21.5L5.56098 20.0417C7.09756 20.8438 8.78049 21.2812 10.5366 21.2812C16.3171 21.2812 21 16.6146 21 10.8542C20.9268 8.15625 19.9024 5.53125 17.9268 3.5625ZM15.5854 14.6458C15.3659 15.2292 14.3415 15.8125 13.8293 15.8854C13.3902 15.9583 12.8049 15.9583 12.2195 15.8125C11.8537 15.6667 11.3415 15.5208 10.7561 15.2292C8.12195 14.1354 6.43903 11.5104 6.29268 11.2917C6.14634 11.1458 5.19512 9.90625 5.19512 8.59375C5.19512 7.28125 5.85366 6.69792 6.07317 6.40625C6.29268 6.11458 6.58536 6.11458 6.80488 6.11458C6.95122 6.11458 7.17073 6.11458 7.31707 6.11458C7.46341 6.11458 7.68293 6.04167 7.90244 6.55208C8.12195 7.0625 8.63414 8.375 8.70731 8.44792C8.78049 8.59375 8.78049 8.73958 8.70731 8.88542C8.63414 9.03125 8.56097 9.17708 8.41463 9.32292C8.26829 9.46875 8.12195 9.6875 8.04878 9.76042C7.90244 9.90625 7.7561 10.0521 7.90244 10.2708C8.04878 10.5625 8.56097 11.3646 9.36585 12.0937C10.3902 12.9687 11.1951 13.2604 11.4878 13.4063C11.7805 13.5521 11.9268 13.4792 12.0732 13.3333C12.2195 13.1875 12.7317 12.6042 12.878 12.3125C13.0244 12.0208 13.2439 12.0938 13.4634 12.1667C13.6829 12.2396 15 12.8958 15.2195 13.0417C15.5122 13.1875 15.6585 13.2604 15.7317 13.3333C15.8049 13.5521 15.8049 14.0625 15.5854 14.6458Z"></path>
</symbol></svg>