<svg width="40" height="40" viewBox="0 0 40 40" fill="none" xmlns="http://www.w3.org/2000/svg">
<path d="M36.3628 20.6152C36.3301 21.5405 36.2198 22.4454 36.04 23.3257C35.7355 24.8037 35.237 26.2081 34.5648 27.5122C34.5648 27.5122 34.5648 27.5135 34.5648 27.5163C34.4953 27.6575 34.4197 27.7967 34.3441 27.9339C33.9232 28.7016 33.441 29.4324 32.9057 30.1162V30.1203C32.5216 30.6116 32.115 31.0784 31.6777 31.5226C29.939 33.2955 27.7998 34.6773 25.4092 35.5187C24.8187 35.7275 24.216 35.9036 23.5969 36.0428C22.4302 36.3069 21.2166 36.4461 19.9682 36.4461C18.7198 36.4461 17.5184 36.3069 16.3538 36.0469C15.7347 35.9056 15.1278 35.7337 14.5414 35.5248C12.1427 34.6835 9.99736 33.2996 8.25247 31.5185C7.81523 31.0743 7.40659 30.6055 7.02451 30.1121C6.49123 29.4263 6.01108 28.6995 5.59223 27.9339C5.51254 27.7906 5.43694 27.6514 5.36339 27.506C4.69526 26.202 4.19468 24.7996 3.89228 23.3236C3.71248 22.4413 3.60215 21.5385 3.56946 20.6131L4.12521 20.7994C4.29684 20.8568 4.49707 20.9161 4.69935 20.9693C4.75656 20.9837 4.81172 21.0001 4.86893 21.0123C5.45124 21.1536 5.99269 21.2273 6.43402 21.2273C6.74255 21.2273 7.00816 21.1904 7.19409 21.1188C7.3126 20.9509 7.48627 20.5804 7.62725 20.2037C7.27582 19.004 6.05195 14.3467 6.96321 10.1561C6.98364 10.064 7.00408 9.97595 7.02451 9.88792C7.41885 9.38227 7.83974 8.90322 8.2872 8.44875C8.81639 7.91034 9.3844 7.40878 9.9851 6.94816C10.9924 6.17228 12.0916 5.51308 13.2644 4.98695C13.6547 4.81294 14.0511 4.65326 14.4536 4.50791C14.7274 4.40965 15.0032 4.31957 15.2811 4.23768C16.2026 3.96131 17.1608 3.76683 18.1416 3.65833C18.3275 3.63581 18.5134 3.61943 18.6973 3.60305C18.7954 3.59691 18.8914 3.59077 18.9895 3.58463C19.0569 3.58054 19.1264 3.57644 19.1958 3.57439C19.4512 3.56211 19.7066 3.55597 19.9682 3.55597C20.4912 3.55597 21.0102 3.57849 21.521 3.62967C21.6416 3.6399 21.758 3.65219 21.8745 3.66652C22.8307 3.77707 23.7644 3.97155 24.6634 4.24178C24.9434 4.32162 25.2192 4.41169 25.4909 4.51201C25.9343 4.66964 26.3695 4.8457 26.7945 5.04223C27.9326 5.56221 28.9971 6.20912 29.9758 6.96658C30.5703 7.4272 31.1343 7.92467 31.6573 8.46103C32.1048 8.91551 32.5257 9.3966 32.9221 9.9043C32.9384 9.98414 32.9568 10.0701 32.9772 10.1541C33.8885 14.3467 32.6687 19.004 32.3152 20.2037C32.4562 20.5783 32.6299 20.953 32.7463 21.1188H32.7504C32.9384 21.1904 33.202 21.2273 33.5105 21.2273C33.9498 21.2273 34.4892 21.1515 35.0756 21.0123C35.1328 21.0001 35.1859 20.9837 35.239 20.9714C35.4454 20.9161 35.6456 20.8588 35.8091 20.8015L36.3628 20.6152Z" fill="white"/>
<path d="M34.1255 17.4605L33.866 17.0531C34.2072 16.6866 34.5177 16.1892 34.7997 15.5607L35.2206 15.6855C35.145 15.8985 35.0306 16.1359 34.8773 16.4021V18.9242H34.4258V17.1083C34.3257 17.2455 34.2256 17.3601 34.1234 17.4584L34.1255 17.4605Z" fill="#E70002"/>
<path d="M35.0122 15.2127H33.9293V14.7705H35.0122V14.3754H35.4924V14.7705H36.0767V15.2127H35.4924V15.5259H35.0122V15.2127Z" fill="#E70002"/>
<path d="M37.1454 16.529H35.4863V18.1012H37.1454V16.529Z" fill="#E70002"/>
<path d="M36.888 15.2127H36.2914V14.7705H36.888V14.3754H37.3702V14.7705H38.451V15.2127H37.3702V15.5259H36.888V15.2127Z" fill="#E70002"/>
<path d="M36.9452 18.9201L36.7756 18.4738C36.8777 18.4779 37.1025 18.48 37.4457 18.48C37.5499 18.48 37.6051 18.4206 37.6051 18.2978V16.1871H35.3453V15.7449H38.4571V16.1871H38.073V18.4329C38.073 18.5475 38.0424 18.6438 37.9811 18.7215C37.9218 18.7993 37.8401 18.8526 37.74 18.8792C37.6398 18.9078 37.3742 18.9201 36.9452 18.9201Z" fill="#E70002"/>
<path d="M1.3158 17.5465C1.60797 17.135 1.85316 16.6559 2.04726 16.1114H1.38118V15.6856H2.07791V15.0305C1.90832 15.0694 1.74487 15.0919 1.58958 15.098L1.40978 14.6804C1.94919 14.6538 2.43138 14.5514 2.85228 14.3754L3.04434 14.7705C2.92584 14.8155 2.74808 14.8728 2.51107 14.9404V15.6856H3.0709V16.1114H2.51107V16.2199C2.77873 16.5208 2.97487 16.7767 3.10155 16.9896L2.81346 17.3233C2.70926 17.1329 2.6071 16.9692 2.51107 16.8299V18.957H2.07791V17.0326C1.94101 17.3561 1.78573 17.6529 1.61206 17.9231L1.3158 17.5485V17.5465Z" fill="#E70002"/>
<path d="M3.63576 16.3775H3.19971V18.9692H3.63576V16.3775Z" fill="#E70002"/>
<path d="M3.86575 16.1175L3.5041 16.2424C3.42442 15.9926 3.30387 15.7101 3.14246 15.3928L3.54497 15.2618C3.69208 15.5156 3.80445 15.7695 3.88618 16.0295C3.8964 16.054 3.90253 16.0807 3.9107 16.1052L3.86575 16.1196V16.1175Z" fill="#E70002"/>
<path d="M4.77291 16.0663L4.36223 16.1687C4.29276 15.8616 4.20081 15.5607 4.08435 15.2679L4.51547 15.1717C4.61967 15.4419 4.70753 15.7408 4.77291 16.0643V16.0663Z" fill="#E70002"/>
<path d="M5.31838 18.9733V18.7174H4.42959V18.9733H3.99438V16.4102H5.76992V18.9733H5.31838Z" fill="#E70002"/>
<path d="M3.33244 15.1594L3.1322 14.7316C3.5245 14.7234 3.90045 14.6988 4.26209 14.6538C4.72181 14.6005 5.15497 14.5207 5.5677 14.4122L5.7904 14.7971C5.24487 14.9383 4.68912 15.0386 4.1252 15.1001C3.86367 15.1308 3.59805 15.1512 3.33244 15.1615V15.1594Z" fill="#E70002"/>
<path d="M5.80872 15.2127C5.6943 15.5771 5.54924 15.921 5.37761 16.2403L4.9751 16.0602C5.14673 15.7347 5.28771 15.399 5.396 15.055L5.80872 15.2127Z" fill="#E70002"/>
<path d="M39.8976 21.0062C39.8874 21.2334 39.8731 21.4586 39.8526 21.6838C39.0006 31.9423 30.4212 40 19.9621 40C9.50294 40 0.909241 31.9279 0.0694865 21.6552C0.0490545 21.4341 0.0367953 21.2109 0.0245361 20.9857L1.6877 21.6285L1.73061 21.647C1.99418 21.7534 2.5152 21.9581 3.1588 22.1792C3.12611 22.1199 3.09546 22.0564 3.06686 21.995L2.18011 20.1546L3.56131 20.6131L4.11706 20.7994C4.28869 20.8567 4.48893 20.9161 4.6912 20.9693C4.74841 20.9837 4.80358 21.0001 4.86079 21.0123C5.4431 21.1536 5.98455 21.2273 6.42588 21.2273C6.7344 21.2273 7.00002 21.1904 7.18595 21.1188C7.30445 20.9509 7.47813 20.5804 7.61911 20.2037C7.26768 19.004 6.0438 14.3467 6.95507 10.1561C6.9755 10.064 6.99593 9.97595 7.01636 9.88792C7.07562 9.62383 7.13691 9.37817 7.19821 9.1366C7.71309 7.0976 8.46499 5.00128 9.25775 3.39014C9.32722 3.24889 9.39465 3.11377 9.46207 2.98685C9.95653 2.67977 10.4653 2.39316 10.9843 2.13112C11.446 1.8957 11.918 1.68074 12.3982 1.48626C12.7005 1.36138 13.0029 1.24469 13.3115 1.13619C14.7192 0.636675 16.2046 0.290701 17.737 0.122831C17.9618 0.0962178 18.1865 0.0757459 18.4133 0.0573213C18.5318 0.0491325 18.6503 0.0409438 18.7688 0.0348022C18.8506 0.0286606 18.9343 0.0245663 19.0181 0.0225191C19.3266 0.00818875 19.6413 0 19.9559 0C20.5934 0 21.2248 0.0307078 21.8459 0.0880291C21.991 0.100312 22.134 0.11669 22.277 0.135114C23.7788 0.309125 25.2294 0.648958 26.6106 1.14028C26.9192 1.24878 27.2236 1.36547 27.524 1.49035C28.0082 1.68893 28.4843 1.90798 28.9501 2.14341C29.4711 2.40545 29.9778 2.69205 30.4723 3.00118C30.5356 3.12606 30.601 3.25503 30.6684 3.39219C31.4612 5.00537 32.2111 7.10169 32.728 9.14069C32.7913 9.38226 32.8526 9.63611 32.916 9.90839C32.9323 9.98823 32.9507 10.0742 32.9711 10.1581C33.8824 14.3508 32.6626 19.0081 32.3091 20.2078C32.4501 20.5824 32.6238 20.9571 32.7402 21.1229H32.7443C32.9323 21.1945 33.1959 21.2314 33.5044 21.2314C33.9437 21.2314 34.4831 21.1556 35.0695 21.0164C35.1267 21.0041 35.1798 20.9878 35.2329 20.9755C35.4393 20.9202 35.6395 20.8629 35.803 20.8056L36.3567 20.6193L37.7583 20.1525L36.8614 22.0052C36.8328 22.0666 36.8021 22.126 36.7694 22.1854C37.2414 22.0236 37.7216 21.8455 38.1874 21.6552L38.2487 21.6306L39.8914 21.0103L39.8976 21.0062Z" fill="#E70002"/>
<path d="M21.8091 11.8921C21.284 11.8184 20.7753 11.7795 20.2951 11.7795C20.1827 11.7795 20.0704 11.7816 19.96 11.7856C19.8497 11.7816 19.7394 11.7795 19.6249 11.7795C19.1448 11.7795 18.636 11.8164 18.1109 11.8921C18.0108 11.2145 17.8923 10.5389 17.7554 9.87562C17.5225 8.74762 17.2344 7.66261 16.9013 6.6513C16.7134 6.07399 16.505 5.51511 16.2843 4.98079C17.4775 4.65529 18.7116 4.49152 19.958 4.49152C21.2043 4.49152 22.4405 4.65734 23.6337 4.98284C23.4151 5.50897 23.2067 6.06785 23.0166 6.6513C22.6836 7.6667 22.3976 8.75171 22.1646 9.87562C22.0318 10.5205 21.9113 11.1961 21.8071 11.8921H21.8091Z" fill="#E70002"/>
<path d="M35.8377 27.68C36.1217 27.6289 36.3056 27.6002 36.3056 27.6002C36.3056 27.6002 36.1524 27.7865 35.8622 28.0751C35.2758 28.6565 34.1153 29.6433 32.4869 30.2963C32.1845 30.4253 31.876 30.5379 31.5674 30.6423C31.0505 30.8184 30.5254 30.976 30.0105 31.1459C29.23 31.4018 28.47 31.6905 27.7712 32.1224C27.099 32.538 26.5146 33.0703 25.9609 33.6414C25.4133 34.2065 24.8944 34.8083 24.3509 35.3713C23.2516 36.5055 21.66 37.2813 20.3278 37.2813C20.2093 37.2813 20.0867 37.2752 19.9641 37.265C19.8415 37.2752 19.721 37.2813 19.6004 37.2813C18.2683 37.2813 16.6746 36.5055 15.5774 35.3713C15.0298 34.8083 14.5149 34.2085 13.9694 33.6435C13.4157 33.0723 12.8334 32.5401 12.1591 32.1224C11.4624 31.6884 10.6982 31.4018 9.91975 31.1459C9.40486 30.974 8.87976 30.8163 8.36487 30.6423C8.05635 30.5359 7.74783 30.4233 7.44543 30.2963C5.817 29.6433 4.65647 28.6545 4.07007 28.0751C3.77994 27.7865 3.6267 27.6002 3.6267 27.6002C3.6267 27.6002 3.81058 27.6289 4.09459 27.68C4.7055 27.7865 5.78023 27.9687 6.49739 28.0813C6.39523 28.0506 5.39815 27.7374 4.1661 26.5561C3.27731 25.7024 2.26388 24.4025 1.37305 22.4372C1.43434 22.4618 2.82372 23.0411 4.36429 23.4608C4.59313 23.5222 4.82605 23.5816 5.05898 23.6327C5.55752 23.7474 6.05402 23.8334 6.50965 23.8682C6.50965 23.8682 5.67602 23.6327 4.87918 22.949C4.72594 22.818 4.5727 22.6706 4.42967 22.5027C4.20901 22.2509 4.00673 21.9581 3.84532 21.6204C3.87597 21.6306 4.11502 21.7125 4.47258 21.8067C4.53183 21.823 4.59109 21.8374 4.65647 21.8537C5.45127 22.0462 6.66085 22.2447 7.49243 21.9295C7.52921 21.9172 7.5619 21.9131 7.59663 21.907C8.04818 21.7084 8.53037 20.218 8.53037 20.218C8.53037 20.218 6.80796 14.9179 7.80299 10.3383C7.87655 10.0087 7.95419 9.67911 8.03796 9.35156C9.10247 5.15073 10.9924 1.34706 11.9589 1.30816C12.4635 1.28769 13.4116 2.31333 14.3576 4.30729C14.4189 4.44036 14.4843 4.57752 14.5456 4.71878C14.8275 5.35545 15.1074 6.07811 15.3751 6.88265C15.6979 7.87145 16.0024 8.99126 16.2598 10.2339C16.4825 11.3128 16.6725 12.4838 16.8176 13.7469C16.8176 13.7469 18.1436 13.3743 19.6045 13.3743C19.7271 13.3743 19.8477 13.3784 19.9682 13.3825C20.0867 13.3763 20.2093 13.3743 20.3319 13.3743C21.7928 13.3743 23.1209 13.7469 23.1209 13.7469C23.2639 12.4838 23.4539 11.3128 23.6787 10.2339C23.9361 8.98921 24.2385 7.87145 24.5634 6.88265C24.829 6.07606 25.1089 5.3534 25.3929 4.71878C25.4542 4.57752 25.5196 4.44036 25.5809 4.30729C26.5248 2.31333 27.4749 1.28769 27.9796 1.30816C28.944 1.34706 30.8339 5.14664 31.8984 9.34747C31.9822 9.67502 32.0619 10.0067 32.1334 10.3363C33.1305 14.9158 31.406 20.216 31.406 20.216C31.406 20.216 31.8882 21.7063 32.3398 21.9049C32.3725 21.9111 32.4072 21.9152 32.444 21.9274C33.2735 22.2407 34.4831 22.0441 35.2799 21.8517C35.3433 21.8353 35.4046 21.821 35.4638 21.8046C35.8214 21.7104 36.0604 21.6285 36.0911 21.6183C35.9276 21.9561 35.7274 22.2488 35.5067 22.5006C35.3637 22.6665 35.2105 22.8139 35.0572 22.9449C34.2624 23.6286 33.4268 23.8661 33.4268 23.8661C33.8844 23.8313 34.3789 23.7453 34.8774 23.6307C35.1083 23.5795 35.3412 23.5222 35.5701 23.4587C37.1127 23.0391 38.498 22.4597 38.5634 22.4351C37.6725 24.4004 36.6591 25.7004 35.7703 26.5541C34.5362 27.7353 33.5412 28.0485 33.437 28.0792C34.1541 27.9666 35.2309 27.7824 35.8418 27.678L35.8377 27.68Z" fill="#FFF2BB"/>
<path d="M39.8976 21.0062C39.8874 21.2334 39.8731 21.4586 39.8527 21.6838L39.348 22.7975C38.6635 24.3042 37.8442 25.5898 36.9043 26.6278L38.4081 26.3862L36.9779 28.1488C36.9595 28.1714 36.7858 28.3822 36.4712 28.6934C35.8746 29.283 34.6057 30.3823 32.8098 31.1029C32.5421 31.2155 32.2336 31.3343 31.8515 31.4653C31.7943 31.4837 31.733 31.5042 31.6758 31.5226C31.4469 31.5983 31.2202 31.67 30.9934 31.7416C30.7563 31.8174 30.5214 31.8911 30.2864 31.9709C29.5999 32.1961 28.8786 32.4582 28.2289 32.8615C27.712 33.1829 27.2032 33.6087 26.5841 34.2474C26.3206 34.5217 26.0529 34.8145 25.7934 35.0949C25.6667 35.2362 25.536 35.3774 25.4052 35.5187C25.2642 35.6722 25.1212 35.8237 24.9741 35.9752C23.6951 37.2957 21.8725 38.1493 20.3279 38.1493H19.6025C18.0599 38.1493 16.2353 37.2977 14.9583 35.9752C14.8133 35.8278 14.6723 35.6763 14.5313 35.5248C14.3944 35.3774 14.2575 35.228 14.1247 35.0827C13.8714 34.8042 13.6098 34.5176 13.3483 34.2495C12.9315 33.8175 12.3655 33.2688 11.7056 32.8635C11.0517 32.4582 10.3325 32.1961 9.6501 31.973C9.41309 31.8931 9.18426 31.8215 8.95133 31.7457C8.71432 31.67 8.47731 31.5963 8.24234 31.5165C8.18922 31.5001 8.13814 31.4817 8.08501 31.4632C7.69068 31.3281 7.39237 31.2155 7.11449 31.0968C5.32261 30.3741 4.05787 29.2809 3.46125 28.6913C3.1466 28.3802 2.97497 28.1693 2.95454 28.1468L1.52022 26.3801L3.02605 26.6237C2.08823 25.5858 1.26686 24.3022 0.582388 22.7954L0.0654582 21.6552C0.0450262 21.4341 0.032767 21.2109 0.0205078 20.9857L1.68367 21.6285L1.72658 21.647C1.99015 21.7534 2.51117 21.9581 3.15477 22.1792C3.12208 22.1199 3.09144 22.0564 3.06283 21.995L2.17608 20.1546L3.55729 20.6131L4.11304 20.7994C4.28466 20.8568 4.4849 20.9161 4.68717 20.9693C4.74438 20.9837 4.79955 21.0001 4.85676 21.0123C5.43907 21.1536 5.98052 21.2273 6.42185 21.2273C6.73037 21.2273 6.99599 21.1904 7.18192 21.1188C7.30043 20.9509 7.4741 20.5804 7.61508 20.2037C7.26365 19.004 6.03977 14.3467 6.95104 10.1561C6.97147 10.064 6.9919 9.97595 7.01233 9.88792C7.07159 9.62383 7.13288 9.37817 7.19418 9.1366C7.70907 7.0976 8.46096 5.00128 9.25372 3.39014C9.32319 3.24889 9.39062 3.11377 9.45804 2.98685C10.6022 0.786122 11.3705 0.468808 11.9201 0.446289H11.9691C12.4329 0.446289 12.8906 0.722659 13.3115 1.13619C14.0777 1.88751 14.7336 3.0974 15.1341 3.93879C15.181 4.0391 15.226 4.13532 15.2709 4.23768C15.2914 4.28272 15.3118 4.32776 15.3322 4.37484C15.6367 5.0627 15.9268 5.81811 16.1904 6.61651C16.5479 7.71176 16.8544 8.87047 17.1017 10.066C17.2774 10.9177 17.4286 11.8041 17.5512 12.7069C18.1028 12.6086 18.8302 12.5145 19.5984 12.5145C19.721 12.5145 19.8416 12.5186 19.9601 12.5226C20.0806 12.5186 20.2012 12.5145 20.3238 12.5145C21.092 12.5145 21.8214 12.6086 22.3731 12.7069C22.4957 11.8061 22.6469 10.9197 22.8226 10.066C23.0739 8.85614 23.3804 7.69538 23.7359 6.61856C23.9974 5.81811 24.2876 5.0627 24.5961 4.3728C24.6145 4.3298 24.6329 4.28681 24.6533 4.24382C24.6983 4.14351 24.7432 4.04729 24.7882 3.94903C25.1886 3.10354 25.8445 1.89365 26.6107 1.14029C27.0336 0.724707 27.4913 0.448336 27.9572 0.448336H28.0082C28.5579 0.470855 29.3261 0.790216 30.4744 3.00118C30.5377 3.12606 30.6031 3.25503 30.6705 3.39219C31.4633 5.00538 32.2132 7.1017 32.7301 9.1407C32.7934 9.38226 32.8547 9.63612 32.9181 9.90839C32.9344 9.98823 32.9528 10.0742 32.9732 10.1581C33.8845 14.3508 32.6647 19.0081 32.3112 20.2078C32.4522 20.5824 32.6259 20.9571 32.7423 21.1229H32.7464C32.9344 21.1945 33.198 21.2314 33.5065 21.2314C33.9458 21.2314 34.4852 21.1556 35.0716 21.0164C35.1288 21.0041 35.1819 20.9878 35.235 20.9755C35.4414 20.9202 35.6416 20.8629 35.8051 20.8056L36.3588 20.6193L37.7604 20.1525L36.8635 22.0052C36.8349 22.0666 36.8042 22.126 36.7715 22.1854C37.2435 22.0236 37.7237 21.8455 38.1895 21.6552L38.2508 21.6306L39.8935 21.0103L39.8976 21.0062Z" fill="#1D1D1B"/>
<path d="M35.8377 27.68C36.1217 27.6289 36.3056 27.6002 36.3056 27.6002C36.3056 27.6002 36.1524 27.7865 35.8622 28.0751C35.2758 28.6565 34.1153 29.6433 32.4869 30.2963C32.1845 30.4253 31.876 30.5379 31.5674 30.6423C31.0505 30.8184 30.5254 30.976 30.0105 31.1459C29.23 31.4018 28.47 31.6905 27.7712 32.1224C27.099 32.538 26.5146 33.0703 25.9609 33.6414C25.4133 34.2065 24.8944 34.8083 24.3509 35.3713C23.2516 36.5055 21.66 37.2813 20.3278 37.2813C20.2093 37.2813 20.0867 37.2752 19.9641 37.265C19.8415 37.2752 19.721 37.2813 19.6004 37.2813C18.2683 37.2813 16.6746 36.5055 15.5774 35.3713C15.0298 34.8083 14.5149 34.2085 13.9694 33.6435C13.4157 33.0723 12.8334 32.5401 12.1591 32.1224C11.4624 31.6884 10.6982 31.4018 9.91975 31.1459C9.40486 30.974 8.87976 30.8163 8.36487 30.6423C8.05635 30.5359 7.74783 30.4233 7.44543 30.2963C5.817 29.6433 4.65647 28.6545 4.07007 28.0751C3.77994 27.7865 3.6267 27.6002 3.6267 27.6002C3.6267 27.6002 3.81058 27.6289 4.09459 27.68C4.7055 27.7865 5.78023 27.9687 6.49739 28.0813C6.39523 28.0506 5.39815 27.7374 4.1661 26.5561C3.27731 25.7024 2.26388 24.4025 1.37305 22.4372C1.43434 22.4618 2.82372 23.0411 4.36429 23.4608C4.59313 23.5222 4.82605 23.5816 5.05898 23.6327C5.55752 23.7474 6.05402 23.8334 6.50965 23.8682C6.50965 23.8682 5.67602 23.6327 4.87918 22.949C4.72594 22.818 4.5727 22.6706 4.42967 22.5027C4.20901 22.2509 4.00673 21.9581 3.84532 21.6204C3.87597 21.6306 4.11502 21.7125 4.47258 21.8067C4.53183 21.823 4.59109 21.8374 4.65647 21.8537C5.45127 22.0462 6.66085 22.2447 7.49243 21.9295C7.52921 21.9172 7.5619 21.9131 7.59663 21.907C8.04818 21.7084 8.53037 20.218 8.53037 20.218C8.53037 20.218 6.80796 14.9179 7.80299 10.3383C7.87655 10.0087 7.95419 9.67911 8.03796 9.35156C9.10247 5.15073 10.9924 1.34706 11.9589 1.30816C12.4635 1.28769 13.4116 2.31333 14.3576 4.30729C14.4189 4.44036 14.4843 4.57752 14.5456 4.71878C14.8275 5.35545 15.1074 6.07811 15.3751 6.88265C15.6979 7.87145 16.0024 8.99126 16.2598 10.2339C16.4825 11.3128 16.6725 12.4838 16.8176 13.7469C16.8176 13.7469 18.1436 13.3743 19.6045 13.3743C19.7271 13.3743 19.8477 13.3784 19.9682 13.3825C20.0867 13.3763 20.2093 13.3743 20.3319 13.3743C21.7928 13.3743 23.1209 13.7469 23.1209 13.7469C23.2639 12.4838 23.4539 11.3128 23.6787 10.2339C23.9361 8.98921 24.2385 7.87145 24.5634 6.88265C24.829 6.07606 25.1089 5.3534 25.3929 4.71878C25.4542 4.57752 25.5196 4.44036 25.5809 4.30729C26.5248 2.31333 27.4749 1.28769 27.9796 1.30816C28.944 1.34706 30.8339 5.14664 31.8984 9.34747C31.9822 9.67502 32.0619 10.0067 32.1334 10.3363C33.1305 14.9158 31.406 20.216 31.406 20.216C31.406 20.216 31.8882 21.7063 32.3398 21.9049C32.3725 21.9111 32.4072 21.9152 32.444 21.9274C33.2735 22.2407 34.4831 22.0441 35.2799 21.8517C35.3433 21.8353 35.4046 21.821 35.4638 21.8046C35.8214 21.7104 36.0604 21.6285 36.0911 21.6183C35.9276 21.9561 35.7274 22.2488 35.5067 22.5006C35.3637 22.6665 35.2105 22.8139 35.0572 22.9449C34.2624 23.6286 33.4268 23.8661 33.4268 23.8661C33.8844 23.8313 34.3789 23.7453 34.8774 23.6307C35.1083 23.5795 35.3412 23.5222 35.5701 23.4587C37.1127 23.0391 38.498 22.4597 38.5634 22.4351C37.6725 24.4004 36.6591 25.7004 35.7703 26.5541C34.5362 27.7353 33.5412 28.0485 33.437 28.0792C34.1541 27.9666 35.2309 27.7824 35.8418 27.678L35.8377 27.68Z" fill="white"/>
<path d="M30.6562 19.2968C30.6562 19.2968 29.465 17.4236 26.7517 15.5934L24.7228 13.4705C24.7228 13.4705 25.4502 7.14468 27.8591 2.69205C27.8591 2.69205 29.8533 5.2715 31.0158 10.6413C32.1784 16.011 30.6562 19.2988 30.6562 19.2988V19.2968Z" fill="#FFBB40"/>
<path d="M9.71739 19.0573C9.71739 19.0573 10.7206 17.5014 13.3155 15.5934L15.3444 13.4705C15.3444 13.4705 14.617 7.14468 12.2081 2.69205C12.2081 2.69205 9.80729 5.54378 8.89398 11.1551C7.98067 16.7665 9.71944 19.0573 9.71944 19.0573H9.71739Z" fill="#FFBB40"/>
<path d="M22.3812 30.237C22.4118 29.76 22.5957 29.2912 22.8593 28.8776C23.129 28.4662 23.4743 28.1059 23.8564 27.8008C24.6246 27.1764 25.5318 26.8059 26.3756 26.4312C26.8047 26.2531 27.2215 26.0669 27.6199 25.8621C28.0265 25.6636 28.3923 25.4261 28.7437 25.1559C29.4261 24.6052 30.0146 23.8845 30.1801 22.9408C30.2577 23.4116 30.1657 23.9153 29.9737 24.3697C29.7735 24.8222 29.4792 25.2336 29.1298 25.5858C28.7866 25.944 28.3698 26.2286 27.955 26.4783C27.5321 26.7199 27.0969 26.9205 26.6657 27.113C25.7974 27.4815 24.9454 27.8008 24.1873 28.2717C23.4355 28.7466 22.7469 29.3587 22.3771 30.239L22.3812 30.237Z" fill="#460E75"/>
<path d="M24.1261 29.7764C24.2385 29.4161 24.5266 29.1172 24.8514 28.9083C25.1804 28.6995 25.5584 28.5685 25.9262 28.4887C26.674 28.3269 27.3605 28.2799 27.9837 27.9974C28.6191 27.7496 29.1973 27.3586 29.7061 26.8878C30.2169 26.4128 30.6357 25.8355 30.9831 25.1804C30.8911 25.9174 30.5642 26.6401 30.0718 27.2297C29.8328 27.5306 29.5426 27.7906 29.2382 28.026C28.9256 28.2553 28.5823 28.4416 28.2248 28.5931C27.8631 28.7323 27.479 28.8387 27.101 28.8858C26.723 28.9288 26.3614 28.9534 26.0079 28.98C25.6565 29.0148 25.3193 29.0639 24.9945 29.1868C24.6696 29.3035 24.3672 29.4877 24.1281 29.7764H24.1261Z" fill="#460E75"/>
<path d="M26.631 30.1612C27.0437 30.0855 27.4278 30.0015 27.8017 29.8889C28.1716 29.7723 28.5312 29.6371 28.8724 29.4652C29.2177 29.3014 29.5446 29.0987 29.8633 28.8776C30.18 28.6524 30.4824 28.3986 30.795 28.1202C30.6724 28.5235 30.4354 28.8899 30.1412 29.199C29.849 29.5123 29.4935 29.762 29.1114 29.9545C28.7253 30.1387 28.3084 30.2656 27.8835 30.3045C27.4605 30.3475 27.0274 30.3107 26.633 30.1612H26.631Z" fill="#460E75"/>
<path d="M28.7132 18.9344C28.6355 18.7973 28.4598 18.7072 28.3147 18.7707C27.8407 18.9529 28.1411 19.4053 28.1411 19.4053C28.1411 19.4053 28.7111 19.9089 27.663 21.647C28.3188 21.0881 28.7336 20.2549 28.7867 19.393C28.7969 19.2354 28.7929 19.0696 28.7132 18.9344Z" fill="#E70002"/>
<path d="M27.5015 20.1976C27.4341 20.0809 27.2829 20.001 27.1583 20.0563C26.7476 20.2139 27.0071 20.6049 27.0071 20.6049C27.0071 20.6049 27.4995 21.041 26.5944 22.5416C27.1603 22.0585 27.5199 21.3378 27.5649 20.5947C27.5731 20.4596 27.569 20.3163 27.5015 20.1976Z" fill="#E70002"/>
<path d="M26.4493 21.3153C26.3982 21.2253 26.2817 21.1659 26.1877 21.2068C25.8751 21.3276 26.0733 21.6245 26.0733 21.6245C26.0733 21.6245 26.4472 21.9561 25.7587 23.1005C26.1898 22.732 26.4636 22.1854 26.4983 21.6183C26.5044 21.516 26.5024 21.4054 26.4493 21.3153Z" fill="#E70002"/>
<path d="M24.1097 25.8949C24.1322 25.7987 25.2989 25.5898 26.012 25.3728C26.7373 25.1517 27.6935 24.7034 28.38 23.8682C29.2361 22.6624 29.0665 20.8383 29.0665 20.8383L28.38 21.5814C28.282 22.0543 27.3932 23.428 26.2817 24.1056C24.4244 24.8078 24.1097 25.8949 24.1097 25.8949Z" fill="#E70002"/>
<path d="M23.6541 26.1938C24.3304 25.6492 25.5155 25.3442 26.2776 24.9429C27.4075 24.3472 28.378 23.6573 28.378 21.5794C28.3045 21.7841 28.0797 21.9397 27.9203 22.081C27.573 22.388 27.1439 22.5416 26.7557 22.7913C26.0896 23.2192 25.3623 23.512 24.7432 24.0094C24.1241 24.5069 23.6521 25.2254 23.6521 26.1958L23.6541 26.1938Z" fill="#1D1D1B"/>
<mask id="mask0_384_7824" style="mask-type:luminance" maskUnits="userSpaceOnUse" x="23" y="21" width="6" height="6">
<path d="M23.6541 26.1938C24.3304 25.6492 25.5155 25.3442 26.2776 24.9429C27.4075 24.3472 28.378 23.6573 28.378 21.5794C28.3045 21.7841 28.0797 21.9397 27.9203 22.081C27.573 22.388 27.1439 22.5416 26.7557 22.7913C26.0896 23.2192 25.3623 23.512 24.7432 24.0094C24.1241 24.5069 23.6521 25.2254 23.6521 26.1958L23.6541 26.1938Z" fill="white"/>
</mask>
<g mask="url(#mask0_384_7824)">
<path d="M25.0373 25.2029C26.1635 25.2029 27.0764 24.2882 27.0764 23.1599C27.0764 22.0315 26.1635 21.1168 25.0373 21.1168C23.9111 21.1168 22.9982 22.0315 22.9982 23.1599C22.9982 24.2882 23.9111 25.2029 25.0373 25.2029Z" fill="#FFBB40"/>
</g>
<path d="M20.1889 30.9146C19.3962 30.9146 16.1434 31.8522 19.3533 33.3077L20.1889 32.3026L21.0246 33.3077C24.2324 31.8542 20.9817 30.9146 20.1889 30.9146Z" fill="#E70002"/>
<path d="M20.1888 31.5635C19.1877 31.5635 18.3336 31.9116 18.3336 32.3333C18.3336 32.755 20.1888 33.8421 20.1888 33.8421C20.1888 33.8421 22.0441 32.753 22.0441 32.3333C22.0441 31.9136 21.19 31.5635 20.1888 31.5635Z" fill="#1D1D1B"/>
<path d="M17.9986 30.237C17.9679 29.76 17.784 29.2912 17.5205 28.8776C17.2508 28.4662 16.9055 28.1059 16.5234 27.8008C15.7551 27.1764 14.848 26.8059 14.0041 26.4312C13.575 26.2531 13.1582 26.0669 12.7598 25.8621C12.3532 25.6636 11.9875 25.4261 11.636 25.1559C10.9536 24.6052 10.3652 23.8845 10.1997 22.9408C10.122 23.4116 10.214 23.9153 10.406 24.3697C10.6063 24.8222 10.9005 25.2336 11.2499 25.5858C11.5931 25.944 12.01 26.2286 12.4247 26.4783C12.8477 26.7199 13.2829 26.9205 13.714 27.113C14.5823 27.4815 15.4344 27.8008 16.1924 28.2717C16.9443 28.7466 17.6328 29.3587 18.0027 30.239L17.9986 30.237Z" fill="#460E75"/>
<path d="M16.2537 29.7764C16.1413 29.4161 15.8532 29.1172 15.5284 28.9083C15.1994 28.6995 14.8214 28.5685 14.4536 28.4887C13.7058 28.3269 13.0193 28.2799 12.3961 27.9974C11.7607 27.7496 11.1825 27.3586 10.6737 26.8878C10.1629 26.4128 9.74407 25.8355 9.39673 25.1804C9.48867 25.9174 9.81558 26.6401 10.308 27.2297C10.547 27.5306 10.8372 27.7906 11.1416 28.026C11.4542 28.2553 11.7975 28.4416 12.155 28.5931C12.5167 28.7323 12.9008 28.8387 13.2788 28.8858C13.6568 28.9288 14.0184 28.9534 14.3719 28.98C14.7233 29.0148 15.0605 29.0639 15.3853 29.1868C15.7102 29.3035 16.0126 29.4877 16.2517 29.7764H16.2537Z" fill="#460E75"/>
<path d="M13.7488 30.1612C13.336 30.0855 12.9519 30.0015 12.578 29.8889C12.2082 29.7723 11.8486 29.6371 11.5074 29.4652C11.1621 29.3014 10.8352 29.0987 10.5164 28.8776C10.1997 28.6524 9.89733 28.3986 9.58472 28.1202C9.70731 28.5235 9.94432 28.8899 10.2385 29.199C10.5307 29.5123 10.8862 29.762 11.2683 29.9545C11.6545 30.1387 12.0713 30.2656 12.4963 30.3045C12.9192 30.3475 13.3524 30.3107 13.7467 30.1612H13.7488Z" fill="#460E75"/>
<path d="M11.6667 18.9345C11.7443 18.7993 11.9201 18.7072 12.0651 18.7707C12.5391 18.9529 12.2388 19.4053 12.2388 19.4053C12.2388 19.4053 11.6687 19.9089 12.7169 21.647C12.061 21.0881 11.6463 20.2549 11.5931 19.393C11.5829 19.2354 11.587 19.0696 11.6667 18.9345Z" fill="#E70002"/>
<path d="M12.8762 20.1976C12.9436 20.0809 13.0948 20.001 13.2195 20.0563C13.6301 20.2139 13.3686 20.6049 13.3686 20.6049C13.3686 20.6049 12.8762 21.041 13.7813 22.5416C13.2154 22.0585 12.8558 21.3378 12.8108 20.5947C12.8026 20.4596 12.8067 20.3163 12.8742 20.1976H12.8762Z" fill="#E70002"/>
<path d="M13.9305 21.3153C13.9816 21.2253 14.098 21.1659 14.192 21.2068C14.5046 21.3276 14.3064 21.6245 14.3064 21.6245C14.3064 21.6245 13.9325 21.9561 14.6211 23.1005C14.19 22.732 13.9162 22.1854 13.8814 21.6183C13.8753 21.516 13.8774 21.4054 13.9305 21.3153Z" fill="#E70002"/>
<path d="M18.2274 18.6417C18.2274 19.7288 19.106 20.609 20.1909 20.609C21.2759 20.609 22.1544 19.7288 22.1544 18.6417C22.1544 17.5546 21.2759 16.6743 20.1909 16.6743C19.106 16.6743 18.2274 17.5546 18.2274 18.6417Z" fill="#E70002"/>
<path d="M23.4008 18.0316C23.5009 19.0675 23.2414 19.6796 22.608 20.5046C21.9746 21.3296 20.4197 21.9622 20.5934 22.951L20.5852 22.9776C20.6935 22.6173 21.0102 22.3553 21.3433 22.1833C21.6763 22.0114 22.042 21.9049 22.3751 21.7268C23.0023 21.389 23.4845 20.7871 23.6745 20.0993C23.8666 19.4114 23.7644 18.6478 23.4028 18.0316H23.4008Z" fill="#E70002"/>
<path d="M16.9789 18.0316C16.8788 19.0675 17.1383 19.6796 17.7717 20.5046C18.4051 21.3297 19.96 21.9622 19.7863 22.951L19.7945 22.9777C19.6862 22.6173 19.3695 22.3553 19.0364 22.1833C18.7034 22.0114 18.3377 21.9049 18.0046 21.7268C17.3773 21.389 16.8952 20.7872 16.7051 20.0993C16.5131 19.4115 16.6152 18.6479 16.9769 18.0316H16.9789Z" fill="#E70002"/>
<path d="M16.27 25.8949C16.2475 25.7987 15.0809 25.5898 14.3678 25.3728C13.6425 25.1517 12.6862 24.7034 11.9997 23.8682C11.1436 22.6624 11.3132 20.8383 11.3132 20.8383L11.9997 21.5814C12.0978 22.0543 12.9866 23.428 14.0981 24.1056C15.9554 24.8078 16.27 25.8949 16.27 25.8949Z" fill="#E70002"/>
<path d="M16.7256 26.1938C16.0493 25.6492 14.8642 25.3442 14.1021 24.9429C12.9722 24.3472 12.0017 23.6573 12.0017 21.5794C12.0753 21.7841 12.3 21.9397 12.4594 22.081C12.8067 22.388 13.2358 22.5416 13.624 22.7913C14.2901 23.2192 15.0175 23.512 15.6366 24.0094C16.2556 24.5069 16.7276 25.2254 16.7276 26.1958L16.7256 26.1938Z" fill="#1D1D1B"/>
<mask id="mask1_384_7824" style="mask-type:luminance" maskUnits="userSpaceOnUse" x="12" y="21" width="5" height="6">
<path d="M16.7256 26.1938C16.0493 25.6492 14.8642 25.3442 14.1021 24.9429C12.9722 24.3472 12.0017 23.6573 12.0017 21.5794C12.0753 21.7841 12.3 21.9397 12.4594 22.081C12.8067 22.388 13.2358 22.5416 13.624 22.7913C14.2901 23.2192 15.0175 23.512 15.6366 24.0094C16.2556 24.5069 16.7276 25.2254 16.7276 26.1958L16.7256 26.1938Z" fill="white"/>
</mask>
<g mask="url(#mask1_384_7824)">
<path d="M15.3423 25.2029C16.4685 25.2029 17.3814 24.2882 17.3814 23.1599C17.3814 22.0315 16.4685 21.1168 15.3423 21.1168C14.2162 21.1168 13.3032 22.0315 13.3032 23.1599C13.3032 24.2882 14.2162 25.2029 15.3423 25.2029Z" fill="#FFBB40"/>
</g>
<path d="M7.01635 9.88792C7.0756 9.62383 7.13689 9.37817 7.19819 9.1366C7.71308 7.0976 8.46497 5.00128 9.25773 3.39014C9.3272 3.24889 9.39463 3.11377 9.46205 2.98685C3.78196 6.51006 0 12.8113 0 19.999C0 20.3306 0.0081728 20.6602 0.0245184 20.9857L1.68768 21.6285L1.73059 21.647C1.99416 21.7534 2.51518 21.9581 3.15879 22.1792C3.12609 22.1199 3.09545 22.0564 3.06684 21.995L2.18009 20.1546L3.5613 20.6131L4.11705 20.7994C4.28867 20.8567 4.48891 20.9161 4.69118 20.9693C4.74839 20.9837 4.80356 21.0001 4.86077 21.0123C5.44308 21.1536 5.98453 21.2273 6.42586 21.2273C6.73438 21.2273 7 21.1904 7.18593 21.1188C7.30444 20.9509 7.47811 20.5804 7.61909 20.2037C7.26766 19.004 6.04378 14.3467 6.95505 10.1561C6.97548 10.064 6.99591 9.97595 7.01635 9.88792ZM1.37916 16.1114V15.6856H2.07589V15.0305C1.9063 15.0693 1.74285 15.0919 1.58757 15.098L1.40776 14.6804C1.94717 14.6538 2.42936 14.5514 2.85026 14.3754L3.04232 14.7705C2.92382 14.8155 2.74606 14.8728 2.50905 14.9404V15.6856H3.06888V16.1114H2.50905V16.2199C2.77671 16.5208 2.97285 16.7767 3.09953 16.9896L2.81144 17.3233C2.70724 17.1329 2.60508 16.9691 2.50905 16.8299V18.957H2.07589V17.0326C1.939 17.3561 1.78371 17.6529 1.61004 17.9231L1.31378 17.5485C1.60595 17.137 1.85114 16.658 2.04524 16.1134H1.37916V16.1114ZM4.42966 18.7174V18.9733H3.99241V16.4103H5.76795V18.9733H5.3164V18.7174H4.42761H4.42966ZM4.36223 16.1687C4.29276 15.8616 4.20082 15.5607 4.08435 15.2679L4.51547 15.1717C4.61967 15.4419 4.70753 15.7408 4.77291 16.0643L4.36223 16.1666V16.1687ZM4.12522 15.096C3.86369 15.1267 3.59807 15.1471 3.33246 15.1574L3.13222 14.7295C3.52452 14.7213 3.90047 14.6968 4.26211 14.6517C4.72183 14.5985 5.15499 14.5187 5.56772 14.4102L5.79043 14.795C5.24489 14.9363 4.68914 15.0366 4.12522 15.098V15.096ZM3.50613 16.2383C3.42644 15.9885 3.3059 15.706 3.14448 15.3887L3.54699 15.2577C3.6941 15.5115 3.80648 15.7654 3.88821 16.0254C3.89842 16.05 3.90455 16.0766 3.91273 16.1011L3.86778 16.1155L3.50613 16.2403V16.2383ZM3.63485 16.3755V18.9672H3.19965V16.3755H3.63485ZM5.37974 16.2383L4.97723 16.0581C5.14886 15.7326 5.28984 15.3969 5.39813 15.053L5.81086 15.2106C5.69644 15.575 5.55137 15.9189 5.37974 16.2383Z" fill="#E70002"/>
<path d="M2.51107 16.2198C2.77873 16.5208 2.97487 16.7767 3.10155 16.9896L2.81346 17.3233C2.70926 17.1329 2.6071 16.9691 2.51107 16.8299V18.9569H2.07791V17.0326C1.94101 17.356 1.78573 17.6529 1.61206 17.9231L1.3158 17.5485C1.60797 17.137 1.85316 16.6579 2.04726 16.1134H1.38118V15.6876H2.07791V15.0325C1.90832 15.0714 1.74487 15.0939 1.58958 15.1L1.40978 14.6824C1.94919 14.6558 2.43138 14.5534 2.85228 14.3774L3.04434 14.7725C2.92584 14.8175 2.74808 14.8748 2.51107 14.9424V15.6876H3.0709V16.1134H2.51107V16.2219V16.2198Z" fill="#E70002"/>
<path d="M3.63576 16.3775H3.19971V18.9692H3.63576V16.3775Z" fill="#E70002"/>
<path d="M3.88618 16.0274C3.8964 16.052 3.90253 16.0786 3.9107 16.1032L3.86575 16.1175L3.5041 16.2424C3.42442 15.9926 3.30387 15.7101 3.14246 15.3928L3.54497 15.2618C3.69208 15.5156 3.80445 15.7695 3.88618 16.0295V16.0274Z" fill="#E70002"/>
<path d="M4.08643 15.2679L4.51754 15.1717C4.62174 15.4419 4.7096 15.7408 4.77498 16.0643L4.3643 16.1666C4.29483 15.8595 4.20289 15.5586 4.08643 15.2659V15.2679Z" fill="#E70002"/>
<path d="M3.99438 16.4102H5.76992V18.9733H5.31838V18.7174H4.42959V18.9733H3.99438V16.4102Z" fill="#E70002"/>
<path d="M3.33244 15.1594L3.1322 14.7316C3.5245 14.7234 3.90045 14.6988 4.26209 14.6538C4.72181 14.6005 5.15497 14.5207 5.5677 14.4122L5.7904 14.7971C5.24487 14.9383 4.68912 15.0386 4.1252 15.1001C3.86367 15.1308 3.59805 15.1512 3.33244 15.1615V15.1594Z" fill="#E70002"/>
<path d="M5.396 15.055L5.80872 15.2127C5.6943 15.5771 5.54924 15.921 5.37761 16.2403L4.9751 16.0602C5.14673 15.7347 5.28771 15.399 5.396 15.055Z" fill="#E70002"/>
<path d="M30.4784 2.99707C30.5417 3.12195 30.6071 3.25092 30.6745 3.38808C31.4673 5.00127 32.2172 7.09759 32.7341 9.13659C32.7974 9.37815 32.8587 9.63201 32.9221 9.90428C32.9384 9.98412 32.9568 10.0701 32.9772 10.154C33.8885 14.3467 32.6687 19.004 32.3152 20.2037C32.4562 20.5783 32.6299 20.953 32.7463 21.1188H32.7504C32.9384 21.1904 33.202 21.2273 33.5105 21.2273C33.9498 21.2273 34.4892 21.1515 35.0756 21.0123C35.1328 21 35.1859 20.9837 35.239 20.9714C35.4454 20.9161 35.6456 20.8588 35.8091 20.8015L36.3628 20.6152L37.7644 20.1484L36.8675 22.0011C36.8389 22.0625 36.8082 22.1219 36.7755 22.1813C37.2475 22.0195 37.7277 21.8414 38.1935 21.651L38.2548 21.6265L39.8975 21.0062C39.9159 20.6725 39.9241 20.3368 39.9241 19.999C39.9241 12.8195 36.1483 6.52233 30.4784 2.99707ZM36.0768 14.7704V15.2106H35.4924V15.5238H35.0123V15.2106H33.9273V14.7704H35.0123V14.3753H35.4924V14.7704H36.0768ZM34.7998 15.5607L35.2207 15.6855C35.1451 15.8984 35.0306 16.1359 34.8774 16.4021V18.9242H34.4259V17.1083C34.3257 17.2455 34.2256 17.3601 34.1235 17.4584L33.864 17.051C34.2052 16.6846 34.5158 16.1871 34.7977 15.5586L34.7998 15.5607ZM38.4571 16.1851H38.073V18.4308C38.073 18.5455 38.0423 18.6417 37.981 18.7195C37.9218 18.7973 37.84 18.8505 37.7399 18.8771C37.6398 18.9058 37.3742 18.918 36.9451 18.918L36.7755 18.4718C36.8777 18.4759 37.1024 18.4779 37.4457 18.4779C37.5499 18.4779 37.6051 18.4185 37.6051 18.2957V16.1851H35.3453V15.7429H38.4571V16.1851ZM35.4883 18.0992V16.5269H37.1474V18.0992H35.4883ZM38.451 14.7704V15.2106H37.3701V15.5238H36.8879V15.2106H36.2913V14.7704H36.8879V14.3753H37.3701V14.7704H38.451Z" fill="#E70002"/>
<path d="M34.7997 15.5607L35.2206 15.6855C35.145 15.8985 35.0306 16.1359 34.8773 16.4021V18.9242H34.4258V17.1083C34.3257 17.2455 34.2255 17.3601 34.1234 17.4584L33.8639 17.051C34.2051 16.6846 34.5157 16.1871 34.7976 15.5586L34.7997 15.5607Z" fill="#E70002"/>
<path d="M35.0122 15.2127H33.9293V14.7705H35.0122V14.3754H35.4924V14.7705H36.0767V15.2127H35.4924V15.5259H35.0122V15.2127Z" fill="#E70002"/>
<path d="M37.1454 16.529H35.4863V18.1012H37.1454V16.529Z" fill="#E70002"/>
<path d="M36.888 15.2127H36.2914V14.7705H36.888V14.3754H37.3702V14.7705H38.451V15.2127H37.3702V15.5259H36.888V15.2127Z" fill="#E70002"/>
<path d="M38.4571 15.7429V16.1851H38.073V18.4308C38.073 18.5455 38.0424 18.6417 37.9811 18.7195C37.9218 18.7973 37.8401 18.8505 37.74 18.8771C37.6398 18.9058 37.3742 18.918 36.9452 18.918L36.7756 18.4718C36.8777 18.4759 37.1025 18.4779 37.4457 18.4779C37.5499 18.4779 37.6051 18.4185 37.6051 18.2957V16.1851H35.3453V15.7429H38.4571Z" fill="#E70002"/>
<path d="M2.51107 16.2199V16.1114H3.0709V15.6856H2.51107V14.9404C2.74808 14.8728 2.92788 14.8155 3.04434 14.7705L2.85228 14.3754C2.43138 14.5514 1.94919 14.6558 1.40978 14.6804L1.58958 15.098C1.74487 15.0919 1.90832 15.0694 2.07791 15.0305V15.6856H1.38118V16.1114H2.04726C1.85316 16.658 1.60797 17.137 1.3158 17.5465L1.61206 17.9211C1.78573 17.6509 1.94101 17.354 2.07791 17.0306V18.9549H2.51107V16.8279C2.6071 16.9671 2.70721 17.1329 2.81346 17.3213L3.10155 16.9876C2.97692 16.7747 2.77873 16.5188 2.51107 16.2178V16.2199ZM5.56769 14.4102C5.15497 14.5187 4.72181 14.6006 4.26209 14.6517C3.90044 14.6968 3.52449 14.7234 3.1322 14.7295L3.33243 15.1574C3.59805 15.1451 3.86162 15.1246 4.12519 15.096C4.68912 15.0366 5.24487 14.9342 5.7904 14.793L5.56769 14.4081V14.4102ZM3.88818 16.0254C3.8085 15.7654 3.69408 15.5116 3.54697 15.2577L3.14446 15.3887C3.30587 15.706 3.42642 15.9885 3.50611 16.2383L3.86775 16.1134L3.9127 16.0991C3.90453 16.0745 3.8984 16.0479 3.88818 16.0234V16.0254ZM3.20167 16.3755V18.9672H3.63687V16.3755H3.20167ZM3.99647 16.4082V18.9713H4.43372V18.7154H5.32251V18.9713H5.77406V16.4082H3.99852H3.99647ZM5.32047 18.3039H4.43167V17.7532H5.32047V18.3039ZM5.32047 17.3438H4.43167V16.8136H5.32047V17.3438ZM4.51953 15.1697L4.08842 15.2659C4.20488 15.5586 4.29682 15.8596 4.36629 16.1667L4.77697 16.0643C4.71159 15.7388 4.62578 15.442 4.51953 15.1717V15.1697ZM5.40015 15.0509C5.29186 15.3969 5.15088 15.7327 4.97925 16.0561L5.38176 16.2363C5.55339 15.9149 5.69846 15.5709 5.81288 15.2086L5.40015 15.0509Z" fill="white"/>
<path d="M34.7997 15.5607C34.5177 16.1891 34.2072 16.6866 33.866 17.0531L34.1255 17.4605C34.2276 17.3622 34.3277 17.2475 34.4278 17.1104V18.9262H34.8794V16.4041C35.0326 16.138 35.1471 15.8984 35.2227 15.6876L34.8018 15.5627L34.7997 15.5607ZM35.4924 14.7704V14.3753H35.0122V14.7704H33.9273V15.2106H35.0122V15.5238H35.4924V15.2106H36.0767V14.7704H35.4924ZM35.3452 15.7429V16.1851H37.605V18.2957C37.605 18.4185 37.5499 18.4779 37.4457 18.4779C37.1004 18.4779 36.8776 18.4779 36.7755 18.4718L36.9451 18.918C37.3741 18.918 37.6398 18.9058 37.7399 18.8771C37.842 18.8505 37.9217 18.7973 37.981 18.7195C38.0423 18.6417 38.0729 18.5455 38.0729 18.4308V16.1851H38.457V15.7429H35.3452ZM35.4883 16.5269V18.0992H37.1473V16.5269H35.4883ZM36.7019 17.6672H35.9255V16.9568H36.7019V17.6672ZM37.3701 14.7684V14.3733H36.8879V14.7684H36.2912V15.2085H36.8879V15.5218H37.3701V15.2085H38.4509V14.7684H37.3701Z" fill="white"/>
</svg>
