<svg width="263" height="60" viewBox="0 0 263 60" fill="none" xmlns="http://www.w3.org/2000/svg">
<path d="M101.239 17.4761L91.026 35.6244L91.8735 17.4761H85.9871L88.1948 43.2676H88.7476L101.399 25.3465L103.969 43.2676H104.491L106.898 17.4761H101.239Z" fill="#F8F8F8"/>
<path d="M140.135 17.4756L140.558 29.1845L131.257 27.5263L131.617 17.4756H125.601L126.51 42.8433H130.705L131.092 31.8192L140.586 30.4865L141.04 42.8433H145.303L146.211 17.4756H140.129H140.135Z" fill="#F8F8F8"/>
<path d="M177.566 16.7296L172.428 17.5096L163.514 43.2028H164.036L167.417 37.2517L180.295 35.0069L184.131 43.1998L187.969 42.776L177.563 16.7266L177.566 16.7296ZM169.954 32.6977L174.996 23.688L179.905 34.2269L169.954 32.6946V32.6977Z" fill="#F8F8F8"/>
<path d="M223.905 20.227C223.3 19.4132 222.406 18.75 221.224 18.2402C220.039 17.7305 218.583 17.4756 216.851 17.4756C215.982 17.4756 215.034 17.5524 214.005 17.7059C212.973 17.8594 211.871 18.1082 210.704 18.4552L210.735 17.4787H204.818L206.021 42.8464H210.182L210.412 32.504C213.339 32.2645 215.737 31.81 217.616 31.1375C219.492 30.465 220.951 29.6635 222.007 28.73C223.057 27.7965 223.791 26.823 224.199 25.8035C224.614 24.784 224.817 23.8075 224.817 22.874C224.817 21.9405 224.516 21.0377 223.908 20.2239L223.905 20.227ZM218.752 25.2201C218.503 26.0861 218.064 26.9643 217.435 27.8518C216.808 28.7423 215.924 29.5407 214.785 30.2593C213.646 30.9747 212.187 31.506 210.412 31.853L210.67 19.9813C211.257 19.8739 211.809 19.8032 212.328 19.7695C212.85 19.7388 213.339 19.7203 213.793 19.7203C215.721 19.7203 217.094 20.0428 217.908 20.6815C218.718 21.3202 219.127 22.0848 219.127 22.9723C219.127 23.5987 219.001 24.348 218.752 25.217V25.2201Z" fill="#F8F8F8"/>
<path d="M257.338 17.4756L247.128 35.6239L247.972 17.4756H242.086L244.3 43.2671H244.85L257.501 25.346L260.074 43.2671H260.593L263 17.4756H257.341H257.338Z" fill="#F8F8F8"/>
<path d="M54.6481 30.9228C54.599 32.3108 54.4331 33.6681 54.1629 34.9885C53.7054 37.2056 52.9562 39.3122 51.9459 41.2683C51.9459 41.2683 51.9459 41.2703 51.9459 41.2744C51.8415 41.4863 51.7279 41.6951 51.6143 41.9009C50.9817 43.0524 50.2571 44.1487 49.4526 45.1743V45.1804C48.8753 45.9174 48.2642 46.6176 47.6071 47.2839C44.994 49.9432 41.7791 52.016 38.1864 53.2781C37.299 53.5913 36.3932 53.8554 35.4628 54.0642C33.7094 54.4603 31.8855 54.6692 30.0093 54.6692C28.1331 54.6692 26.3276 54.4603 24.5773 54.0704C23.6469 53.8585 22.735 53.6005 21.8537 53.2873C18.2488 52.0252 15.0246 49.9494 12.4023 47.2778C11.7452 46.6114 11.131 45.9082 10.5568 45.1682C9.75539 44.1395 9.03379 43.0493 8.40431 41.9009C8.28456 41.6859 8.17094 41.4771 8.0604 41.2591C7.0563 39.303 6.30399 37.1995 5.84954 34.9855C5.57932 33.6619 5.41351 32.3077 5.36438 30.9197L6.19959 31.1992C6.45753 31.2852 6.75845 31.3742 7.06244 31.4541C7.14842 31.4755 7.23133 31.5001 7.3173 31.5185C8.19244 31.7304 9.00615 31.841 9.66941 31.841C10.1331 31.841 10.5323 31.7857 10.8117 31.6782C10.9898 31.4264 11.2508 30.8706 11.4627 30.3056C10.9345 28.5061 9.0952 21.5201 10.4647 15.2342C10.4954 15.096 10.5261 14.964 10.5568 14.8319C11.1495 14.0734 11.782 13.3549 12.4545 12.6732C13.2498 11.8655 14.1034 11.1132 15.0062 10.4223C16.52 9.25844 18.172 8.26965 19.9345 7.48046C20.521 7.21944 21.1167 6.97992 21.7217 6.7619C22.1331 6.6145 22.5477 6.47939 22.9653 6.35655C24.3501 5.942 25.7903 5.65027 27.2642 5.48752C27.5436 5.45374 27.823 5.42918 28.0994 5.40461C28.2468 5.3954 28.3911 5.38619 28.5385 5.37698C28.6398 5.37083 28.7442 5.36469 28.8486 5.36162C29.2324 5.3432 29.6163 5.33398 30.0093 5.33398C30.7954 5.33398 31.5753 5.36776 32.343 5.44453C32.5242 5.45989 32.6992 5.47831 32.8742 5.49981C34.3113 5.66563 35.7145 5.95735 37.0656 6.3627C37.4863 6.48246 37.9008 6.61757 38.3092 6.76804C38.9756 7.00449 39.6296 7.26858 40.2683 7.56337C41.9786 8.34335 43.5784 9.31372 45.0493 10.4499C45.9428 11.1408 46.7903 11.887 47.5764 12.6916C48.2489 13.3733 48.8814 14.0949 49.4771 14.8565C49.5017 14.9762 49.5293 15.1052 49.56 15.2311C50.9295 21.5201 49.0964 28.5061 48.5652 30.3056C48.777 30.8675 49.038 31.4295 49.2131 31.6782H49.2192C49.5017 31.7857 49.8978 31.841 50.3615 31.841C51.0217 31.841 51.8323 31.7274 52.7136 31.5185C52.7996 31.5001 52.8794 31.4755 52.9592 31.4571C53.2694 31.3742 53.5703 31.2882 53.8159 31.2022L54.6481 30.9228Z" fill="white"/>
<path d="M51.2858 26.1905L50.8958 25.5794C51.4086 25.0298 51.8753 24.2836 52.2991 23.3408L52.9316 23.5281C52.818 23.8475 52.6461 24.2037 52.4158 24.6029V28.3861H51.7372V25.6623C51.5867 25.8681 51.4362 26.04 51.2827 26.1874L51.2858 26.1905Z" fill="#E70002"/>
<path d="M52.6184 22.8189H50.991V22.1556H52.6184V21.563H53.34V22.1556H54.2182V22.8189H53.34V23.2888H52.6184V22.8189Z" fill="#E70002"/>
<path d="M55.8242 24.7935H53.3308V27.1518H55.8242V24.7935Z" fill="#E70002"/>
<path d="M55.4373 22.8189H54.5407V22.1556H55.4373V21.563H56.162V22.1556H57.7864V22.8189H56.162V23.2888H55.4373V22.8189Z" fill="#E70002"/>
<path d="M55.5233 28.38L55.2684 27.7105C55.4219 27.7167 55.7597 27.7198 56.2756 27.7198C56.4322 27.7198 56.5151 27.6307 56.5151 27.4465V24.2805H53.119V23.6172H57.7955V24.2805H57.2183V27.6491C57.2183 27.8211 57.1722 27.9654 57.0801 28.0821C56.991 28.1988 56.8682 28.2786 56.7177 28.3186C56.5673 28.3615 56.1681 28.38 55.5233 28.38Z" fill="#E70002"/>
<path d="M1.97742 26.3196C2.41652 25.7024 2.78499 24.9838 3.07671 24.167H2.07568V23.5283H3.12276V22.5456C2.8679 22.604 2.62225 22.6378 2.38888 22.647L2.11867 22.0205C2.92931 21.9806 3.65398 21.8271 4.28654 21.563L4.57518 22.1556C4.39708 22.2232 4.12993 22.3092 3.77374 22.4105V23.5283H4.61509V24.167H3.77374V24.3298C4.17599 24.7812 4.47077 25.165 4.66115 25.4844L4.22819 25.9849C4.07159 25.6993 3.91806 25.4537 3.77374 25.2449V28.4354H3.12276V25.5489C2.91703 26.034 2.68366 26.4793 2.42266 26.8847L1.97742 26.3227V26.3196Z" fill="#E70002"/>
<path d="M5.46398 24.5664H4.80865V28.454H5.46398V24.5664Z" fill="#E70002"/>
<path d="M5.8096 24.1762L5.2661 24.3635C5.14634 23.9888 4.96518 23.5651 4.7226 23.0891L5.32751 22.8926C5.5486 23.2734 5.71748 23.6541 5.84031 24.0441C5.85566 24.081 5.86487 24.1209 5.87715 24.1577L5.8096 24.1792V24.1762Z" fill="#E70002"/>
<path d="M7.17293 24.0993L6.55573 24.2528C6.45133 23.7922 6.31315 23.3408 6.13812 22.9016L6.78603 22.7573C6.94263 23.1627 7.07467 23.611 7.17293 24.0962V24.0993Z" fill="#E70002"/>
<path d="M7.99276 28.4599V28.076H6.65704V28.4599H6.00299V24.6152H8.67137V28.4599H7.99276Z" fill="#E70002"/>
<path d="M5.00814 22.739L4.70721 22.0972C5.29678 22.0849 5.86177 22.0481 6.40528 21.9805C7.09617 21.9007 7.74714 21.7809 8.36741 21.6182L8.70211 22.1955C7.88225 22.4074 7.04704 22.5578 6.19954 22.6499C5.8065 22.696 5.40732 22.7267 5.00814 22.7421V22.739Z" fill="#E70002"/>
<path d="M8.72975 22.819C8.55779 23.3656 8.33978 23.8815 8.08184 24.3605L7.47693 24.0903C7.73486 23.602 7.94674 23.0984 8.10948 22.5825L8.72975 22.819Z" fill="#E70002"/>
<path d="M59.9604 31.5093C59.945 31.8501 59.9236 32.1879 59.8928 32.5257C58.6124 47.9134 45.7188 60 30.0002 60C14.2816 60 1.36651 47.8919 0.10448 32.4827C0.0737739 32.1511 0.0553501 31.8164 0.0369263 31.4786L2.53642 32.4428L2.60091 32.4704C2.99702 32.6301 3.78003 32.9372 4.74728 33.2688C4.69815 33.1798 4.65209 33.0846 4.6091 32.9925L3.27645 30.2318L5.3522 30.9197L6.18741 31.1991C6.44534 31.2851 6.74627 31.3742 7.05026 31.454C7.13624 31.4755 7.21914 31.5001 7.30512 31.5185C8.18025 31.7304 8.99397 31.8409 9.65723 31.8409C10.1209 31.8409 10.5201 31.7857 10.7995 31.6782C10.9776 31.4264 11.2386 30.8706 11.4505 30.3055C10.9223 28.5061 9.08302 21.52 10.4525 15.2341C10.4832 15.096 10.5139 14.9639 10.5446 14.8319C10.6337 14.4357 10.7258 14.0673 10.8179 13.7049C11.5917 10.6464 12.7217 7.50192 13.9131 5.08521C14.0175 4.87333 14.1189 4.67066 14.2202 4.48027C14.9633 4.01965 15.7279 3.58974 16.5078 3.19668C17.2018 2.84354 17.9111 2.52111 18.6327 2.22939C19.0872 2.04207 19.5416 1.86704 20.0053 1.70428C22.1209 0.955013 24.3533 0.436051 26.6563 0.184247C26.994 0.144327 27.3318 0.113619 27.6727 0.0859819C27.8508 0.0736988 28.0288 0.0614156 28.2069 0.0522033C28.3298 0.0429909 28.4557 0.0368494 28.5816 0.0337786C29.0452 0.0122831 29.5181 0 29.991 0C30.949 0 31.8978 0.0460617 32.8313 0.132044C33.0493 0.150468 33.2643 0.175035 33.4792 0.202672C35.7361 0.463688 37.9163 0.973438 39.9921 1.71043C40.4557 1.87318 40.9132 2.04821 41.3646 2.23553C42.0924 2.53339 42.8078 2.86197 43.5079 3.21511C44.2909 3.60817 45.0525 4.03808 45.7956 4.50177C45.8907 4.68908 45.989 4.88254 46.0903 5.08828C47.2817 7.50806 48.4087 10.6525 49.1855 13.711C49.2807 14.0734 49.3728 14.4542 49.468 14.8626C49.4926 14.9823 49.5202 15.1113 49.5509 15.2372C50.9204 21.5262 49.0873 28.5122 48.5561 30.3117C48.7679 30.8736 49.0289 31.4356 49.204 31.6843H49.2101C49.4926 31.7918 49.8887 31.8471 50.3524 31.8471C51.0126 31.8471 51.8232 31.7335 52.7045 31.5246C52.7905 31.5062 52.8703 31.4817 52.9501 31.4632C53.2603 31.3803 53.5612 31.2943 53.8068 31.2084L54.639 30.9289L56.7454 30.2288L55.3974 33.0078C55.3544 33.1 55.3084 33.189 55.2593 33.2781C55.9686 33.0355 56.6902 32.7683 57.3903 32.4827L57.4824 32.4459L59.9512 31.5154L59.9604 31.5093Z" fill="#E70002"/>
<path d="M32.7759 17.8382C31.9867 17.7276 31.2222 17.6693 30.5006 17.6693C30.3317 17.6693 30.1628 17.6724 29.997 17.6785C29.8312 17.6724 29.6653 17.6693 29.4934 17.6693C28.7718 17.6693 28.0072 17.7246 27.2181 17.8382C27.0676 16.8217 26.8895 15.8084 26.6838 14.8135C26.3337 13.1215 25.9007 11.4939 25.4002 9.97698C25.1177 9.11102 24.8045 8.2727 24.4729 7.47122C26.2662 6.98297 28.1208 6.7373 29.9939 6.7373C31.867 6.7373 33.7247 6.98604 35.518 7.47429C35.1894 8.26348 34.8762 9.10181 34.5906 9.97698C34.0901 11.5001 33.6602 13.1276 33.3102 14.8135C33.1106 15.7808 32.9294 16.7941 32.7728 17.8382H32.7759Z" fill="#E70002"/>
<path d="M53.859 41.5202C54.2858 41.4434 54.5621 41.4004 54.5621 41.4004C54.5621 41.4004 54.3319 41.6798 53.8958 42.1128C53.0145 42.9849 51.2704 44.465 48.8231 45.4446C48.3687 45.6381 47.905 45.807 47.4413 45.9636C46.6645 46.2277 45.8753 46.4641 45.1015 46.719C43.9285 47.1028 42.7863 47.5358 41.7361 48.1838C40.7259 48.8071 39.8477 49.6055 39.0155 50.4623C38.1926 51.3098 37.4126 52.2126 36.5959 53.0571C34.9439 54.7583 32.5518 55.9221 30.5498 55.9221C30.3717 55.9221 30.1874 55.9129 30.0032 55.8976C29.819 55.9129 29.6378 55.9221 29.4566 55.9221C27.4546 55.9221 25.0595 54.7583 23.4105 53.0571C22.5876 52.2126 21.8138 51.3129 20.994 50.4654C20.1618 49.6086 19.2867 48.8102 18.2734 48.1838C17.2263 47.5328 16.0779 47.1028 14.9079 46.719C14.1341 46.4611 13.345 46.2246 12.5712 45.9636C12.1075 45.8039 11.6439 45.635 11.1894 45.4446C8.74211 44.465 6.99799 42.9819 6.11672 42.1128C5.68069 41.6798 5.45039 41.4004 5.45039 41.4004C5.45039 41.4004 5.72675 41.4434 6.15356 41.5202C7.07169 41.6799 8.68684 41.9531 9.76463 42.122C9.6111 42.076 8.11263 41.6062 6.26104 39.8343C4.92531 38.5538 3.40227 36.6038 2.06348 33.6559C2.1556 33.6927 4.24363 34.5618 6.55889 35.1913C6.9028 35.2834 7.25285 35.3725 7.6029 35.4492C8.35214 35.6212 9.0983 35.7502 9.78306 35.8024C9.78306 35.8024 8.53024 35.4492 7.33269 34.4236C7.10239 34.2271 6.87209 34.006 6.65715 33.7542C6.32552 33.3765 6.02153 32.9373 5.77895 32.4307C5.82501 32.446 6.18427 32.5688 6.72163 32.7101C6.81068 32.7347 6.89973 32.7562 6.99799 32.7807C8.19247 33.0694 10.0103 33.3672 11.26 32.8943C11.3153 32.8759 11.3644 32.8698 11.4166 32.8606C12.0952 32.5627 12.8199 30.3272 12.8199 30.3272C12.8199 30.3272 10.2314 22.3769 11.7268 15.5076C11.8373 15.0132 11.954 14.5188 12.0799 14.0275C13.6797 7.72622 16.52 2.02071 17.9724 1.96236C18.7309 1.93166 20.1557 3.47012 21.5774 6.46106C21.6695 6.66066 21.7678 6.8664 21.8599 7.07829C22.2836 8.0333 22.7043 9.11729 23.1065 10.3241C23.5917 11.8073 24.0492 13.487 24.4361 15.351C24.7708 16.9693 25.0564 18.7258 25.2744 20.6204C25.2744 20.6204 27.2673 20.0615 29.4628 20.0615C29.647 20.0615 29.8282 20.0677 30.0093 20.0738C30.1874 20.0646 30.3717 20.0615 30.5559 20.0615C32.7514 20.0615 34.7473 20.6204 34.7473 20.6204C34.9623 18.7258 35.2478 16.9693 35.5856 15.351C35.9725 13.4839 36.427 11.8073 36.9152 10.3241C37.3144 9.11421 37.7351 8.03023 38.1619 7.07829C38.254 6.8664 38.3523 6.66066 38.4444 6.46106C39.863 3.47012 41.2909 1.93166 42.0493 1.96236C43.4986 2.02071 46.339 7.72008 47.9388 14.0213C48.0647 14.5126 48.1844 15.0101 48.2919 15.5045C49.7904 22.3738 47.1988 30.3241 47.1988 30.3241C47.1988 30.3241 47.9234 32.5596 48.602 32.8575C48.6512 32.8667 48.7034 32.8729 48.7586 32.8913C50.0053 33.3611 51.8231 33.0663 53.0207 32.7777C53.1159 32.7531 53.208 32.7316 53.297 32.707C53.8344 32.5658 54.1937 32.4429 54.2397 32.4276C53.9941 32.9343 53.6932 33.3734 53.3615 33.7511C53.1466 33.9998 52.9163 34.2209 52.686 34.4175C51.4915 35.4431 50.2356 35.7993 50.2356 35.7993C50.9234 35.7471 51.6665 35.6181 52.4158 35.4462C52.7628 35.3694 53.1128 35.2834 53.4567 35.1882C55.775 34.5587 57.8569 33.6897 57.9552 33.6528C56.6164 36.6008 55.0934 38.5507 53.7576 39.8312C51.903 41.6031 50.4076 42.0729 50.251 42.119C51.3288 41.9501 52.947 41.6737 53.8651 41.5171L53.859 41.5202Z" fill="#FFF2BB"/>
<path d="M59.9604 31.5093C59.945 31.8501 59.9235 32.1879 59.8928 32.5257L59.1344 34.1962C58.1057 36.4563 56.8744 38.3848 55.4619 39.9417L57.7219 39.5793L55.5724 42.2232C55.5448 42.257 55.2838 42.5733 54.8109 43.0401C53.9143 43.9245 52.0074 45.5735 49.3083 46.6544C48.9061 46.8233 48.4424 47.0014 47.8682 47.1979C47.7822 47.2256 47.6901 47.2563 47.6041 47.2839C47.2602 47.3975 46.9194 47.505 46.5785 47.6125C46.2223 47.7261 45.8692 47.8366 45.5161 47.9564C44.4844 48.2942 43.4004 48.6872 42.424 49.2922C41.6471 49.7743 40.8825 50.413 39.9521 51.3711C39.556 51.7826 39.1537 52.2217 38.7638 52.6424C38.5734 52.8543 38.3769 53.0662 38.1803 53.2781C37.9685 53.5084 37.7535 53.7356 37.5324 53.9628C35.6102 55.9435 32.8712 57.224 30.5498 57.224H29.4597C27.1414 57.224 24.3993 55.9466 22.4802 53.9628C22.2622 53.7418 22.0503 53.5145 21.8384 53.2873C21.6327 53.0662 21.427 52.842 21.2274 52.624C20.8466 52.2064 20.4536 51.7764 20.0605 51.3742C19.4341 50.7262 18.5835 49.9033 17.5917 49.2953C16.6091 48.6872 15.5283 48.2942 14.5027 47.9595C14.1465 47.8397 13.8026 47.7322 13.4525 47.6186C13.0963 47.505 12.7401 47.3944 12.387 47.2747C12.3072 47.2501 12.2304 47.2225 12.1506 47.1948C11.5579 46.9922 11.1096 46.8233 10.692 46.6452C7.99906 45.5612 6.09834 43.9214 5.20171 43.037C4.72884 42.5702 4.4709 42.254 4.4402 42.2202L2.28461 39.5701L4.54767 39.9355C3.13825 38.3786 1.90385 36.4533 0.875187 34.1932L0.0983157 32.4827C0.0676094 32.1511 0.0491855 31.8164 0.0307617 31.4786L2.53026 32.4428L2.59474 32.4704C2.99086 32.6301 3.77387 32.9372 4.74112 33.2688C4.69199 33.1798 4.64593 33.0846 4.60294 32.9925L3.27028 30.2318L5.34603 30.9197L6.18125 31.1991C6.43918 31.2851 6.7401 31.3742 7.0441 31.454C7.13007 31.4755 7.21298 31.5001 7.29896 31.5185C8.17409 31.7304 8.98781 31.8409 9.65107 31.8409C10.1147 31.8409 10.5139 31.7857 10.7933 31.6782C10.9714 31.4264 11.2324 30.8706 11.4443 30.3055C10.9162 28.5061 9.07686 21.52 10.4464 15.2342C10.4771 15.096 10.5078 14.9639 10.5385 14.8319C10.6275 14.4357 10.7196 14.0673 10.8118 13.7049C11.5856 10.6464 12.7156 7.50192 13.907 5.08522C14.0114 4.87333 14.1127 4.67066 14.214 4.48027C15.9336 1.17918 17.0881 0.703212 17.9141 0.669434H17.9878C18.6849 0.669434 19.3727 1.08399 20.0053 1.70429C21.1567 2.83126 22.1424 4.6461 22.7443 5.90819C22.8149 6.05866 22.8824 6.20298 22.95 6.35652C22.9807 6.42408 23.0114 6.49163 23.0421 6.56226C23.4996 7.59405 23.9357 8.72716 24.3318 9.92477C24.8691 11.5676 25.3297 13.3057 25.7013 15.099C25.9654 16.3765 26.1926 17.7061 26.3768 19.0603C27.2059 18.9129 28.299 18.7717 29.4536 18.7717C29.6378 18.7717 29.819 18.7778 29.9971 18.784C30.1783 18.7778 30.3594 18.7717 30.5437 18.7717C31.6982 18.7717 32.7945 18.9129 33.6235 19.0603C33.8078 17.7092 34.035 16.3796 34.2991 15.099C34.6768 13.2842 35.1373 11.5431 35.6716 9.92784C36.0647 8.72716 36.5007 7.59405 36.9644 6.55919C36.992 6.49471 37.0196 6.43022 37.0504 6.36573C37.1179 6.21526 37.1855 6.07094 37.253 5.92354C37.8549 4.65531 38.8405 2.84048 39.992 1.71043C40.6276 1.08706 41.3155 0.672504 42.0156 0.672504H42.0923C42.9183 0.706283 44.0729 1.18532 45.7986 4.50177C45.8938 4.68909 45.992 4.88255 46.0934 5.08829C47.2848 7.50806 48.4117 10.6525 49.1886 13.711C49.2838 14.0734 49.3759 14.4542 49.4711 14.8626C49.4956 14.9823 49.5233 15.1113 49.554 15.2372C50.9235 21.5262 49.0903 28.5122 48.5591 30.3117C48.771 30.8736 49.032 31.4356 49.207 31.6843H49.2131C49.4956 31.7918 49.8918 31.8471 50.3554 31.8471C51.0156 31.8471 51.8263 31.7335 52.7075 31.5246C52.7935 31.5062 52.8733 31.4817 52.9532 31.4632C53.2633 31.3803 53.5642 31.2943 53.8099 31.2084L54.642 30.9289L56.7485 30.2288L55.4005 33.0078C55.3575 33.1 55.3114 33.189 55.2623 33.2781C55.9716 33.0355 56.6932 32.7683 57.3933 32.4827L57.4854 32.4459L59.9542 31.5154L59.9604 31.5093Z" fill="#1D1D1B"/>
<path d="M53.859 41.5202C54.2858 41.4434 54.5621 41.4004 54.5621 41.4004C54.5621 41.4004 54.3319 41.6798 53.8958 42.1128C53.0145 42.9849 51.2704 44.465 48.8231 45.4446C48.3687 45.6381 47.905 45.807 47.4413 45.9636C46.6645 46.2277 45.8753 46.4641 45.1015 46.719C43.9285 47.1028 42.7863 47.5358 41.7361 48.1838C40.7259 48.8071 39.8477 49.6055 39.0155 50.4623C38.1926 51.3098 37.4126 52.2126 36.5959 53.0571C34.9439 54.7583 32.5518 55.9221 30.5498 55.9221C30.3717 55.9221 30.1874 55.9129 30.0032 55.8976C29.819 55.9129 29.6378 55.9221 29.4566 55.9221C27.4546 55.9221 25.0595 54.7583 23.4105 53.0571C22.5876 52.2126 21.8138 51.3129 20.994 50.4654C20.1618 49.6086 19.2867 48.8102 18.2734 48.1838C17.2263 47.5328 16.0779 47.1028 14.9079 46.719C14.1341 46.4611 13.345 46.2246 12.5712 45.9636C12.1075 45.8039 11.6439 45.635 11.1894 45.4446C8.74211 44.465 6.99799 42.9819 6.11672 42.1128C5.68069 41.6798 5.45039 41.4004 5.45039 41.4004C5.45039 41.4004 5.72675 41.4434 6.15356 41.5202C7.07169 41.6799 8.68684 41.9531 9.76463 42.122C9.6111 42.076 8.11263 41.6062 6.26104 39.8343C4.92531 38.5538 3.40227 36.6038 2.06348 33.6559C2.1556 33.6927 4.24363 34.5618 6.55889 35.1913C6.9028 35.2834 7.25285 35.3725 7.6029 35.4492C8.35214 35.6212 9.0983 35.7502 9.78306 35.8024C9.78306 35.8024 8.53024 35.4492 7.33269 34.4236C7.10239 34.2271 6.87209 34.006 6.65715 33.7542C6.32552 33.3765 6.02153 32.9373 5.77895 32.4307C5.82501 32.446 6.18427 32.5688 6.72163 32.7101C6.81068 32.7347 6.89973 32.7562 6.99799 32.7807C8.19247 33.0694 10.0103 33.3672 11.26 32.8943C11.3153 32.8759 11.3644 32.8698 11.4166 32.8606C12.0952 32.5627 12.8199 30.3272 12.8199 30.3272C12.8199 30.3272 10.2314 22.3769 11.7268 15.5076C11.8373 15.0132 11.954 14.5188 12.0799 14.0275C13.6797 7.72622 16.52 2.02071 17.9724 1.96236C18.7309 1.93166 20.1557 3.47012 21.5774 6.46106C21.6695 6.66066 21.7678 6.8664 21.8599 7.07829C22.2836 8.0333 22.7043 9.11729 23.1065 10.3241C23.5917 11.8073 24.0492 13.487 24.4361 15.351C24.7708 16.9693 25.0564 18.7258 25.2744 20.6204C25.2744 20.6204 27.2673 20.0615 29.4628 20.0615C29.647 20.0615 29.8282 20.0677 30.0093 20.0738C30.1874 20.0646 30.3717 20.0615 30.5559 20.0615C32.7514 20.0615 34.7473 20.6204 34.7473 20.6204C34.9623 18.7258 35.2478 16.9693 35.5856 15.351C35.9725 13.4839 36.427 11.8073 36.9152 10.3241C37.3144 9.11421 37.7351 8.03023 38.1619 7.07829C38.254 6.8664 38.3523 6.66066 38.4444 6.46106C39.863 3.47012 41.2909 1.93166 42.0493 1.96236C43.4986 2.02071 46.339 7.72008 47.9388 14.0213C48.0647 14.5126 48.1844 15.0101 48.2919 15.5045C49.7904 22.3738 47.1988 30.3241 47.1988 30.3241C47.1988 30.3241 47.9234 32.5596 48.602 32.8575C48.6512 32.8667 48.7034 32.8729 48.7586 32.8913C50.0053 33.3611 51.8231 33.0663 53.0207 32.7777C53.1159 32.7531 53.208 32.7316 53.297 32.707C53.8344 32.5658 54.1937 32.4429 54.2397 32.4276C53.9941 32.9343 53.6932 33.3734 53.3615 33.7511C53.1466 33.9998 52.9163 34.2209 52.686 34.4175C51.4915 35.4431 50.2356 35.7993 50.2356 35.7993C50.9234 35.7471 51.6665 35.6181 52.4158 35.4462C52.7628 35.3694 53.1128 35.2834 53.4567 35.1882C55.775 34.5587 57.8569 33.6897 57.9552 33.6528C56.6164 36.6008 55.0934 38.5507 53.7576 39.8312C51.903 41.6031 50.4076 42.0729 50.251 42.119C51.3288 41.9501 52.947 41.6737 53.8651 41.5171L53.859 41.5202Z" fill="white"/>
<path d="M46.0718 28.9452C46.0718 28.9452 44.2817 26.1354 40.2039 23.3902L37.1547 20.2057C37.1547 20.2057 38.2479 10.717 41.8682 4.03809C41.8682 4.03809 44.8651 7.90727 46.6123 15.9619C48.3595 24.0166 46.0718 28.9483 46.0718 28.9483V28.9452Z" fill="#FFBB40"/>
<path d="M14.6039 28.5859C14.6039 28.5859 16.1115 26.2521 20.0112 23.3902L23.0604 20.2057C23.0604 20.2057 21.9672 10.717 18.347 4.03809C18.347 4.03809 14.739 8.31568 13.3664 16.7327C11.9938 25.1497 14.6069 28.5859 14.6069 28.5859H14.6039Z" fill="#FFBB40"/>
<path d="M33.6357 45.3554C33.6818 44.6399 33.9581 43.9367 34.3542 43.3164C34.7596 42.6992 35.2785 42.1587 35.8527 41.7012C37.0073 40.7646 38.3706 40.2088 39.6388 39.6468C40.2836 39.3797 40.9101 39.1002 41.5088 38.7931C42.1199 38.4953 42.6695 38.1391 43.1977 37.7337C44.2233 36.9077 45.1076 35.8268 45.3563 34.4111C45.473 35.1174 45.3348 35.8728 45.0462 36.5545C44.7453 37.2332 44.3031 37.8504 43.778 38.3786C43.2622 38.916 42.6358 39.3428 42.0124 39.7174C41.3768 40.0798 40.7227 40.3807 40.0748 40.6694C38.7698 41.2221 37.4894 41.7012 36.3502 42.4074C35.2202 43.1199 34.1854 44.038 33.6296 45.3585L33.6357 45.3554Z" fill="#460E75"/>
<path d="M36.2581 44.6644C36.427 44.124 36.86 43.6756 37.3482 43.3624C37.8426 43.0492 38.4106 42.8527 38.9633 42.7329C40.0872 42.4903 41.1189 42.4197 42.0555 41.9959C43.0104 41.6243 43.8794 41.0378 44.644 40.3315C45.4117 39.6191 46.0412 38.7532 46.5632 37.7705C46.425 38.876 45.9337 39.96 45.1937 40.8444C44.8344 41.2958 44.3984 41.6858 43.9409 42.0389C43.471 42.3828 42.9552 42.6623 42.4178 42.8895C41.8743 43.0983 41.297 43.258 40.729 43.3286C40.1609 43.3931 39.6174 43.43 39.0862 43.4699C38.558 43.5221 38.0514 43.5958 37.5631 43.78C37.0749 43.9551 36.6205 44.2314 36.2612 44.6644H36.2581Z" fill="#460E75"/>
<path d="M40.0226 45.2417C40.6429 45.1281 41.2201 45.0022 41.7821 44.8333C42.3378 44.6583 42.8783 44.4556 43.3911 44.1977C43.91 43.952 44.4013 43.648 44.8803 43.3164C45.3563 42.9786 45.8107 42.5978 46.2805 42.1802C46.0963 42.7851 45.7401 43.3348 45.2979 43.7985C44.8588 44.2683 44.3245 44.6429 43.7503 44.9316C43.17 45.208 42.5436 45.3984 41.9049 45.4567C41.2693 45.5212 40.6183 45.4659 40.0257 45.2417H40.0226Z" fill="#460E75"/>
<path d="M43.1517 28.4018C43.035 28.196 42.771 28.0609 42.553 28.1561C41.8406 28.4294 42.292 29.108 42.292 29.108C42.292 29.108 43.1487 29.8635 41.5734 32.4705C42.5591 31.6322 43.1824 30.3824 43.2623 29.0896C43.2776 28.8532 43.2715 28.6044 43.1517 28.4018Z" fill="#E70002"/>
<path d="M41.3308 30.2964C41.2295 30.1213 41.0023 30.0016 40.815 30.0845C40.1978 30.3209 40.5877 30.9075 40.5877 30.9075C40.5877 30.9075 41.3278 31.5615 39.9675 33.8124C40.818 33.0877 41.3585 32.0068 41.426 30.8921C41.4383 30.6894 41.4322 30.4745 41.3308 30.2964Z" fill="#E70002"/>
<path d="M39.7495 31.9731C39.6727 31.838 39.4977 31.7489 39.3564 31.8103C38.8866 31.9915 39.1845 32.4368 39.1845 32.4368C39.1845 32.4368 39.7464 32.9342 38.7116 34.6508C39.3595 34.0981 39.771 33.2782 39.8232 32.4276C39.8324 32.274 39.8293 32.1082 39.7495 31.9731Z" fill="#E70002"/>
<path d="M36.2336 38.8422C36.2674 38.6978 38.0207 38.3846 39.0923 38.0591C40.1824 37.7275 41.6195 37.055 42.6512 35.8021C43.9378 33.9934 43.6829 31.2573 43.6829 31.2573L42.6512 32.372C42.5038 33.0814 41.1681 35.1419 39.4977 36.1583C36.7065 37.2116 36.2336 38.8422 36.2336 38.8422Z" fill="#E70002"/>
<path d="M35.5487 39.2907C36.5651 38.4739 38.3461 38.0163 39.4914 37.4144C41.1895 36.5208 42.648 35.486 42.648 32.3691C42.5375 32.6762 42.1997 32.9096 41.9602 33.1215C41.4382 33.5821 40.7934 33.8124 40.21 34.187C39.2089 34.8288 38.1158 35.268 37.1854 36.0142C36.255 36.7604 35.5457 37.8382 35.5457 39.2938L35.5487 39.2907Z" fill="#1D1D1B"/>
<mask id="mask0_4002_1530" style="mask-type:luminance" maskUnits="userSpaceOnUse" x="35" y="32" width="8" height="8">
<path d="M35.5487 39.2907C36.5651 38.4739 38.3461 38.0163 39.4914 37.4144C41.1895 36.5208 42.648 35.486 42.648 32.3691C42.5375 32.6762 42.1997 32.9096 41.9602 33.1215C41.4382 33.5821 40.7934 33.8124 40.21 34.187C39.2089 34.8288 38.1158 35.268 37.1854 36.0142C36.255 36.7604 35.5457 37.8382 35.5457 39.2938L35.5487 39.2907Z" fill="white"/>
</mask>
<g mask="url(#mask0_4002_1530)">
<path d="M37.6274 37.8046C39.3199 37.8046 40.6919 36.4325 40.6919 34.7399C40.6919 33.0474 39.3199 31.6753 37.6274 31.6753C35.9349 31.6753 34.5629 33.0474 34.5629 34.7399C34.5629 36.4325 35.9349 37.8046 37.6274 37.8046Z" fill="#FFBB40"/>
</g>
<path d="M30.341 46.3721C29.1496 46.3721 24.2612 47.7785 29.0852 49.9618L30.341 48.4541L31.5969 49.9618C36.4178 47.7816 31.5325 46.3721 30.341 46.3721Z" fill="#E70002"/>
<path d="M30.3409 47.3452C28.8363 47.3452 27.5528 47.8672 27.5528 48.4998C27.5528 49.1324 30.3409 50.763 30.3409 50.763C30.3409 50.763 33.1291 49.1293 33.1291 48.4998C33.1291 47.8703 31.8455 47.3452 30.3409 47.3452Z" fill="#1D1D1B"/>
<path d="M27.0493 45.3554C27.0032 44.6399 26.7268 43.9367 26.3307 43.3164C25.9254 42.6992 25.4065 42.1587 24.8323 41.7012C23.6777 40.7646 22.3143 40.2088 21.0462 39.6468C20.4013 39.3797 19.7749 39.1002 19.1762 38.7931C18.5651 38.4953 18.0155 38.1391 17.4873 37.7337C16.4617 36.9077 15.5774 35.8268 15.3286 34.4111C15.212 35.1174 15.3501 35.8728 15.6388 36.5545C15.9397 37.2332 16.3819 37.8504 16.907 38.3786C17.4228 38.916 18.0492 39.3428 18.6726 39.7174C19.3082 40.0798 19.9622 40.3807 20.6101 40.6694C21.9152 41.2221 23.1956 41.7012 24.3348 42.4074C25.4648 43.1199 26.4996 44.038 27.0554 45.3585L27.0493 45.3554Z" fill="#460E75"/>
<path d="M24.4269 44.6644C24.2581 44.124 23.8251 43.6756 23.3369 43.3624C22.8425 43.0492 22.2744 42.8527 21.7217 42.7329C20.5979 42.4903 19.5661 42.4197 18.6296 41.9959C17.6746 41.6243 16.8056 41.0378 16.041 40.3315C15.2734 39.6191 14.6439 38.7532 14.1219 37.7705C14.2601 38.876 14.7514 39.96 15.4914 40.8444C15.8507 41.2958 16.2867 41.6858 16.7442 42.0389C17.214 42.3828 17.7299 42.6623 18.2672 42.8895C18.8107 43.0983 19.388 43.258 19.9561 43.3286C20.5242 43.3931 21.0677 43.43 21.5989 43.4699C22.127 43.5221 22.6337 43.5958 23.1219 43.78C23.6102 43.9551 24.0646 44.2314 24.4239 44.6644H24.4269Z" fill="#460E75"/>
<path d="M20.6623 45.2417C20.042 45.1281 19.4648 45.0022 18.9028 44.8333C18.3471 44.6583 17.8066 44.4556 17.2938 44.1977C16.7749 43.952 16.2836 43.648 15.8046 43.3164C15.3286 42.9786 14.8742 42.5978 14.4044 42.1802C14.5886 42.7851 14.9448 43.3348 15.387 43.7985C15.8261 44.2683 16.3604 44.6429 16.9346 44.9316C17.5149 45.208 18.1413 45.3984 18.78 45.4567C19.4156 45.5212 20.0666 45.4659 20.6592 45.2417H20.6623Z" fill="#460E75"/>
<path d="M17.5334 28.4019C17.65 28.1992 17.9141 28.061 18.1321 28.1562C18.8445 28.4295 18.3931 29.1082 18.3931 29.1082C18.3931 29.1082 17.5364 29.8636 19.1117 32.4707C18.126 31.6324 17.5027 30.3825 17.4228 29.0897C17.4075 28.8533 17.4136 28.6046 17.5334 28.4019Z" fill="#E70002"/>
<path d="M19.3511 30.2964C19.4524 30.1213 19.6797 30.0016 19.867 30.0845C20.4842 30.3209 20.0911 30.9075 20.0911 30.9075C20.0911 30.9075 19.3511 31.5615 20.7114 33.8124C19.8608 33.0877 19.3204 32.0068 19.2528 30.8921C19.2406 30.6894 19.2467 30.4745 19.348 30.2964H19.3511Z" fill="#E70002"/>
<path d="M20.9355 31.9731C21.0122 31.838 21.1873 31.7489 21.3285 31.8103C21.7983 31.9915 21.5005 32.4368 21.5005 32.4368C21.5005 32.4368 20.9385 32.9342 21.9733 34.6508C21.3254 34.0981 20.914 33.2782 20.8618 32.4276C20.8526 32.274 20.8556 32.1082 20.9355 31.9731Z" fill="#E70002"/>
<path d="M27.3932 27.9627C27.3932 29.5933 28.7136 30.9138 30.3441 30.9138C31.9746 30.9138 33.295 29.5933 33.295 27.9627C33.295 26.3322 31.9746 25.0117 30.3441 25.0117C28.7136 25.0117 27.3932 26.3322 27.3932 27.9627Z" fill="#E70002"/>
<path d="M35.1681 27.0479C35.3186 28.6017 34.9286 29.5198 33.9767 30.7574C33.0248 31.9949 30.688 32.9438 30.949 34.4269L30.9368 34.4669C31.0995 33.9264 31.5754 33.5333 32.076 33.2754C32.5765 33.0175 33.1261 32.8578 33.6266 32.5906C34.5693 32.0839 35.294 31.1811 35.5796 30.1493C35.8682 29.1176 35.7147 27.9722 35.1712 27.0479H35.1681Z" fill="#E70002"/>
<path d="M25.517 27.0479C25.3665 28.6017 25.7565 29.5198 26.7084 30.7574C27.6603 31.9949 29.997 32.9438 29.736 34.4269L29.7483 34.4669C29.5856 33.9264 29.1096 33.5333 28.6091 33.2754C28.1086 33.0175 27.559 32.8578 27.0584 32.5906C26.1158 32.0839 25.3911 31.1811 25.1055 30.1493C24.8169 29.1176 24.9704 27.9722 25.5139 27.0479H25.517Z" fill="#E70002"/>
<path d="M24.4516 38.8422C24.4178 38.6978 22.6645 38.3846 21.5928 38.0591C20.5027 37.7275 19.0657 37.055 18.0339 35.8021C16.7473 33.9934 17.0022 31.2573 17.0022 31.2573L18.0339 32.372C18.1813 33.0814 19.5171 35.1419 21.1875 36.1583C23.9787 37.2116 24.4516 38.8422 24.4516 38.8422Z" fill="#E70002"/>
<path d="M25.1362 39.2907C24.1198 38.4739 22.3388 38.0163 21.1935 37.4144C19.4954 36.5208 18.0369 35.486 18.0369 32.3691C18.1474 32.6762 18.4852 32.9096 18.7247 33.1215C19.2467 33.5821 19.8915 33.8124 20.4749 34.187C21.476 34.8288 22.5691 35.268 23.4995 36.0142C24.4299 36.7604 25.1392 37.8382 25.1392 39.2938L25.1362 39.2907Z" fill="#1D1D1B"/>
<mask id="mask1_4002_1530" style="mask-type:luminance" maskUnits="userSpaceOnUse" x="18" y="32" width="8" height="8">
<path d="M25.1362 39.2907C24.1198 38.4739 22.3388 38.0163 21.1935 37.4144C19.4954 36.5208 18.0369 35.486 18.0369 32.3691C18.1474 32.6762 18.4852 32.9096 18.7247 33.1215C19.2467 33.5821 19.8915 33.8124 20.4749 34.187C21.476 34.8288 22.5691 35.268 23.4995 36.0142C24.4299 36.7604 25.1392 37.8382 25.1392 39.2938L25.1362 39.2907Z" fill="white"/>
</mask>
<g mask="url(#mask1_4002_1530)">
<path d="M23.0574 37.8046C24.7499 37.8046 26.1219 36.4325 26.1219 34.7399C26.1219 33.0474 24.7499 31.6753 23.0574 31.6753C21.3649 31.6753 19.9929 33.0474 19.9929 34.7399C19.9929 36.4325 21.3649 37.8046 23.0574 37.8046Z" fill="#FFBB40"/>
</g>
<path d="M10.5446 14.8321C10.6336 14.4359 10.7257 14.0674 10.8179 13.7051C11.5917 10.6466 12.7216 7.50212 13.9131 5.08541C14.0175 4.87353 14.1188 4.67086 14.2201 4.48047C5.68375 9.76528 0 19.2171 0 29.9987C0 30.4961 0.0122825 30.9905 0.0368476 31.4788L2.53635 32.443L2.60083 32.4706C2.99694 32.6303 3.77995 32.9374 4.7472 33.269C4.69807 33.18 4.65201 33.0848 4.60902 32.9927L3.27637 30.232L5.35212 30.9199L6.18733 31.1993C6.44527 31.2853 6.74619 31.3744 7.05018 31.4542C7.13616 31.4757 7.21907 31.5003 7.30504 31.5187C8.18017 31.7306 8.99389 31.8411 9.65715 31.8411C10.1208 31.8411 10.52 31.7859 10.7994 31.6784C10.9775 31.4266 11.2385 30.8708 11.4504 30.3057C10.9223 28.5063 9.08294 21.5202 10.4524 15.2343C10.4832 15.0962 10.5139 14.9641 10.5446 14.8321ZM2.07268 24.1672V23.5285H3.11977V22.5459C2.8649 22.6042 2.61925 22.638 2.38588 22.6472L2.11567 22.0208C2.92632 21.9809 3.65099 21.8273 4.28354 21.5632L4.57218 22.1559C4.39408 22.2234 4.12693 22.3094 3.77074 22.4108V23.5285H4.6121V24.1672H3.77074V24.33C4.17299 24.7814 4.46778 25.1653 4.65815 25.4846L4.2252 25.9852C4.06859 25.6996 3.91506 25.4539 3.77074 25.2451V28.4356H3.11977V25.5491C2.91403 26.0343 2.68067 26.4795 2.41966 26.8849L1.97442 26.3229C2.41352 25.7057 2.782 24.9871 3.07371 24.1703H2.07268V24.1672ZM6.65714 28.0764V28.4602H6.00002V24.6156H8.66841V28.4602H7.9898V28.0764H6.65407H6.65714ZM6.55581 24.2532C6.45141 23.7926 6.31323 23.3412 6.1382 22.9021L6.78611 22.7578C6.94271 23.1631 7.07475 23.6114 7.17301 24.0966L6.55581 24.2502V24.2532ZM6.19961 22.6441C5.80657 22.6902 5.40739 22.7209 5.00821 22.7363L4.70729 22.0945C5.29685 22.0822 5.86184 22.0453 6.40535 21.9778C7.09624 21.8979 7.74721 21.7782 8.36748 21.6154L8.70218 22.1927C7.88232 22.4046 7.04711 22.5551 6.19961 22.6472V22.6441ZM5.26921 24.3576C5.14946 23.983 4.96829 23.5592 4.72571 23.0833L5.33062 22.8867C5.55171 23.2675 5.7206 23.6483 5.84342 24.0383C5.85877 24.0751 5.86799 24.115 5.88027 24.1519L5.81271 24.1734L5.26921 24.3607V24.3576ZM5.46266 24.5634V28.451H4.80862V24.5634H5.46266ZM8.08498 24.3576L7.48007 24.0874C7.738 23.5992 7.94988 23.0955 8.11262 22.5797L8.73289 22.8161C8.56093 23.3627 8.34292 23.8786 8.08498 24.3576Z" fill="#E70002"/>
<path d="M3.77374 24.3296C4.17599 24.781 4.47077 25.1649 4.66115 25.4842L4.22819 25.9848C4.07159 25.6992 3.91806 25.4535 3.77374 25.2447V28.4353H3.12276V25.5487C2.91703 26.0339 2.68366 26.4792 2.42266 26.8845L1.97742 26.3226C2.41652 25.7053 2.78499 24.9868 3.07671 24.1699H2.07568V23.5312H3.12276V22.5486C2.8679 22.6069 2.62225 22.6407 2.38888 22.6499L2.11867 22.0235C2.92931 21.9835 3.65398 21.83 4.28654 21.5659L4.57518 22.1586C4.39708 22.2261 4.12993 22.3121 3.77374 22.4135V23.5312H4.61509V24.1699H3.77374V24.3327V24.3296Z" fill="#E70002"/>
<path d="M5.46398 24.5664H4.80865V28.454H5.46398V24.5664Z" fill="#E70002"/>
<path d="M5.84031 24.0411C5.85566 24.0779 5.86487 24.1178 5.87715 24.1547L5.8096 24.1762L5.2661 24.3635C5.14634 23.9888 4.96518 23.5651 4.7226 23.0891L5.32751 22.8926C5.5486 23.2734 5.71748 23.6541 5.84031 24.0441V24.0411Z" fill="#E70002"/>
<path d="M6.14124 22.9016L6.78914 22.7573C6.94574 23.1627 7.07778 23.611 7.17604 24.0962L6.55884 24.2497C6.45444 23.7891 6.31626 23.3377 6.14124 22.8986V22.9016Z" fill="#E70002"/>
<path d="M6.00299 24.6152H8.67137V28.4599H7.99276V28.076H6.65704V28.4599H6.00299V24.6152Z" fill="#E70002"/>
<path d="M5.00814 22.739L4.70721 22.0972C5.29678 22.0849 5.86177 22.0481 6.40528 21.9805C7.09617 21.9007 7.74714 21.7809 8.36741 21.6182L8.70211 22.1955C7.88225 22.4074 7.04704 22.5578 6.19954 22.6499C5.8065 22.696 5.40732 22.7267 5.00814 22.7421V22.739Z" fill="#E70002"/>
<path d="M8.10948 22.5825L8.72975 22.819C8.55779 23.3656 8.33978 23.8815 8.08184 24.3605L7.47693 24.0903C7.73486 23.602 7.94674 23.0984 8.10948 22.5825Z" fill="#E70002"/>
<path d="M45.8046 4.49561C45.8998 4.68292 45.998 4.87638 46.0993 5.08212C47.2908 7.5019 48.4177 10.6464 49.1946 13.7049C49.2897 14.0672 49.3819 14.448 49.477 14.8564C49.5016 14.9762 49.5292 15.1052 49.56 15.2311C50.9295 21.52 49.0963 28.506 48.5651 30.3055C48.7769 30.8675 49.0379 31.4294 49.213 31.6782H49.2191C49.5016 31.7856 49.8977 31.8409 50.3614 31.8409C51.0216 31.8409 51.8322 31.7273 52.7135 31.5185C52.7995 31.5001 52.8793 31.4755 52.9592 31.4571C53.2693 31.3742 53.5702 31.2882 53.8159 31.2022L54.648 30.9228L56.7545 30.2226L55.4064 33.0017C55.3635 33.0938 55.3174 33.1828 55.2683 33.2719C55.9776 33.0293 56.6992 32.7621 57.3993 32.4766L57.4914 32.4397L59.9602 31.5093C59.9878 31.0087 60.0001 30.5051 60.0001 29.9984C60.0001 19.2292 54.3256 9.78349 45.8046 4.49561ZM54.2181 22.1557V22.8159H53.3399V23.2857H52.6183V22.8159H50.9878V22.1557H52.6183V21.563H53.3399V22.1557H54.2181ZM52.299 23.341L52.9315 23.5283C52.8179 23.8477 52.6459 24.2039 52.4156 24.6031V28.3863H51.737V25.6625C51.5866 25.8682 51.4361 26.0402 51.2826 26.1876L50.8926 25.5765C51.4054 25.0269 51.8721 24.2807 52.2959 23.3379L52.299 23.341ZM57.7954 24.2776H57.2181V27.6462C57.2181 27.8182 57.1721 27.9625 57.0799 28.0792C56.9909 28.1959 56.8681 28.2757 56.7176 28.3157C56.5672 28.3586 56.168 28.3771 55.5231 28.3771L55.2683 27.7076C55.4218 27.7138 55.7596 27.7169 56.2754 27.7169C56.432 27.7169 56.5149 27.6278 56.5149 27.4436V24.2776H53.1188V23.6143H57.7954V24.2776ZM53.3338 27.1488V24.7904H55.8271V27.1488H53.3338ZM57.7862 22.1557V22.8159H56.1618V23.2857H55.4372V22.8159H54.5405V22.1557H55.4372V21.563H56.1618V22.1557H57.7862Z" fill="#E70002"/>
<path d="M52.299 23.341L52.9316 23.5283C52.818 23.8476 52.646 24.2038 52.4157 24.6031V28.3863H51.7371V25.6625C51.5867 25.8682 51.4362 26.0402 51.2827 26.1876L50.8927 25.5765C51.4055 25.0268 51.8722 24.2806 52.296 23.3379L52.299 23.341Z" fill="#E70002"/>
<path d="M52.6184 22.8189H50.991V22.1556H52.6184V21.563H53.34V22.1556H54.2182V22.8189H53.34V23.2888H52.6184V22.8189Z" fill="#E70002"/>
<path d="M55.8242 24.7935H53.3308V27.1518H55.8242V24.7935Z" fill="#E70002"/>
<path d="M55.4373 22.8189H54.5407V22.1556H55.4373V21.563H56.162V22.1556H57.7864V22.8189H56.162V23.2888H55.4373V22.8189Z" fill="#E70002"/>
<path d="M57.7955 23.6143V24.2775H57.2183V27.6462C57.2183 27.8182 57.1722 27.9625 57.0801 28.0792C56.991 28.1959 56.8682 28.2757 56.7177 28.3156C56.5673 28.3586 56.1681 28.377 55.5233 28.377L55.2684 27.7076C55.4219 27.7137 55.7597 27.7168 56.2756 27.7168C56.4322 27.7168 56.5151 27.6278 56.5151 27.4435V24.2775H53.119V23.6143H57.7955Z" fill="#E70002"/>
<path d="M3.77374 24.3298V24.167H4.61509V23.5283H3.77374V22.4105C4.12993 22.3092 4.40015 22.2232 4.57518 22.1556L4.28654 21.563C3.65398 21.8271 2.92931 21.9837 2.11867 22.0205L2.38888 22.647C2.62225 22.6378 2.8679 22.604 3.12276 22.5456V23.5283H2.07568V24.167H3.0767C2.78499 24.9869 2.41652 25.7055 1.97742 26.3196L2.42266 26.8816C2.68366 26.4762 2.91703 26.031 3.12276 25.5458V28.4323H3.77374V25.2418C3.91806 25.4506 4.06852 25.6993 4.22819 25.9818L4.66115 25.4813C4.47384 25.1619 4.17599 24.7781 3.77374 24.3267V24.3298ZM8.36741 21.6152C7.74714 21.7779 7.09617 21.9008 6.40527 21.9775C5.86177 22.0451 5.29677 22.085 4.70721 22.0942L5.00813 22.736C5.40732 22.7176 5.80343 22.6869 6.19954 22.6439C7.04704 22.5548 7.88225 22.4013 8.70211 22.1894L8.36741 21.6121V21.6152ZM5.84335 24.038C5.72359 23.648 5.55164 23.2673 5.33055 22.8865L4.72564 23.083C4.96822 23.559 5.14938 23.9828 5.26914 24.3574L5.81264 24.1701L5.8802 24.1486C5.86791 24.1117 5.8587 24.0718 5.84335 24.035V24.038ZM4.81161 24.5631V28.4508H5.46566V24.5631H4.81161ZM6.00609 24.6123V28.4569H6.66321V28.073H7.99893V28.4569H8.67755V24.6123H6.00916H6.00609ZM7.99586 27.4558H6.66014V26.6298H7.99586V27.4558ZM7.99586 26.0156H6.66014V25.2203H7.99586V26.0156ZM6.79217 22.7545L6.14427 22.8988C6.3193 23.3379 6.45748 23.7893 6.56188 24.2499L7.17907 24.0964C7.08081 23.6081 6.95185 23.1629 6.79217 22.7575V22.7545ZM8.11562 22.5763C7.95288 23.0953 7.741 23.5989 7.48307 24.0841L8.08798 24.3543C8.34592 23.8722 8.56393 23.3563 8.73589 22.8128L8.11562 22.5763Z" fill="white"/>
<path d="M52.2991 23.3411C51.8753 24.2838 51.4086 25.03 50.8958 25.5797L51.2858 26.1908C51.4393 26.0434 51.5898 25.8714 51.7402 25.6657V28.3895H52.4189V24.6063C52.6491 24.2071 52.8211 23.8478 52.9347 23.5315L52.3022 23.3442L52.2991 23.3411ZM53.34 22.1558V21.5631H52.6184V22.1558H50.9879V22.816H52.6184V23.2858H53.34V22.816H54.2182V22.1558H53.34ZM53.119 23.6144V24.2777H56.5151V27.4437C56.5151 27.6279 56.4322 27.717 56.2756 27.717C55.7566 27.717 55.4219 27.717 55.2684 27.7078L55.5233 28.3772C56.1681 28.3772 56.5673 28.3588 56.7177 28.3158C56.8713 28.2759 56.991 28.196 57.0801 28.0793C57.1722 27.9626 57.2183 27.8183 57.2183 27.6463V24.2777H57.7955V23.6144H53.119ZM53.3339 24.7905V27.1489H55.8273V24.7905H53.3339ZM55.1579 26.5009H53.991V25.4354H55.1579V26.5009ZM56.162 22.1527V21.5601H55.4373V22.1527H54.5407V22.8129H55.4373V23.2828H56.162V22.8129H57.7863V22.1527H56.162Z" fill="white"/>
<path d="M230.414 58.2437L227.132 55.5598L226.481 56.2661L226.383 58.1025H225.047L224.82 52.0377H226.72L226.558 54.9518L228.317 51.9087L230.209 52.2342L228.197 54.396L230.522 58.2437H230.414Z" fill="#F8F8F8"/>
<path d="M241.435 57.2334C241.1 57.5436 240.808 57.7923 240.554 57.9735C240.299 58.1547 240.071 58.2437 239.869 58.2437C239.709 58.2437 239.565 58.1792 239.439 58.0533C239.313 57.9274 239.193 57.7217 239.086 57.4392C238.862 57.6357 238.585 57.7984 238.26 57.9336C237.934 58.0687 237.581 58.1577 237.207 58.2007C237.09 58.2161 236.979 58.2253 236.869 58.2345C236.761 58.2406 236.654 58.2468 236.553 58.2468C235.53 58.2468 235.02 57.8814 235.02 57.1505C235.02 57.0645 235.026 56.9724 235.042 56.8803C235.057 56.7882 235.079 56.6838 235.106 56.5763C235.171 56.3368 235.303 56.1218 235.502 55.9283C235.702 55.7349 235.941 55.5629 236.224 55.4063C236.506 55.2497 236.795 55.1054 237.093 54.9703C237.391 54.8351 237.667 54.7092 237.925 54.5895C238.183 54.4697 238.392 54.353 238.555 54.2363C238.717 54.1197 238.8 54.006 238.8 53.8893C238.8 53.57 238.76 53.355 238.68 53.2414C238.601 53.1278 238.447 53.0725 238.223 53.0725C238.063 53.0725 237.818 53.0879 237.483 53.1155C237.148 53.1431 236.783 53.1892 236.387 53.2445C235.988 53.3028 235.607 53.3796 235.244 53.4717L235.189 53.3642C235.386 53.1769 235.637 52.9957 235.945 52.8207C236.252 52.6457 236.583 52.4921 236.933 52.354C237.283 52.2158 237.633 52.1083 237.983 52.0285C238.33 51.9486 238.647 51.9087 238.929 51.9087C239.377 51.9087 239.712 51.9548 239.933 52.0438C240.154 52.1359 240.302 52.311 240.379 52.5751C240.455 52.8391 240.492 53.2353 240.492 53.7665V56.5149C240.492 56.7759 240.517 56.9632 240.563 57.0737C240.609 57.1874 240.719 57.2426 240.894 57.2426C240.953 57.2426 241.023 57.2365 241.106 57.2211C241.189 57.2058 241.281 57.1874 241.383 57.1659L241.426 57.2304L241.435 57.2334ZM238.892 54.8321C238.733 54.9703 238.521 55.1177 238.257 55.2712C237.993 55.4278 237.738 55.5936 237.489 55.7717C237.243 55.9498 237.062 56.1464 236.946 56.3644C236.844 56.5671 236.792 56.7452 236.792 56.8956C236.792 57.0461 236.838 57.1597 236.927 57.2549C237.016 57.3501 237.145 57.3962 237.314 57.3962C237.351 57.3962 237.388 57.3962 237.428 57.39C237.468 57.387 237.504 57.3808 237.541 57.3747C237.686 57.3378 237.851 57.2887 238.042 57.2211C238.229 57.1567 238.41 57.0799 238.585 56.9939C238.76 56.9079 238.883 56.8189 238.954 56.7329L238.889 54.8321H238.892Z" fill="#F8F8F8"/>
<path d="M251.03 58.1023L250.834 53.8524L249.139 57.5373H249.084L247.487 53.9629L246.464 58.2344H246.357L245.826 52.0498H247.662L249.421 54.9517L250.705 52.0498H252.489L252.206 58.1023H251.033H251.03Z" fill="#F8F8F8"/>
<path d="M262.235 58.2436L261.247 54.4819L257.866 58.2436H257.682L257.104 52.0498H259.073L258.636 56.2353L261.213 52.0498H262.997L262.41 58.2436H262.235Z" fill="#F8F8F8"/>
</svg>
