<svg width="59" height="35" viewBox="0 0 59 35" fill="none" xmlns="http://www.w3.org/2000/svg">
<path d="M58.625 17.5C58.625 27.1026 50.8173 35 41.125 35C31.5224 35 23.625 27.1026 23.625 17.5C23.625 7.89744 31.4327 0 41.0353 0C50.8173 0 58.625 7.89744 58.625 17.5Z" fill="#F9B50B"/>
<path d="M35.1993 17.5897C35.1993 16.3333 35.0198 15.0769 34.8403 13.9103H24.0711C24.1609 13.2821 24.3403 12.7436 24.5198 12.0256H34.1224C33.9429 11.3974 33.6737 10.7692 33.4044 10.141H25.2378C25.507 9.51282 25.866 8.97436 26.225 8.25641H32.4173C32.0583 7.6282 31.6096 7 31.0711 6.37179H27.6609C28.1993 5.74359 28.7378 5.20513 29.4557 4.57692C26.4044 1.70513 22.2762 0 17.6993 0C8.1865 0.269231 0.289062 7.89744 0.289062 17.5C0.289062 27.1026 8.09675 35 17.7891 35C22.366 35 26.4044 33.2051 29.5455 30.4231C30.1737 29.8846 30.7121 29.2564 31.3403 28.5385H27.7506C27.3019 28 26.8532 27.3718 26.4942 26.7436H32.5968C32.9557 26.2051 33.3147 25.5769 33.5839 24.859H25.4173C25.148 24.3205 24.8788 23.6923 24.6993 22.9744H34.3019C34.8403 21.359 35.1993 19.5641 35.1993 17.5897Z" fill="#C8191C"/>
<path d="M23.9814 21.985L24.2506 20.3696C24.1609 20.3696 23.9814 20.4594 23.8019 20.4594C23.1737 20.4594 23.0839 20.1004 23.1737 19.9209L23.7121 16.6902H24.6993L24.9685 14.8953H24.0711L24.2506 13.8184H22.366C22.366 13.8184 21.2891 19.9209 21.2891 20.6389C21.2891 21.7158 21.9173 22.2543 22.8147 22.2543C23.3532 22.2543 23.8019 22.0748 23.9814 21.985Z" fill="white"/>
<path d="M24.6094 19.0254C24.6094 21.6279 26.4042 22.2561 27.8401 22.2561C29.1863 22.2561 29.8145 21.9869 29.8145 21.9869L30.1735 20.192C30.1735 20.192 29.1863 20.6407 28.1991 20.6407C26.135 20.6407 26.494 19.1151 26.494 19.1151H30.2632C30.2632 19.1151 30.5325 17.9484 30.5325 17.41C30.5325 16.2433 29.9042 14.7177 27.8401 14.7177C26.0453 14.6279 24.6094 16.692 24.6094 19.0254ZM27.8401 16.3331C28.8273 16.3331 28.6478 17.4997 28.6478 17.5895H26.5837C26.6735 17.4997 26.853 16.3331 27.8401 16.3331Z" fill="white"/>
<path d="M39.5959 21.9879L39.9548 19.9238C39.9548 19.9238 39.0574 20.3725 38.3394 20.3725C37.083 20.3725 36.4548 19.3854 36.4548 18.2187C36.4548 15.9751 37.5318 14.8084 38.8779 14.8084C39.7753 14.8084 40.583 15.3469 40.583 15.3469L40.8523 13.3725C40.8523 13.3725 39.7753 12.9238 38.6984 12.9238C36.5446 12.9238 34.4805 14.8084 34.4805 18.3084C34.4805 20.6418 35.5574 22.1674 37.801 22.1674C38.6087 22.2572 39.5959 21.9879 39.5959 21.9879Z" fill="white"/>
<path d="M13.8398 14.6289C12.5834 14.6289 11.5963 14.9879 11.5963 14.9879L11.327 16.6033C11.327 16.6033 12.1347 16.2443 13.3911 16.2443C14.0193 16.2443 14.5578 16.334 14.5578 16.8725C14.5578 17.2315 14.468 17.3212 14.468 17.3212H13.6604C12.045 17.3212 10.3398 17.9494 10.3398 20.1033C10.3398 21.8084 11.4168 22.1674 12.1347 22.1674C13.3911 22.1674 14.0193 21.3597 14.1091 21.3597L14.0193 22.0776H15.545L16.2629 16.9622C16.2629 14.7187 14.468 14.6289 13.8398 14.6289ZM14.1988 18.7571C14.1988 19.0263 14.0193 20.552 12.9424 20.552C12.4039 20.552 12.2245 20.1033 12.2245 19.834C12.2245 19.3853 12.4937 18.7571 13.9296 18.7571C14.1091 18.7571 14.1988 18.7571 14.1988 18.7571Z" fill="white"/>
<path d="M18.0561 22.1673C18.5048 22.1673 20.8381 22.257 20.8381 19.7442C20.8381 17.4109 18.5946 17.8596 18.5946 16.9621C18.5946 16.5134 18.9535 16.3339 19.5817 16.3339C19.851 16.3339 20.8381 16.4237 20.8381 16.4237L21.1074 14.7185C21.1074 14.7185 20.4792 14.5391 19.3125 14.5391C17.9663 14.5391 16.5304 15.0775 16.5304 16.9621C16.5304 19.116 18.8638 18.9365 18.8638 19.7442C18.8638 20.2827 18.2356 20.3724 17.7869 20.3724C16.9792 20.3724 16.0817 20.1032 16.0817 20.1032L15.8125 21.8083C15.992 21.9878 16.5304 22.1673 18.0561 22.1673Z" fill="white"/>
<path d="M55.0332 13.1934L54.6742 15.7062C54.6742 15.7062 53.9562 14.8087 52.8793 14.8087C51.1742 14.8087 49.7383 16.8728 49.7383 19.2959C49.7383 20.8216 50.4562 22.3472 52.0716 22.3472C53.1485 22.3472 53.8665 21.6293 53.8665 21.6293L53.7767 22.2575H55.6614L57.0075 13.3728L55.0332 13.1934ZM54.1357 18.0395C54.1357 19.0267 53.687 20.3728 52.6101 20.3728C51.9819 20.3728 51.6229 19.8344 51.6229 18.8472C51.6229 17.3216 52.2511 16.4241 53.1485 16.4241C53.7767 16.5139 54.1357 16.9626 54.1357 18.0395Z" fill="white"/>
<path d="M3.70112 22.078L4.77804 15.4369L4.95753 22.078H6.21394L8.63702 15.4369L7.64984 22.078H9.6242L11.1498 13.1934H8.09856L6.21394 18.6677L6.1242 13.1934H3.43189L1.90625 22.078H3.70112Z" fill="white"/>
<path d="M32.4157 22.0759C32.9541 19.0246 33.0439 16.5118 34.39 16.9605C34.5695 15.7938 34.8387 15.2554 35.0182 14.8066H34.6593C33.8516 14.8066 33.1336 15.8836 33.1336 15.8836L33.3131 14.8964H31.5182L30.3516 22.0759H32.4157Z" fill="white"/>
<path d="M43.9062 14.6289C42.6498 14.6289 41.6627 14.9879 41.6627 14.9879L41.3934 16.6033C41.3934 16.6033 42.2011 16.2443 43.4575 16.2443C44.0857 16.2443 44.6242 16.334 44.6242 16.8725C44.6242 17.2315 44.5345 17.3212 44.5345 17.3212H43.7268C42.1114 17.3212 40.4062 17.9494 40.4062 20.1033C40.4062 21.8084 41.4832 22.1674 42.2011 22.1674C43.4575 22.1674 44.0857 21.3597 44.1755 21.3597L44.0857 22.0776H45.7909L46.5088 16.9622C46.5088 14.7187 44.5345 14.6289 43.9062 14.6289ZM44.355 18.7571C44.355 19.0263 44.1755 20.552 43.0986 20.552C42.5601 20.552 42.3806 20.1033 42.3806 19.834C42.3806 19.3853 42.6498 18.7571 44.0857 18.7571C44.2652 18.7571 44.2652 18.7571 44.355 18.7571Z" fill="white"/>
<path d="M47.9469 22.0759C48.4854 19.0246 48.5751 16.5118 49.9213 16.9605C50.1008 15.7938 50.37 15.2554 50.5495 14.8066H50.1905C49.3828 14.8066 48.6649 15.8836 48.6649 15.8836L48.8444 14.8964H47.0495L45.8828 22.0759H47.9469Z" fill="white"/>
</svg>
