<svg width="87" height="25" viewBox="0 0 87 25" fill="none" xmlns="http://www.w3.org/2000/svg">
<path d="M77.4176 0H60.8047C61.7724 5.48387 67.095 10.6452 72.9015 10.6452H86.1273C86.2886 10.1613 86.2885 9.35484 86.2885 8.87097C86.2885 4.03226 82.2563 0 77.4176 0Z" fill="url(#paint0_linear_195_3262)"/>
<path d="M62.2578 11.6133V25.0004H70.3223V17.9036H77.4191C81.2901 17.9036 84.6772 15.1617 85.8062 11.6133H62.2578Z" fill="#4FAD50"/>
<path d="M33.8711 0V24.8387H40.9679C40.9679 24.8387 42.7421 24.8387 43.7098 23.0645C48.5485 13.5484 50.0001 10.6452 50.0001 10.6452H50.9679V24.8387H59.0324V0H51.9356C51.9356 0 50.1614 0.1613 49.1937 1.7742C45.1614 10 42.9034 14.1936 42.9034 14.1936H41.9356V0H33.8711Z" fill="#4FAD50"/>
<path d="M0 25.0008V0.162109H8.06452C8.06452 0.162109 10.3226 0.162104 11.6129 3.71049C14.8387 13.0653 15.1613 14.3557 15.1613 14.3557C15.1613 14.3557 15.8065 12.0976 18.7097 3.71049C20 0.162104 22.2581 0.162109 22.2581 0.162109H30.3226V25.0008H22.2581V11.6137H21.2903L16.7742 25.0008H13.2258L8.70972 11.6137H7.74196V25.0008H0Z" fill="#4FAD50"/>
<defs>
<linearGradient id="paint0_linear_195_3262" x1="60.776" y1="5.39888" x2="86.2314" y2="5.39888" gradientUnits="userSpaceOnUse">
<stop stop-color="#27B1E6"/>
<stop offset="1" stop-color="#148ACA"/>
</linearGradient>
</defs>
</svg>
